<mxfile host="app.diagrams.net" modified="2024-04-24T19:34:15.156Z" agent="Mozilla/5.0 (Macintosh; Intel Mac OS X 10_15_7) AppleWebKit/537.36 (KHTML, like Gecko) Chrome/122.0.0.0 Safari/537.36" etag="Puklbf-T8YYa8s0HpzhU" version="24.0.2" type="device">
  <diagram id="BMAkCo053f2IH_U2tWA3" name="Official-J2Tech-Arch">
    <mxGraphModel dx="1159" dy="34" grid="1" gridSize="10" guides="1" tooltips="1" connect="1" arrows="1" fold="1" page="1" pageScale="1" pageWidth="850" pageHeight="1100" math="0" shadow="0">
      <root>
        <mxCell id="0" />
        <mxCell id="1" parent="0" />
        <mxCell id="bameNsq92qCA9drPWQOE-48" value="" style="rounded=0;whiteSpace=wrap;html=1;fillColor=#dae8fc;strokeColor=#6c8ebf;" parent="1" vertex="1">
          <mxGeometry x="295.11" y="2040" width="1100" height="440" as="geometry" />
        </mxCell>
        <mxCell id="bameNsq92qCA9drPWQOE-30" value="" style="rounded=0;whiteSpace=wrap;html=1;" parent="1" vertex="1">
          <mxGeometry x="1272.11" y="2170" width="100" height="210" as="geometry" />
        </mxCell>
        <mxCell id="bameNsq92qCA9drPWQOE-50" value="" style="rounded=0;whiteSpace=wrap;html=1;fillColor=#f5f5f5;fontColor=#333333;strokeColor=#666666;" parent="1" vertex="1">
          <mxGeometry x="635.11" y="2170" width="410" height="210" as="geometry" />
        </mxCell>
        <mxCell id="bameNsq92qCA9drPWQOE-59" value="" style="rounded=0;whiteSpace=wrap;html=1;fillColor=#fff2cc;strokeColor=#d6b656;" parent="1" vertex="1">
          <mxGeometry x="647.11" y="2243" width="188" height="90" as="geometry" />
        </mxCell>
        <mxCell id="bameNsq92qCA9drPWQOE-17" style="edgeStyle=orthogonalEdgeStyle;rounded=0;orthogonalLoop=1;jettySize=auto;html=1;" parent="1" source="bameNsq92qCA9drPWQOE-14" target="bameNsq92qCA9drPWQOE-15" edge="1">
          <mxGeometry relative="1" as="geometry">
            <Array as="points">
              <mxPoint x="548.11" y="2301" />
            </Array>
          </mxGeometry>
        </mxCell>
        <mxCell id="bameNsq92qCA9drPWQOE-14" value="" style="shape=image;verticalLabelPosition=bottom;labelBackgroundColor=default;verticalAlign=top;aspect=fixed;imageAspect=0;image=https://cdn-icons-png.flaticon.com/128/1822/1822899.png;" parent="1" vertex="1">
          <mxGeometry x="517.0500000000001" y="2222.5" width="62" height="62" as="geometry" />
        </mxCell>
        <mxCell id="bameNsq92qCA9drPWQOE-24" style="edgeStyle=orthogonalEdgeStyle;rounded=0;orthogonalLoop=1;jettySize=auto;html=1;entryX=0;entryY=0.5;entryDx=0;entryDy=0;" parent="1" source="bameNsq92qCA9drPWQOE-15" target="bameNsq92qCA9drPWQOE-19" edge="1">
          <mxGeometry relative="1" as="geometry" />
        </mxCell>
        <mxCell id="bameNsq92qCA9drPWQOE-60" value="" style="rounded=0;whiteSpace=wrap;html=1;fillColor=#fff2cc;strokeColor=#d6b656;" parent="1" vertex="1">
          <mxGeometry x="847.1" y="2243" width="188" height="90" as="geometry" />
        </mxCell>
        <mxCell id="bameNsq92qCA9drPWQOE-15" value="" style="shadow=1;strokeWidth=1;rounded=1;absoluteArcSize=1;arcSize=2;strokeColor=none;" parent="1" vertex="1">
          <mxGeometry x="670.1099999999999" y="2276.7999999999997" width="139" height="47.88" as="geometry" />
        </mxCell>
        <mxCell id="bameNsq92qCA9drPWQOE-16" value="&lt;font color=&quot;#000000&quot;&gt;Cloud Storage&lt;/font&gt;" style="dashed=0;connectable=0;html=1;fillColor=#5184F3;strokeColor=none;shape=mxgraph.gcp2.hexIcon;prIcon=cloud_storage;part=1;labelPosition=right;verticalLabelPosition=middle;align=left;verticalAlign=middle;spacingLeft=5;fontColor=#999999;fontSize=12;" parent="bameNsq92qCA9drPWQOE-15" vertex="1">
          <mxGeometry y="0.5" width="44" height="39" relative="1" as="geometry">
            <mxPoint x="5" y="-19.5" as="offset" />
          </mxGeometry>
        </mxCell>
        <mxCell id="bameNsq92qCA9drPWQOE-19" value="" style="shape=image;verticalLabelPosition=bottom;labelBackgroundColor=default;verticalAlign=top;aspect=fixed;imageAspect=0;image=data:image/png,iVBORw0KGgoAAAANSUhEUgAAATQAAACjCAMAAAAzSxLiAAAA51BMVEX///84NDHnchU5NTH8/Pw1MS7Z2Ng4MzDlchY6NjNhXVo1MC3ochT4+PgzLyv09PRLSEXv7+/p6ekrJiKvr679+PTg4OCqqagwKyjAwL+fnp0/PDm8u7rd3d3KyclwbmxWU1HqbgBycG5PTEl6eHZEQT5ZVlRoZmSDgYCUk5L77uT11b+Qjo2HhYS+vb389O744tPuqXzyx6r55tj00LfxvZzsbQDvsYXsfy/tnmnuijzsfSHvklDytI7upnfydQDqiDTupmztjU3umFzzyazqgSXsjkPwvJPrjkDsmVfvjk8iHRfvt5WDpVqfAAAZ60lEQVR4nO1dCXvautKGWEYIG7ODg8Fg9jV7szdtmjQ552v//+/5JBvskeQt6clNmmTuc/ucArKl16OZdxa5mcynfMqnvITsHx8cLBqvPYu/SvbvDy+vfl5/XaLXnsnfI4tD3dF13XHOv3wqW0pZ3OzoO3kmjn74iVoq2T/T9R1P8jvfzl57On+FoCNdz+/oHmZ6Xr9/7Qn9DXJ86eR3AtEvj197Rm9fGr8dABk1bZ9mLVkWD5yiUVU7P3ntOb15WTr6Di/O3eK1J/XW5VBQNKpq+idbixd0KYFGfcHBa0/rbctiR9ydbIPefKpanMgmzd2gy9ee1xsWlHk8lTGjqvb9U9Vi5PabZNIYWzt9fO2JvWX5R/YDDDTd+aQdEYIyi7wegAat2+ntZ2otXFDmwPcD+tXtHQiodD1VXNCg8tKzfHNyf7pVNP18eXIOdM25TtqgjYOTL2eHh4dflh8MtzPfD+g/jvcvoIHTI3yBt20by8eLH+cs26vrlzcfiwzfnm7NmXPRyFBV83Utr/+IgqJx8OWWAuawH+fz+R3duf5IqCE/xZF3WMr2LFA16kBv9vkfu38u7m+/6843nXMbzsV+yNXfqRz7Viyvf6F/X/zQAWpXvC9AjcXy7IEC5uhMvziG8vMDqdpJsPYrN3I64vTnzk/iov3F8svtT+eUetu8SE88X/thKMqjvzs3mQ10AWmH89v1i43FwdHN9RWz+fkwKsxAu/8wmGVunMB5elbpWIe0gyJJAft6d8685E4EYu72/DgRfqBXeedioypnsGTg3H29uHRVLBox93eJpO79yOKHD9q3LStbfOfI2oZYxADGfuV8oFzvMnCejl/uPOEybPl8SL5NUrSHj+Q8zwON8o3S/i2nasmQ6bp+9Jqr+B/Low+JfhUYpYNLJw4jhpLw97OPszkzjRufyjoP4OMvIiqBuEET/21e/1Alv8WFv3znX/D58V14ZpJZfGfn8uLrBYAt/6EMGt2HP3w/wKe3788FVXPDcqpi53eHR8vFAoL2kSgaE5A/O+VWvh+QXtcT5FkK6Orh5mh5vM92dWDz8h+ucHV/5SMjlAQAF2GAnTo/7x4PFvse/z0DJo8ytNeY+asIYstHX7erzzs/Bf935uTd5kgGmP5wdrLYZrURjVchZh/JcVJr/3h9FVDbf4RvG6xbQf/2zfl+e3/MxeJLx3e5VAcvPozjRI3l2Xc3y+P7gTMxs3PyTb96uHjcOMbgy4OrIMbPf5j+IpZJ/IchBiLwvHMkpcMez5Yh2diDS4CZ/jGy3PvHJyz36vB5sRgXKEC5gAxOv/wAjnP/4OjmwUuMCSxM/5lum+0f6mDQ1buPOPcPvtw8XLmJsR1R8s51Kh/Y+L0DHefj+3ac+8vHi0s9KpWYzzu3adaPjs6Dsov+fnvYmEmirpKlq6NicJeLPabJ8C/PnUDTTh/eK2YUteXZQ55G2VG5V5e9fr9Nc3Tg+KcTJCRPv7/b0waNo5+nLrkIUzM3y+OcXz8epCok7f88zW+cLiVo7/aEBlpeOxv6HgYaS1pcfE3LtBp3p4BsnC/faZmz8eXKCd2VXl7s6sfNo9fuk2b5+zewHnp+9E4NGsVMD3WVLmIPZ0cHT1h446tfktJ39Kvf77RzA52ch2DmIXZ9dvIUxASysSM2xrwfWUgpazfR4+jXv5eLpy56eQn6Yt5xlL6UiiMUMeefr8853X98DQia8/3dYoa+OiL5v3p4fNqm3Moi6MWlBs15v5mNxo24O/Xn5gv3704BZu/54HHjTCz46vrPm+X+M9jVESAueec9H8pA91KwybzAxdHxkz3f8grkg5yz90lqPTm+lBiH6z0vz5ZP3KZQafP61XuNn5g0vjrbdyBwsOnO+cWXpzmEA0g4Tm9easZvQQ5+RJx60mkEdXj/hF3K8A+G/6H3RBv5o4u8nJyIvQXAJ+hXdymTG0yoqgGrdvfcCYn3e5PA3V85UR15+R2W4jhJOW30BV4m3aGpUCk1d9uz6WQyXddzlTeJmZdqjWz8zOunzvezdE6BhQRA1Z5FkYuV3dWwVjMNTVNVs/bLmnWqbxK344uryDQ3Kw3o/x6n2yRfYCPfc6pQxW6rYBhqlopCiJJVFGwYhU7l6Vf6H8j9xbkT0aKn6z/ctFizm3yZ4zvOqj05tmi2+qaWZWgFohCtNrLfpLI1Tg5ZHUribNSHHjLKVbQH7RSXOYJoP1nVdnuqSiHLCkK1rV8vPWNRLy+N5W8/7Q0wu3NZR3NeVlspLrIPM03g+E8aqbTLhoiXD9u4/TZRyzSOj66dU1Ym3m4yR/+9oBsDURXIljtprnEEjt3p+tETdlVzRFRJybaC1TeLWgYt7u/0U+/wHIum/nGrA81VWcXZiZ3mCo0HTtXSWjWUaQ7UKMRcUUn9zVLdTOPghpIM15DrZ/t0NahTyNL1qNMUjoDKMniBB0U9tap1pyaOBS2LDftt8lyPfi/OmCt1/j1wNWBUw2w5Wq+a7gr/wgO0lylVrdkzI7emr2vjdI/ttWTx+HD5yNSs2Bqb7oyJOkpFlhBsgWSttqmUozKrJWJGqUfvjWraVhYs3i5SNVM2q8HrovSjUhhXR7cwRZSqOQu1JXtGsjKK5FcaB/7KUqn3fQ5ALJmmldrtEsosjoVw6QBkAFjDabLYPEAsEshimbCR2ltXNfb8lUABCGUcwoyL9fGKgvZ4/fWeS1g+ORuJpjw/w0Z2WOhbhsZpG1bVdfO/XeELSHUE11LeFUAr1svmgNq5o1P96vLi90mgcLyq3SbcBmVsk7NdhjLfa1abdmtiKgA1o1x/myEoJ7mpFiiaOuQdPsrsUvI2pI+evVGHNcn83832FS8wG0mDqcRs5NSAGlUbdb0bocr8F/h4mnvze5OKPQG7U5t0IWhUPcaUv5s5GqR7vSDukajrwxMWdAWHqRjdS1K1JrACWDHmpc2N6J91c/vMyDol43llsYfABqs9PoqplClmSm2XhpsPGxPmniVzrv59PNj/DRMmVwnZyBUwXVibgT2IMh2C2ZfGsP43qBmVzjjg6ASPwDcoU3Vja2K2EV9vpsCdnjrfv8NSDXvRToygqQZ255gznajYZmZN7aUK4d6AoBZYC8mu4HeVgWuiGd1E8FXL7lG8PN+4q8e+RRhlckNA0rAY4VZHmjZe/R1bk0ppBZwnIZCmVWaK4unfsJhB91L2km8P0fWYyjHK7I2h75TSAnZ5UpdptTjXam6306nX652Onask/jxu/G6umnJ82KIqa8g4SB18s7K8DxUFl9gxqLCuQCBxeTWUqUPQFMpshGnUk7Zm1W6tB4UyyRqmSazhdLbq5NIte3MHu7Ua0fHEMDVijacjOj6dBa3mfLE9l1+daSDrbAVTL7WtLZKKST8+fkgALe4lwgw0cBuszcW0WTFOTSkxag8mY9PA7nYg7AqGWi6sROwjpdse9ceGoXlGiIo7fr2bCFu1teoVJgVPJpORa0Ka02ywGm3s6yyN4QMjVGtl0OIu6a0J59GHoxhoHO8fp7f5dF250dDChCiKP1VM1V/RlPIg1XVy6yHRsMIHbMxhl6d2bMW1u5pYiqZhzRNseF4/1wegqUP/5x1L9T8n2iCD9qV2rSeCxs1Y66e0+nRF9kzVVLmmwLYATuM+urOxpoVkBlj0qymz6KCtMi+rKgXXH0pMjxPtWgFmxChsZ2pbgZ4puNbOUPd5Kh8+47dnHGgdHjR6q5TRUnWlGTGJS2wO7dhcb6WVNZXIjBQ1keW9iJG5SQ0LOYYNaB01qKQpxpam2SCyyWI8Z58tzq5jzgcxohadH6KUo8+XBog5SlMNKNoFM0xJgKgkxu8ie1qLH0+0cTvs+aHdsVwAwm4FBdVrYLyxYRxdqBaYrDfLQwdHF5dXuh56eG9Hjz30j3qa8NRqq2TUKm0684TEJVHVdpSqlVohKxfH4+w8BLWOElLNKLsmtDQHuQdS8zS1O4ELtKDVaBzcRxxIc67js0NtRZgAMSUXKkp3FWqLJKlFpC2r8yQ1dQWTuaSr9li2CQouuCynMoPctubmOJojeCNLjKEbxydf7y75F/Xld5wYN+AtwBKeHMZWK84YIVZSSIGYu+p6mA9sztRoawaEumUR9W4hpNCoKD3Xa1QLIMeBTZbjqM44nRiFeKfG4uDLxfnm7XPea1qTD2PPDGka5dgAvTk1Re2MlL5EPSjmM5J2PLb4ci9ah/keRZt5NG0IwnXFqriBABigRlWnKG73N+wlC98c9t6Ai6TMLXUFNYk24DjUqJ4JMyeM1ypu04y4Hm0gzVN4+JsLZN3h0nhcrkBd7ZTDQCPm2jV+Tcg4cL+YKbYJyHsZhRgWhBr7J2f//vP94fbxIE0r5UzebPQJR/GFykjYzoRafFUzTbc9i4h4ShuMjw+ZKJSm0hiMXYBemkeUGDPu3vKuYD9Svfp/ToWfjTKopQAzYAyTHRxqpM2BFYeaNA2sRNSGS2sRYtUaF0arVqfTnk3HlqgJqrBBS6ua8BNMxpMBG99aDfpjEXUMIsjM7pD/kpJrKpiG5u67clpwahTtOiRo6riaVO1+UtJwV/QFjFyGB1SoJWwhrTxtB51YuVbP0rhlEy6cRYx/wu+Jak3ntv+L6t56KCiiNvKvXuRrjTRI3QgLujKouIKMw2jbwPQSlTrY/zSTWvRzANyTCUlWIJvnwqrV6/CGotoqYA41tQ+v02V9KRCSaasq3GFgcTsUD/3ov8obkl6nuRXGTFAJbl4luyoHexNr0yelXtJIZSWDRtSyvEOrA65/QRu22ZK56kUmN+DNkgmcilAuVMfzpjS+Ouf2OCGrLVnLFcAX2lQMTktT+ECJFfyN+oAX6Ets9iSCrhBVSkmiNvczY2KH2VahA8kAjr7OYW70O2GBVmXOKX7Q+2PDgEhuLSlNotif0U/ONT1dxG3nwaaIdiBXBpEyMfoRLTHVCfAsJGv5O6PUV4EWGjKJ24wfcZPxW/M6wSMj6lTaBjTIDAdNHYY+nD8XexwS0mHOEqDMCnp8tRzhjlCma0LjYra29KXNP/7InJvdh/7c3Ob6QTxOzJVwc5SxJRKwkXHnpYppHUWm6dgAcQeNSWrwu3GkO0KZtQk1clbyfticAA1SpdQ6kDWchbnJIHDxOMu/CjeFOQ4oSuo88lOF3jMkb4Fp8B7MbR0oGsmSuKkgEuxjgnuba7QtUGIlcT1Idhk8QdULx+muhaCJjwxlWqFNdpQ8vVznK6JrkmIUJWsEvq8IGrCIsYpLViKoFLjcdBdYHWgA9NiGuwp0hMrQ28fNqRoMN0Uk6PxDwwUWcr6MRfOkbcnuRx02t5OqAyC0STzv4bpqLE8r7In/UBQcbdDce82Bx9kWLrpD/6FR7yKbhl5E27ASn7X5QynOZZKLa36degaffjvu6SG4QKqtHuGbA+eHZ/HZpw5QerKxBN0yeJZ9aXyxH5WjE0O5/1Yqc2mHKgRvdKraD56+TOHEK/VwoBVeOhCYJIXVJGOffg4axQ1oNnik2kAaXlG5ygH8b2X0kq11FVnX/AKFPQa2fRZffkGVQC23oIGOHqL1k2YyVkXQUAsUcsy5NKL6C7p/jdurJDEZ/SdSWcnEw/RoB/B9ZJzQfktBC+yP4oG2C8ab66SJDEGl0gUNFeeBd2QFAFHVcrCqog76XIz8hHruM6S4Fs0pMV2E0Aho/zCB+kDQFM8RlNrAd9YS2+unQYOB5whQKWA8W+WFd6Q0DXBDs1WHe4aGhC/b+zoSwlBFm7KPiyDWVhN8JwMtsGl43HSz9cF45VdibguAppQ90EYgBjOksJgj1Iz7zuDfU1Ymny1ILJtorDkp0wRVC3WQNINqAW9XSJQp+zUN4wFhSFwBAE3zyC13yXJX0rQelxiqo+oYOgZcq4fe578RlKlM+JwXO6tCI7t+QC21URJdzAWUT6G/RhnUnSqB7g0T6eY0UCvDqzU1A8ZB8FR0RCjD1anYju7ALaMoxn+eUeNub48xdAeqxfojO2DO6iBp0Xugfm7OWevRE0EDjsBkRXEuHldUebMhkIEhyoQZTX6DamkbLp4nqM1tUA+0FjCs6iDh/mgGkt7YtT8caMnhIHhu5hy5/ew16H1Lok1sWoCaqQVmRrswQcDi6Bc9SNiFPaUb0NoEzinB+1WzYIN7gRgADWdrSY6gagEmzVJDiCpvkIk120UpMQS5rZf4RHWeP41TnZl9rpT4xNnYFqLBhLgEZWCJY9M7BkDLkl9JfVh2YFaJ5ZnwQP0JMcTTp5RxcCk4754VoXRW+I/Mmh1GM4steCxPLVeEkiMZx7ki6kq44xxuIwoCOQrWlx47KVa0Ci7g9VyhIB4nlO4icURbgTRtcxA6N+FYp7L+Y97htjKSXyE7jep1sBkVN+bpTmEK24hL7CDY6UBUz/exY0vBhwlhFIUAtOF5+oGGoFBSFidNdwIATTHqm087fL8M+eN8R7HZVkwW0cgJA5jP84JPuwCfmdQ7z0kHmBJibPIhlRW8Jok1L5wxwB7qRRLYyTB+P+JKWNuIpbLmSvbq8M/CKdRsl2ssxR1SeeZsGgujGE2DN8dGTBMb7BPEfuIM1bm2l168/wUBheG1g1RAuVybSjaxUoBUtuxjw5X96FoGfxJONVuTmpc/UeWEQRe031Au3XRpGu+JylHFCmQXuFqUj65dhuPHkRul2eRKmET1jLoN4nFTtg7NPnRUIMyr89kuQ255SyvV+gD7hfCyqLJFrqMQu/m+Fl/3JkaUJ7K5ki2YPmcVFTWqFJkb1RkEIDPk0bQWBE184QXLesLiINCn4ohPEY6fWWYp1UeWBmr2PbhB6X+1YLsF83SI4iikRYnRy0ktI+7LHaDrJ1bQQYrmfCagQFGTxmd2C+wZgsNHitVyvwFVHa5ovxGuFGMGxoPCyaUIqQ961gsMSqux0M+0hoW6TJtr+MaEQVpZS1UL3N/lUWPZ2dWYKz5i2BK2N+Ruq/b3pPGV9tBk7QZ2OXikLr3h4/GsrC0wYCEm2INMR7ksrjl4BmaoNBNrXaQX7DXKQnjT6dYIKnK/pGJYcw+S7Sv9SvUh/xoZrMKdXxV6olVr3RXGFwjWWIgGj4S49VEajwObFZJSnMOAie+QRvwxYGKIJdNUYmtSF9l4xk4XoaJNNy73DbZcYIROAe/uWB2vAdqzoSa0WdV4Dtuy+GtgzRr541F3PszSUMhkGRTQxrSJPlA5sA9h6bw1dJ4W5N4o0xxnuXklFShCpToVs7NK1qxZ/WHZrAkV423AYvdD+zZVs1Ye1Pf2Ou3puGaKb1igBI+bHFfNdMdnjdq4197b22ux8ez4i4LXiIOAxd5UmmowMS2ENwyMYO9jIbGM6gY0DESTEkspBLWkHiE2XdZTKKybaJu+BJ4vgFXTJZi1mmmq2azoKjSJi+2JZRtCFGyYNfo/9qo7Nh6zl2kUB8GGUgeu87RNwNxkkliZAlxIQdi+lZmwBVbP4B25QkhdNaRoSPyacEeutwQLdxuVpeFyjzIL5CXLqGzGb6/GeoSKoPMLz9yRHTDSlKv7uQk8tCi9mCnHncCgYdgz8h3FdkRZVRB12+WNoppLosUIqzVWJhGtA74QFugA+6GQlQtaC0Suhlyp5rpxN6leuOCWwDue0xiZE61L6PwVa0siS+2Uxy22Q7PZ8PqsXdZib4wxA83uBx9sDlWDwC7scEgdBuYhL2aqzFQuDMSxrSgRUg85LSOIksU+3amGtM3HYYbVWWjGDLGm6DjUiMoS1eBoIPYyhwg0z2RDzudxmhRyOgiWONzLWsmnzOXZr5IO2hBcC9hOs8fx/ISR1De0oqaEOlbcUTKiMjoMISi7G6lUCEBTQlKgXDYttJTd5uJArJWfsUFL04RjcKoBzjV1+/AbNV5LVS2sMdwXuxB7Z2b324CTlb0cLNjWWA57K1xzTmiKtDTlNmjWKDwjIRmHmqJoLEgILEcOlKLMFiXAYQeKva9VUp4XY8ljdW2pUdqKmd0vrX29pqGiq7NVcL5Hk99a2IRBVqhvRJkcZ5EwqSW2RoRIZWSpIS2jbKYY9/k8QtCwQ5RaDrUnipYNVTc1O1zJgbwgxXohq4ZzGNfuV0c+6dq+6g6smBjyWTrOsUVVMNomfNTU/DwnIVmka1e9g/b+lVy2qk6EhaOgakHdA/2uOy8Qw7+793+2o63C3JZyFyHSbBcs5loId3dsWv15l0FgYtUTvDkb1XIPYLFPNM1cyTmOyeZb9/tCqONGRXZZ7xruL43hcxKSyJ5PTIO9cJq4rzxgCWXVNHvzHL/dUbHtU0sFD1nWA+VaoyENfLDnFtj7qmtGYV3PpfVJufqsb5qBvmLNNCezlntGIjcrBOJFRK2p/8F0IO++3AiMmMqguqugv+oVOJHTr2mklKsPysQ0NENVDNUw1XFh3mlK7ayltX/MiKibwA1V7c66UB67KmCV+4N252nvlK/mOqvCcKywZ26N+715J7d5X2OpGbymZPNik2rX/6ArzY+VO8CIblR9EFXhz6g8N/WNqt3d9no2mk5HszVdd8iMMqgS5DgUdRYoU6XZ7dodKna3WX2OM2o2u7t0eD33vPGvKcVSqVSp0D+iXvdSmQbRsteZAeRP/4WMN/wvbMTI5h8GiZl8E0R2lPJKP/uTRf+FgKURBN5PSj1F5JnjTwHCek+2Xo485W1EH1lQplMLqOizyM0HFAQO0Khxrxz4lEAQ6F1O/eb1jy5F0LC0eQXGpyRJCRzZrcUeivoUX0rgVRq1Fztx+s4kB7qclE/GkU5gKUpqMfqUMOGqlYkHfD7FFZTpqe4/8aZksV9x/5R4QZlhzZdfKd59+CluFFUP5G3+s3hvUBCU157M3yKfQP0/QpUwWJiMiZIAAAAASUVORK5CYII=;" parent="1" vertex="1">
          <mxGeometry x="794.11" y="2180" width="95.87" height="50.73" as="geometry" />
        </mxCell>
        <mxCell id="bameNsq92qCA9drPWQOE-27" style="edgeStyle=orthogonalEdgeStyle;rounded=0;orthogonalLoop=1;jettySize=auto;html=1;exitX=1;exitY=0.519;exitDx=0;exitDy=0;exitPerimeter=0;" parent="1" source="bameNsq92qCA9drPWQOE-22" target="bameNsq92qCA9drPWQOE-26" edge="1">
          <mxGeometry relative="1" as="geometry">
            <mxPoint x="1040" y="2302" as="sourcePoint" />
            <Array as="points" />
          </mxGeometry>
        </mxCell>
        <mxCell id="bameNsq92qCA9drPWQOE-22" value="" style="shadow=1;strokeWidth=1;rounded=1;absoluteArcSize=1;arcSize=2;strokeColor=none;" parent="1" vertex="1">
          <mxGeometry x="858.1099999999999" y="2276.7999999999997" width="139" height="47.88" as="geometry" />
        </mxCell>
        <mxCell id="bameNsq92qCA9drPWQOE-23" value="&lt;font color=&quot;#000000&quot;&gt;Cloud Storage&lt;/font&gt;" style="dashed=0;connectable=0;html=1;fillColor=#5184F3;strokeColor=none;shape=mxgraph.gcp2.hexIcon;prIcon=cloud_storage;part=1;labelPosition=right;verticalLabelPosition=middle;align=left;verticalAlign=middle;spacingLeft=5;fontColor=#999999;fontSize=12;" parent="bameNsq92qCA9drPWQOE-22" vertex="1">
          <mxGeometry y="0.5" width="44" height="39" relative="1" as="geometry">
            <mxPoint x="5" y="-19.5" as="offset" />
          </mxGeometry>
        </mxCell>
        <mxCell id="bameNsq92qCA9drPWQOE-25" style="edgeStyle=orthogonalEdgeStyle;rounded=0;orthogonalLoop=1;jettySize=auto;html=1;entryX=0.65;entryY=-0.002;entryDx=0;entryDy=0;entryPerimeter=0;" parent="1" source="bameNsq92qCA9drPWQOE-19" target="bameNsq92qCA9drPWQOE-22" edge="1">
          <mxGeometry relative="1" as="geometry">
            <Array as="points">
              <mxPoint x="949" y="2205" />
            </Array>
          </mxGeometry>
        </mxCell>
        <mxCell id="bameNsq92qCA9drPWQOE-65" value="" style="rounded=0;whiteSpace=wrap;html=1;fillColor=#f5f5f5;fontColor=#333333;strokeColor=#666666;" parent="1" vertex="1">
          <mxGeometry x="1087.89" y="2171" width="130" height="60" as="geometry" />
        </mxCell>
        <mxCell id="bameNsq92qCA9drPWQOE-26" value="" style="shape=image;verticalLabelPosition=bottom;labelBackgroundColor=default;verticalAlign=top;aspect=fixed;imageAspect=0;image=https://cdn-icons-png.flaticon.com/128/1822/1822899.png;" parent="1" vertex="1">
          <mxGeometry x="1120.0000000000002" y="2270.74" width="62" height="62" as="geometry" />
        </mxCell>
        <mxCell id="bameNsq92qCA9drPWQOE-28" value="" style="shape=image;verticalLabelPosition=bottom;labelBackgroundColor=default;verticalAlign=top;aspect=fixed;imageAspect=0;image=data:image/png,iVBORw0KGgoAAAANSUhEUgAAAgAAAAIACAYAAAD0eNT6AAAABHNCSVQICAgIfAhkiAAAAAlwSFlzAAAN1wAADdcBQiibeAAAABl0RVh0U29mdHdhcmUAd3d3Lmlua3NjYXBlLm9yZ5vuPBoAACAASURBVHic7d15uFVl/f7xe6291z7DBs4BBNSvOcUkWNmgpxxK8zRozllpk2aYAcqgMoiG4gQyqDjgUGqWlf2yHL7WN22XlZUesTRJNFAEQRBlEjjA2dP6/bEOBxDOvPd+1trP+3VdXpfF5dmfi+E8N+vZ+3M7vu8LAADYxTU9AAAAKD0CAAAAFiIAAABgIQIAAAAWIgAAAGAhAgAAABYiAAAAYCECAAAAFiIAAABgIQIAAAAWIgAAAGAhAgAAABYiAAAAYCECAAAAFiIAAABgIQIAAAAWIgAAAGAhAgAAABYiAAAAYCECAAAAFiIAAABgIQIAAAAWIgAAAGAhAgAAABYiAAAAYCECAAAAFiIAAABgIQIAAAAWIgAAAGAhAgAAABYiAAAAYCECAAAAFiIAAABgIQIAAAAWIgAAAGAhAgAAABYiAAAAYCECAAAAFiIAAABgIQIAAAAWIgAAAGAhAgAAABYiAAAAYCECAAAAFiIAAABgIQIAAAAWIgAAAGAhAgAAABYiAAAAYCECAAAAFiIAAABgIQIAAAAWIgAAAGAhAgAAABYiAAAAYCECAAAAFiIAAABgIQIAAAAWIgAAAGAhAgAAABYiAAAAYCECAAAAFiIAAABgobjpAVrTWF+XlLTvTv/s08q/9+jO6+TqT1TmuxdKnte9gQEA0ZDJyLvnNsVSv+vuV9osaWXzP6ta+feVyVRDY3dfqBgc3/dNz9Cisb5ukKTTJJ0q6VMq0ROK/MChykyYKr9vv1K8HADAEGftu/JmXS33tVdL9ZJ5Sc9IelTSI8lUw+JSvXB7jAaAxvo6R9LhCg780yQNMzWLX1OrzMVXKD/8I6ZGAAAUkfvyv+XdeK2c9zaYHGOhpEcUBIL5yVSDsUPYSABorK+rl3SGgoN/35IP0JpYTNlvjlD25DNNTwIAKKD4/z6k+AM/knI506PsbKWCIPCbZKohVeoXL2kAaKyvO0bSTEmfLNmLdkHuqOOUGXWxVFFpehQAQHc0bZM370bF/v6U6Una86ykiclUw9OlesGSBIDG+rrhkmZIOqnoL1Yg/v4HKT3xKvl7h+cBBQCg45y3Vyox8yo5b75hepTOeFzS5GSq4eViv1BRA0Bjfd1+kq6WdI4i+JFDP9lDmTGTlf94nelRAACd4P6zQd4tM+Q0bjY9SlfkJd0vaWoy1bCiWC9SlADQWF/XW9JkSWMkRfs5uuMo+5VvKfuVb0qOY3oaAEBbfF/xXz2g+K9+KoXoU25dtE3SLZJmJFMN6wv9xQseABrr674o6WeS+hT0CxuW//gnlR47WapOmh4FALAnWxqVmDtD7j+fNT1Joa2T9I1kquH3hfyiBQ0AjfV14yTNlhQr2BcNEX/vfZWeOE3+/geaHgUAsBPnzaVKzLxSztsrTY9SLDlJlyZTDTcX6gsWJAA01tclJM2T9N1uf7Gwq6hUZtQlyh11rOlJAACSYn//s7x5c6SmbaZHKYV7JI1KphrS3f1C3Q4AjfV1/ST9WtIx3R0mSrKnnKnsN8+X3Mi9txEAykM+r/gDP1T8sYdMT1JqT0v6cjLV8G53vki3AkBjfd2HJD0m6cDuDBFV+UMPU+biK+T3qjE9CgBYxdn4nrwbr5X7nxdNj2LKUkmnJFMNC7r6BbocABrr605R8Ga/bpXxRJ2/Vz9lLr1S+YFDTI8CAFZwX/uvvNnT5Kzp1l+Ay8FmBW8OfKwr/3GXAkDz4f+wIvjZ/qLwPGVGXKTc8SeYngQAylrsj/8n70e3SpmM6VHCIi/p9K6EgE4HgObH/v+Q5X/z35Pc574UVAvHQ9uyDADRlM0GFb5/+K3pScJos6QjO3sd0KkA0PyGv+dk6Z1/R+QHDVXmUqqFAaBQnLXvypt9tdzFJavwjaKlko7ozBsDOxwAmj/ql5Jl7/bvCr+mVplLfqD8sA+bHgUAIs1d+JK8OdeYrvCNiqcl1Xf0I4KducOfJw7/DnHe26DEtImKP/5r06MAQGTFH/+1EtMmcvh33DEKzuoO6dATgOYNfzd1Yyhr5Y4+TpmRl0gVFaZHAYBoaGqSd8ccxf4W+grfsBrfkY2B7QaA5t3+j6tM1/uWAtXCANAxEa3wDZucpJPa6w5oMwA0t/q9pjIr9jHBT/ZQZuxlyn/sCNOjAEAouf96Tt7c6VGt8A2bdZIGttUi2N57ACaLw78gnMbNSky/QvFfPVAOFZUAUDjNFb6J6Vdw+BdOHwVneKtafQLQWF+3n6TFkioLP5fd8p/4pNJjqBYGAG1pVOKWGXKfL7sK3zDYJmlQMtWwYk8/2NYTgKvF4V8U7vPPqmLSaDnLl5oeBQCMcZYvVcWk0Rz+xVOp4Czfoz0+AWisrxsu6SWx6re4KiqVGX2pckd+xvQkAFBSsX/8Rd7ts22p8DUpL+nDyVTDy+//gdYO+Blt/BgKpWmbvBuvVfwnd0v5vOlpAKD48nnFf3K3vBuv5fAvDVfBmb6b3Z4ANNbXHSPpryUYCjvJf+gwZcZTLQygfDkb35N307VyF1hb4WvSp5Ophqd3/j/29Lf8mSUaBjtxF7yoxMSRcl9fZHoUACg49/VFwfc4Dn9Tdjvbd3kC0FhfVy/pD6WcCO/jecqcP0a5z37R9CQAUBCxP/1e3g9vocLXvM8lUw2p7f/j/U8AzijxMHi/TEbevDny7porZbOmpwGArstm5d01V968ORz+4bDLGd/yBKCxvs6RtEIS+2pDIj/4kKBauM9epkcBgE5x1q0JKnwXvWJ6FOywUtJ+yVSDL+36BOBwcfiHirvoFSUmjpK7cIHpUQCgw9yFC4LvXRz+YbOvgrNe0q4B4NTSz4L2OBvWKzFtgmK/fdj0KADQrthvH1Zi2gQ5G1pdQQ+zWs76nQPAaQYGQUfkcvLumydv7nSpqcn0NACwu6YmeXOny7tvnpTLmZ4GrWs56x3f99VYXzdIEp8/iwD/gIODauEB+5geBQAkSc7qVUGF77IlpkdBxwxOphoWb38CwN/+I8JZtiS4W3vhOdOjAIDcF55TYuIoDv9oOU3acQXA/X+EOI2blbj+CsUfoloYgCG+r/hDDyhxPRW+EXSqJDmbjz8iKWmj2P0fSfnDPxVUC1dVmx4FgC22bgkqfOc/Y3oSdE1eUi9XwccCOPwjyp3/TFAtvGKZ6VEAWMBZsSyo8OXwjzJX0r7bAwAizFm5QhWTL1LsGTqcABRP7Jm/qmLyRXJWrjA9CrqPAFA2tm2VN+caxX/6Q6qFARRWPq/4T38ob8410ratpqdBYewbl8TnycpI/NH/J3fJYmUuvlx+T6qFAXSPs+k9eTdeJ3fBC6ZHQWHtwxOAMuQueEGJCaPkLllsehQAEeYuWRx8L+HwL0dcAZQrZ807Slw+TrGnnjA9CoAIij31hBKXj5Oz5h3To6A4uAIoa5m0vNtny138qjLnjZbicdMTAQi7bFbevbcr9uTjpidBcXEFYIPYk48rMfUSOevWmh4FQIg569YqMfUSDn87cAVgC3fRQiUmjpT7CtXCAHbnvrIg+B6xaKHpUVAa+zqbjz+CXbI2icWUOecC5U483fQkAEIi9ruH5d1/Fy1+liEAWCp3zPHKjBwvJSpMjwLAlHSTvDtuUuzpP5qeBAawAthSsaf/qIopY+SsXmV6FAAGOKtXqWLKGA5/ixEALOYs3V4tPN/0KABKyH1hflDhu5QKX5txBQDJcZQ961xlzzhbchzT0wAoFt9X/De/UPzBH1MlDgIAdsgffqTSYyZRLQyUo61blLjlBrnz/2F6EoQEVwBo4c7/B9XCQBnaUeHL4Y8dCADYBdXCQHmhwhet4QoArcqe9jVlv36e5JITgcjJ5xX/+b2KP/JL05MgpAgAaFP+wx9TZvzl8nv2Mj0KgA5yNm2Ud9N1cl/6l+lREGL81Q5tcl/6V/BRQaqFgUhwlywO/sxy+KMdBAC0y3l3dXO18JOmRwHQhthTTwYVvu+uNj0KIoArAHRK7gsnK3PeKClGtTAQGrmsvHvnKfbE/5qeBBFCAECn5QcPU+bSqfL79DU9CmA9Z91aebOvpsUPncYVADotqBYeJffV/5geBbCa++p/gj+LHP7oAp4AoOti8eZq4dNMTwJYJ/a7R5orfLOmR0FEEQDQbblPH6/M96kWBkoi3STvzpsU+ystfugergDQbbG//lGJKWPlvPO26VGAsua887YSU8Zy+KMgCAAoCHfp68Fd5IvPmx4FKEvui88Hf8aWvm56FJQJrgBQWI6j7NnfUfb0s6gWBgrB9xV/+EHFf3EfFb4oKAIAiiJ3xFHKXDSRamGgO7ZukXfrTMWe+7vpSVCGuAJAUcSe+7sqJl0oZ8WbpkcBIslZ8aYqJl3I4Y+iIQCgaJyVy1Vx2UWKNfzN9ChApMQa/qaKyy6Ss3K56VFQxrgCQElkTz9L2bO/Q7Uw0JZ8XvFf3Kf4ww+angQWIACgZPIf+bgy46ZQLQzsgbNpo7ybr5f773+aHgWW4K9jKBn33/+kWhjYg5YKXw5/lBABACXVUi38Z6qFAUmK/ZkKX5jBFQCMyX3hFGXOG0m1MOyUy8q79w7FnnjM9CSwFAEARuWHDA+qhXv3MT0KUDLO+nVBhe9/XzY9CizGFQCMcv/7shITRsp9lW+EsIP7avPveQ5/GMYTAIRDLK7Mud9X7oRTTU8CFE3s/x6V9+M7qfBFKBAAECq5z9Qrc8E4qoVRXtJN8u66WbG/pExPArTgCgChEvtLKnhH9Du8IxrlwXmn+ZMvHP4IGQIAQsd94zUlJo7kM9GIvGD3xUi5b7xmehRgN1wBILyoFkZUUeGLCCAAIPRydUcpcyHVwoiIrVvk3TZTsQZa/BBu1l8B+MkepkdAO2INf1fF5AvlvEUzGsLNeWu5KiZfyOEfAX5Nb9MjGGd9AEjPnKf8QQNNj4F28I0VYUdQjY7c0EO1fMp002MYZ30A8Afso/T1c5U7/gTTo6A9W7fImz1N8Z/fy70qwsP3Ff/5vfJmT5O2bjE9Ddqx9cTTtfTCyWrqQSspS9glyUsoM/Ji5YcOl/fDW6V0k+mJ0BrfV/w3v5D7+iJlxl8uv0dP0xPBYs7mTfJuuo5PrERBVbXWnXeh1g47zPQkoWH9E4Cd5Y77gpquv0X+3vuaHgXt4ONVMI2Pq0ZHfv+D9NaU6Rz+70MAeB//wIPVNHOecnVHmR4F7dixYOUPpkeBZWJ/+QMLqyIifczxWnrJVdrSp5/pUUKHALAn1UllJlyl7Le/J8VipqdBW9JN8m6dKe+e29ivjuLLZeXdc5u8W2dyVRh2XkIbzx2lZWd9V7m4Z3qaUOI9AG3InvIV5QcNlXfjtXLWrzM9DtoQ+79H5bzxmjKXUC2M4nDWr5M352qaKyPA77+3Vl8wXpv2/oDpUUKNJwDtyB/yIaVn3an88I+YHgXtcF99ObiT5Rs0CozfW9GR+Vidlk2+jsO/AwgAHeDX9lb6ypnKnvY1VtKGnLN+nRJXXqrY7x8zPQrKROz3jylx5aU8BQw719Xmr3xLS88bo0xFlelpIoErgI5yXWW/OUL5IcPl3TZTTuNm0xOhNbmsvB/dKve1/ypzwVjJS5ieCFGUScu7a65if37S9CRoh1/TW2vOH6sNBw02PUqk8ASgk/KHf4rtgRER+/OTSkwZyzu10WnOO6uVmDKWwz8CckOHa/mU6Rz+XUAA6AK2B0aH+8ZrSkwaxWe10WHuv/8Z/J5hx0ToBVv9LmOrXxcRALqqeXtgZvQEKVFhehq0wdm0UYlrL1P84QdNj4KQiz/8oBLXXiZn00bTo6AtVdVaN3qiVnzpK8o7HGNdxXsAuil33OeVP3igErOmyXl7pelx0BrfV/xn98h57b/KXDiBamHsausWebfNUqzhb6YnQTvy+x+kVeePY7FPARCdCsA/4GA1zbqD7YEREGv4myouu0jOShrbEHBWLlfFZRdx+EcAW/0KiwBQKFXVzdsDL2B7YMg5K95UxaQLFXuOamHbxZ77uyomXShnxZumR0FbPI+tfkVAACiw7ClnKn3VLLbRhd3WLfJmUS1sre0VvrOo8A07v//eenvytVp9+NGmRyk7BIAiYHtgRDRXCyeumyJn8ybT06BEnM2blLhuiuK/+QXhL+SyHz1Cyyax1a9YCABF0rI98PSz2B4Ycu6LzysxcZTcpa+bHgVF5i59Pfi1fvF506OgLc1b/d747lhlKtnqVywEgGJyXWW/8V2lJ10tP9nD9DRog/PO28Hil7+kTI+CIon9JdW8GOpt06OgDX5Nrd69eKpWHXsCf3kqMgJACeQ/8UmlZ92h/MGDTI+CtqSb5N16g7x7b6dauJzksvLuvV3erTdQ4RtywVa/GWz1KxECQIn4/fdW+rqblas/0fQoaEfsd48oceUEORsof4k6Z8M6Ja6coNjvHjE9Ctqx7YTT2OpXYgSAUvISynx/fLCIhu2Boea++p/grvi/1L9Glfvfl4Nfw1f/Y3oUtKV5q9/yk77KVr8S42fbgNyxn1fT9Fvk7/M/pkdBG5x1a5WYeqliT1AtHDWxJx5TYuqlctatNT0K2pDf/0C9NWW61g47zPQoViIAGOIfcLCaZs5Tro7PtoZaLivvh7fKu32WlEmbngbtyaTl3T5L3g9v5X0cIZc+5rNaesk0tvoZRAAwqapamQlXsj0wAmJPPanE5ePkvEu1cFg5765W4vJxij1FhW+oeZ42njNKy84awVY/wwgAIZA95Uylp82W36ev6VHQBnfJ4uBO+aV/mR4F7+O+9K/g12bJYtOjoA0tW/2O4MlnGBAAQiI/9FClZ96h/KHchYVZS7XwI780PQqaxR/5JRW+EcBWv/AhAISIX9tb6ak3KHvG2SzACLN8XvEHfiRv9tXStq2mp7HXtq3yZl+t+AM/kvJ509OgNWz1C6246QHwPq6r7NfPU37wMHm33iCncbPpidCK2LNPy12xTOmJV8nfl7/VlJKzcrkSM6+ixS/k/JparTl/rDYcNMT0KNgDngCEFNsDo2F7tbA7/x+mR7GGO/8fVPhGQG7IsOatfhz+YUUACLFge+BctgeG3dYtSsy8SvFf3Ee7XDH5vuK/uE+JmVdR4Rty2044TUsvmsJWv5DjCiDsPE+Z749XfuhweXffwi7zsPJ9xX/9c7lLFiszbgrlTwXmNG6Wd/P1cl+Yb3oUtKWqWuvOG621wz5qehJ0AE8AIiJ37OfVNONWtgeGnPvCfCUmjJSzdInpUcqGs3SJEhNGcviH3I6tfhz+UUEAiBB//4PYHhgBzjtvq2LKGMWe/qPpUSIv9vQfVTFlDBW+IZc+5rNaevFVbPWLGAJA1GzfHngO2wNDLd0kb+4MeffOk3I509NETy4n79558ubO4NorzHbe6uclTE+DTuI9ABGVPflM5QcNlXfjtRSehFjsdw/LeeM1ZS75gfza3qbHiQRnw3p5c66R+8oC06OgDX6/AVp9wcXatA8fgY0qngBEWH7ooUrPupPtgSHnvrJAiYkj5S5aaHqU0HMXLQx+rjj8Qy370SO0bPL1HP4RRwCIOL+mlu2BERBUC1+i2JOPmx4ltGJPPq7E1Et4ohVmrqvGM7/JVr8ywRVAOdi+PXDIMHm3sD0wtLJZeXfPlbv4VWW+N0bizjSQScu7+xbFnnrC9CRoA1v9yg9PAMpI/uNsD4yC2FNPBNXCa94xPYpxzpp3mit8OfzDjK1+5YkAUGZatgd+7kumR0Eb3CWLlZgwSu6CF0yPYoy74IXg54AK31Db9sVT2epXpggA5cjzlLlgnDIXTZQqKkxPg1Y4m95T4prJVlYLxx/5pRLXTJaz6T3To6A1VdVaN3qClp/8NeUdjopyxHsAyljuM59T/qCBSsyaJmfVW6bHwZ40Vws7ry9SZvSlUrm/sWrbVnm3z1bsmb+angRtyO9/oFaNGK8tfVnsU86IdWWuZXvgJ48xPQraEHvmr6qYfJGclStMj1I0zsoVqph8EYd/yKWPbt7qx+Ff9ggANqiqVubSqWwPDDlnxTJVTBotd/4zpkcpOHf+M6qYNFrOimWmR0FrPE8bzxmpZWez1c8WBACLZE8+U+lpc+T36Wt6FLRm6xYlZl6p+IM/Lo9qYd9X/MEfKzHzSip8Q8zvN0BvT7pWq4/gSaFNCACWyQ8dHmwP/BDbA0PL9xV/6GdKXH9FpHc6OI2blbj+CsUf+ll5hJkyxVY/exEALOTX1Cr9A7YHhp37wnNKTBwlZ1n0qoWdZUuUmDhK7gvPmR4FrWGrn/UIALZq3h6YnnyN/GQP09OgFc7qVc3Vwn8yPUqHxZ7+U1Dhu3qV6VHQCr+mVu9e/AOtPO5E/hJgMQKA5fIfrwuuBNgeGF5NTfLmTpd3X8irhXM5effNkzd3utREhW9Y5YYM0/LLprPVDwQASH7/AWwPjIDYbx9WYtoEORvWmx5lN86G9UpMm6DYbx82PQra0LLVr2eN6VEQAgQABFq2B05ie2CIuQsXBHfri14xPUoLd9ErwUwLqfANraoqrR/FVj/sit8J2EXuM/Vqmn6r/H33Mz0KWuGsW6PE1IsV+4P5auHYHx5XYurFctatMT0KWpH/wIF667IZWjP8o6ZHQcgQALAbf/+D1HTD7cp96tOmR0Frsll5d82VN2+OlMmU/vUzGXnz5si7a66UzZb+9dEh6aM/q6WXsNUPe0YAwJ5VVStzyQ+UPff7bA8Msdiffq/EFaWtFnbWvKPEFeMU+9PvS/aa6CS2+qEDCABoU/akLzdvD9zL9Chohfv6ouZq4ReL/1oLXgxe6/VFRX8tdA1b/dBRBAC0K9geeAfbA0MsqBaepPhjvyraa8Qf+5US10yiwjfE2OqHziAAoENatgd++essDgmrfF7xn9wtb8410rathfu627bKm3ON4j+5W8rnC/d1UTiOo8Yvs9UPnRM3PQAixHWVPfs7yg8eJu+WGZHeU1/OYs/8Ve6KN5WeeJX8ff6nW1/LWfWWEjOvkrN8aWGGQ8H5NbVaM2KsNhzMYh90Dk8A0GlsDww/Z/nSoFr4+We7/DXc558NKnw5/EMrN7h5qx+HP7qAAIAu2bE98CTTo6A1WxqVuGGq4g/e37k2Pt9X/MH7lbhhqrSlsXjzoVvY6ofu4goAXed5ylwwVvmhw+XdfTP738PI9xV/6AG5SxYpM/aydoufnMbN8uZOl/svWvxCq6pK679zIYt90G08AUC3BdsDb2N7YIi5/3pOiUmj26wWdpYtUWLSaA7/EGOrHwqJAICC8Pc/kO2BIee8vTKoFv7bU7v9WOxvTwUVvm+vNDAZOoKtfig0AgAKp2V74Egpxu1SKDU1ybv5esV/fEdQLZzLKf7jO+TdfD1XOGHFVj8UCd+lUXDZk85QftAQeXOupSQmpOKP/0buktckSe7ClwxPg9b4/QZo9ffGa9O++5seBWWIJwAoivyQ4UrPvlP5D3FXGVbuwpc4/EMse9jhWjbpOg5/FA0BAEXj96pReirbA4FO2b7Vb8Q4ZaqqTU+DMsYVAIrLcYLtgUOGB9sDN28yPREQWn6vGq05fxyLfVASPAFASeQ/doTSM+9Q/oODTY8ChFJu8DAtnzKDwx8lQwBAyfj9Byh97c3KfZ7tgcDO2OoHE7gCQGl5njLfG6v80EPl3XUTHz2D3aqqtP7c0Vpz6MdMTwILEQBgRO7Txyt/4AeVmH21nJXLTY8DlFz+Awdq1fnjtKVvf9OjwFJcAcCYYHvgbWwPhHXSRx/XvNWPwx/mEABgFtsDYRPP08Zvf1/Lzj6frX4wju+4CAW2B6Lc+f36a/X3LmaxD0KDJwAIDbYHolwFW/2u5/BHqBAAECot2wPP/AbbAxF9jqPGL3+DrX4IJa4AED6Oo+xZ5yo/eBjbAxFZbPVD2PEEAKGV/9gRSs9ieyCih61+iAICAELN78f2QETLti+cwlY/RAJXAAg/tgciCtjqh4ghACAycp8+XvmDPqjELLYHIlzy+x2gVd8bz2IfRApXAIgU/wNsD0S4pI8+Tksvncbhj8ghACB6mrcHZr4ziu2BMIetfog4vnsisnJfOl3+9u2Ba981PQ4swlY/lAOeACDS8oOHBR8V/DBvvEJpsNUP5YIAgMjze9Uo/YMZbA9EcbHVD2WGKwCUh+3bA4cMkzeX7YEoLL9XjdaMGKsNHxxqehSgYHgCgLKS/2jz9sCBbGBDYeQGH6IVl03n8EfZIQCg7LRsD/zCyaZHQcQFW/0u17ZetaZHAQqOKwCUp3hcmfPHKD90uLw7b5aatpmeCFHCVj9YgACAspY75njlD2R7IDqOrX6wBVcAKHst2wOP/IzpURBy6aOO1TK2+sESPAGAHaqqlbn4iuBK4P67pVzW9EQIk3hcG78+QqvrWDENexAAYJXciafLH8j2QOwQbPUbr037HmB6FKCkuAKAdVq2B37k46ZHgWHZwz7RvNWPwx/2IQDASn6vGqWvmK7smd9ke6CNHEeNZ3xdb4wYz1Y/WIsrANjLcZQ96xzlhxzC9kCLsNUPCPAEANZje6A92OoH7EAAALTz9sBTTI+CImGrH7ArrgCA7eJxZc6/qHl74E1sDywXVVVaf+4orTmUN30COyMAAO+TO+azyh94sBKzr5bzFtsDo4ytfkDruAIA9iDYHng72wMjjK1+QNt4AgC0prKK7YFRxFY/oEMIAEA7gu2BQ+XNuYbtgSHHVj+g47gCADogP/gQpWezPTDM2OoHdA4BAOggv2fz9sCvsD0wVNjqB3QJVwBAZziOsl87R/nBw+TdMkPOpo2mJ7Ka36tGa0eM0foPHmJ6FCByeAIAdEH+o4c3bw9ko5wp27f6cfgDXUMAALrI36u/0tfexPZAA7Z9/mS2+gHdxBUA0B1sDyytyiqt/w5b/YBCIAAABZA75rPKH/RBJWZNY3tgkeT3O0Crzh+nLXsNMD0KUBa4AgAK/K5f9AAADt9JREFUxN/vgGB74FHHmh6l7KSPbN7qx+EPFAxPAIBCqqxSZvzlyg8ZLu/+u9ge2F3xuDaefZ5Wf/JY05MAZYcAABRB7sTT5A8cIu/Ga+SsYXtgV/h79dfqC9jqBxQLVwBAkeQHHxJ8VJDtgZ2W/cjH9ebk6zj8gSIiAABFxPbATnIcNZ7+db1x/sVKVyVNTwOUNa4AgGJje2CH+D1rtPZ8tvoBpcITAKBE2B7YutygoVoxha1+QCkRAIASatke+EW2B2637fMna+mYK9jqB5QYVwBAqcXjyoy4SPmhh8q740Z7twdWVmn9uaO05kO8SRIwgQAAGJI7+jjlDzxYidlXy1nxpulxSiq/3/5adf54FvsABnEFABjk73eAmmbcptxRx5kepWSCrX5Xc/gDhvEEADCtskqZ8VOUHzKsvLcHstUPCBUCABASuRNPkz9oqLw5V5fd9kB/r/5a/b3x2vQ/LPYBwoIrACBE8oOGlt32wJatfhz+QKgQAICQadke+NVvRXt7IFv9gFDjCgAII8dR9qvfDrYHzp0eue2BbPUDwo8nAECI5Q/7RHAlMCg62wPZ6gdEAwEACDl/r/5KXxON7YFs9QOigysAIArCvj2QrX5A5BAAgAgJtgd+UInZ00KzPZCtfkA0cQUARIy/3/6h2R7IVj8gungCAETR9u2BQ4fLu/9OKVvi7YHxuDaedZ5Wf+rY0r4ugIIhAAARljvhVPkDh5R0eyBb/YDywBUAEHHB9sA7lT/sE0V/Lbb6AeWDAACUAb9nL6Uvv17Zr367ONsD2eoHlB2uAIBy4TjKfvVbyg8+RN7cGXI2vVeQL+v3rNHaEWO0fiCLfYBywhMAoMwUcntgy1Y/Dn+g7BAAgDLk79Uv2B54wqld/hps9QPKG1cAQLmKx5X57oXBRwXvuEnatrVj/11lldafM1JrPlz8NxUCMIcAAJS53FHHKX9Ax7YH5vfbX6tGjNeWfiz2AcodVwCABfz99lfTDbcrd3Tr2wPTR34m2OrH4Q9YgScAgC0qKpUZNyUoFPrxHTu2B7LVD7ASAQCwTO6Lp8gfOFje7Gskia1+gKUIAICF8gOHKj3rDq3buEmb4wnT4wAwgAAAWMrv2Uu9e/aSs2mzNm3p4CcEAJQN3gQIWK62Zw/1reklpxgrhAGEFgEAgKorKzSgT63isZjpUQCUCAEAgCTJi8c1oG9vVVbwngDABgQAAC1cx1G/2hr1SlabHgVAkREAAOympkdSe9XWyOV9AUDZIgAA2KOqioQG9O0tL86HhYByRAAA0Kp4LKYBfWpVXVlhehQABUYAANAmx3HUt6aXansmTY8CoIAIAAA6pGd1tfr1rpXr8m0DKAf8SQbQYZUJT3v36a2Ex/sCgKgjAADolFjMVf/etUpWVZoeBUA3EAAAdJrjOOrTq6d69+opPikIRBMBAECX9aiqVP/etYrxvgAgcvhTC6BbEp6nAX17qyLhmR4FQCcQAAB0W8wN3hfQs7rK9CgAOogAAKBgqBYGooMAAKCgqBYGooEAAKDgvHhcA/pQLQyEGQEAQFG4LtXCQJgRAAAUFdXCQDgRAAAU3Y5qYd4XAIQFAQBASQTVwr2pFgZCggAAoGRaqoV7UC0MmEYAAFByPZPV6te7hmphwCD+9AEwojKRoFoYMIgAAMAYqoUBcwgAAIzaUS3cg2phoIQIAABCoUdVFdXCQAnxJw1AaFAtDJQOAQBAqFAtDJQGAQBAKFEtDBQXAQBAaFEtDBQPAQBAqLVUCyeoFgYKiQAAIPRc11G/3lQLA4VEAAAQGUG1cC+qhYECIAAAiJSqigoN6EO1MNBdBAAAkROPB9XCVRVUCwNdRQAAEEmO42iv2l6qoVoY6BICAIBI60W1MNAl/IkBEHmViYQG9KmlWhjoBAIAgLIQj8WoFgY6gQAAoGy0VAv37CE+KAi0jQAAoOz0qK5Svz5UCwNt4U8HgLJUsb1a2KNaGNgTAgCAshVzXfXrU6seVAsDuyEAAChrjqTePXuoT01PqoWBnRAAAFghWVlJtTCwEwIAAGtQLQzsQAAAYBWqhYEAAQCAlbZXC/O+ANiKAADAWlUVFdqbamFYigAAwGpUC8NWBAAA1qNaGDYiAABAM6qFYRN+lwPATlqqheNUC6O8EQAA4H3isZj696FaGOWNAAAAe0C1MModAQAA2kC1MMoVv6MBoB1UC6McEQAAoAOoFka5IQAAQAdRLYxyQgAAgE5KVlaqP9XCiDgCAAB0QYJqYUQcAQAAuohqYUQZAQAAuolqYUQRAQAACqCqokIDqBZGhBAAAKBAPKqFESEEAAAoIKqFERUEAAAogh3VwrwvAOFEAACAIgmqhXtTLYxQIgAAQBG1VAtXUi2McCEAAECROY6jPjVUCyNcCAAAUCJUCyNM+F0IACVEtTDCggAAACVGtTDCgAAAAAa0VAv3oloYZhAAAMCgZFWl+vemWhilRwAAAMMSXlwD+tRSLYySIgAAQAi4rku1MEqKAAAAIUK1MEqFAAAAIbO9WjhOtTCKiAAAACFEtTCKjQAAACHlUi2MIiIAAEDIUS2MYiAAAEAEbK8W9qgWRoEQAAAgIuKxmAb0qVU11cIoAAIAAESI4zjqS7UwCoAAAAARRLUwuovfOQAQUdurhRNUC6MLCAAAEGEx11X/PrXqUUW1MDqHAAAAEedI6t2LamF0DgEAAMoE1cLoDAIAAJQRqoXRUQQAACgz26uFe1ItjDYQAACgTNX2SKpvDdXC2DMCAACUserK5mph3heA9yEAAECZ8+IxDehLtTB2RQAAAAtQLYz3IwAAgEWoFsZ2BAAAsAzVwpAIAABgpR3VwrwvwFYEAACwVFAt3Eu1PXuYHgUGuJI2mx4CAGBOz+oq9e9NtbBlNruSVpqeAgBgVkWCamHLrCQAAAAkNVcL96Za2BIrXUmrTE8BAAgHx6Fa2BKreAIAANjN9mrhWIz3BZQprgAAAHuW8OLau09vqoXLE1cAAIDWUS1ctrgCAAC0j2rhssMVAACgY6gWListASBvehIAQPjtqBbmfQERlpe00k2mGholPWN6GgBANATVwjVUC0fXM8lUQ+P2z3c8anQUAEDk9EpWq18t1cIR9Ki0owzoEYODAAAiqrKCauEIekRqDgDJVMNiSQuNjgMAiCSqhSNlYfOZv0sdME8BAABdQrVwZLSc9TsHAN4HAADoFqqFQ6/lrN/5V2i+2AkAAOgmqoVDa6WCs17STgEgmWrwxVMAAEAB7KgWrjQ9CnZ4tPmsl7TrEwBJ+k2JhwEAlKmgWrgn1cLhscsZv0sASKYaUpKeLek4AICyRrVwKDzbfMa32NOvxsQSDQMAsMSOamHeF2DIbmf7bgEgmWp4WtLjJRkHAGCNoFq4Vj2rqRYuscebz/ZdtPY8ZrIoCAIAFEFtT6qFSyiv4EzfzR4DQDLV8LKk+4s5EQDAXkG1cC3VwsV3f/OZvpu23pExVdK24swDALCdF49TLVxc2xSc5XvUagBIphpWSLqlGBMBACBRLVxktzSf5XvU3mcyZkhaV9h5AADYVUu1MO8LKJR1Cs7wVrUZAJKphvWSviEpV8ChAADYTWVFQgP6Ui1cADlJ32g+w1vV7laGZKrh95IuLdRUAAC0hmrhgri0+exuU4fWMiVTDTdLuqfbIwEA0A6qhbvlnuYzu12d2cs4StJuiwQAACgGqoU77WkFZ3WHdPhnNZlqSEv6sqSlnZ8JAIDOq0h4GtCHauEOWCrpy81ndYd0KlYlUw3vSjpF0ubOzQUAQNfEYlQLt2OzpFOaz+gO6/RzlWSqYYGCTwawKhgAUBJUC7cqr+Ad/ws6+x926WIlmWp4TNLp4kkAAKCEqBbexWZJpzefyZ3W5Z/B5hc8UrwnAABQQturhSvsrhZeKunIrh7+UjcCgNRyHXCE+HQAAKCEXDd4X0DP6irTo5jwtKQjuvLYf2fdfobS/KaDerEnAABQYrU9e9hWLXyPpPrOvuFvTwqyb7H5YwcjGuvr/iNptiT6HQEAJVFdWSEvHtOaDRuVzZXt5vqcgg1/HVry0xEFfRdF82AniQIhAEAJlXm18DpJJxXy8JcKHACklu6AgZJmKugiBgCg6MqwWnibgrN0YEd2+3dWUT5HkUw1rE+mGiZJGiTpPrEzAABQIr2S1dor2tXCeQVn56BkqmFSe61+XVXUD1ImUw0rkqmG8yR9WNLjxXwtAAC2q4putfDjkj6cTDWcl0w1rCjmC5Vkk0Iy1fByMtVwsqRPS3q2FK8JALBbxKqFn5X06WSq4eRkquHlUrxgSaNRMtXwtKRPNdbX1Us6Q9KpkvYt5QwAAHtsrxZOeFu1YVPolteulPSopN8kUw2pUr+44/t+qV+zRWN9nSPpcAVB4DRJw0o9w7aH/lDqlwQAGNCUzmjtexuVywdvSxs0+usmxlgo6REFB//8ZKrB2CFsNAC8X2N93SAFQeBUSZ9SCa4oCAAAYI9cLq81772ndCZbqgCQl/SMggP/kWSqYXEpXrQjQhUAdtZYX5dUcD2w/Z99Wvn3Ht15HQIAANjF932t37RZ+553Rne/1GYFj/FXSlrVyr+vTKYaGrv7QsUQ2gAAAACKhz5FAAAsRAAAAMBCBAAAACxEAAAAwEIEAAAALEQAAADAQgQAAAAsRAAAAMBCBAAAACxEAAAAwEIEAAAALEQAAADAQgQAAAAsRAAAAMBCBAAAACxEAAAAwEIEAAAALEQAAADAQgQAAAAsRAAAAMBCBAAAACxEAAAAwEIEAAAALEQAAADAQgQAAAAsRAAAAMBCBAAAACxEAAAAwEIEAAAALEQAAADAQgQAAAAsRAAAAMBCBAAAACxEAAAAwEIEAAAALEQAAADAQgQAAAAsRAAAAMBCBAAAACxEAAAAwEIEAAAALEQAAADAQgQAAAAsRAAAAMBCBAAAACxEAAAAwEIEAAAALEQAAADAQgQAAAAsRAAAAMBCBAAAACxEAAAAwEIEAAAALEQAAADAQgQAAAAsRAAAAMBCBAAAACxEAAAAwEIEAAAALEQAAADAQgQAAAAsRAAAAMBCBAAAACz0/wHS2Jkgu1+gPwAAAABJRU5ErkJggg==;" parent="1" vertex="1">
          <mxGeometry x="1300.0000000000002" y="2278" width="55" height="55" as="geometry" />
        </mxCell>
        <mxCell id="bameNsq92qCA9drPWQOE-32" style="edgeStyle=orthogonalEdgeStyle;rounded=0;orthogonalLoop=1;jettySize=auto;html=1;entryX=0.75;entryY=0;entryDx=0;entryDy=0;" parent="1" source="bameNsq92qCA9drPWQOE-35" target="bameNsq92qCA9drPWQOE-22" edge="1">
          <mxGeometry relative="1" as="geometry">
            <Array as="points">
              <mxPoint x="962" y="2190" />
            </Array>
          </mxGeometry>
        </mxCell>
        <mxCell id="bameNsq92qCA9drPWQOE-29" value="" style="shape=image;verticalLabelPosition=bottom;labelBackgroundColor=default;verticalAlign=top;aspect=fixed;imageAspect=0;image=data:image/png,iVBORw0KGgoAAAANSUhEUgAAAgAAAAIACAYAAAD0eNT6AAAABHNCSVQICAgIfAhkiAAAAAlwSFlzAAAOxAAADsQBlSsOGwAAABl0RVh0U29mdHdhcmUAd3d3Lmlua3NjYXBlLm9yZ5vuPBoAACAASURBVHic7N15YB1V3T7w58zMTe69aZqta5au6ULZZJFFkLWFomWHyg5d0kiBviyvvOpPpeCr8iICooBtWhERlYLsFRAV0JbSlb0FWig0S9vsN3ty78z5/VGC3dIkNzP3zPJ8/tImd+ahSed856wCRORui9aFYAwbGjK1YVLXhknTyobQsqWUOZpAtoTIBmQWBDIgEQWQASANQBYEDEhk7XlBMQiQob3+LA7Ilr3u3AjABBAD0AWgFQJtkGgFRKOQVqOliUYhRSOE1SCkaBSarI7DqkF5UTUWioQzfyFEZAehOgBRoP12+9CQZRVaFoqkhlEaUCglCgFRIKQcJgWGAhiqOmaSaiRQLSBqAKtCCFFpARUC+FyzZHlcahUoza9VHZIoqFgAEDlpmdQR2znKgFlsSTleE1qxlHK8FLJYQIwHEFEdUbF2CbFFSPmJALZYmtyiWeKThKltwc4R27BQWKoDEvkVCwAiuyzdlm+Y+hQL4mAhrCmAOBjAV7CrS576r0tIbJFCfCAgN0ohP9AtfWNX9ogPMVOYqsMReR0LAKL+WrQulCYKJprCPEpAHCWBowAcASCqOlowiLiQcrOEXC+hrdck1ieADSjNb1OdjMhLWAAQHcgyqac1VEwxdf1YSHmchDhGQB4EwFAdjfaQkMBGAawB8KYu9NVdFcM3cgiBqGcsAIh294e6wXp724kC4gQpteMh5NEAMlXHoiRINEFgrYB4U0qx0tSNFZgztFl1LCK3YAFAwba0JtMwu46FhqlS4kRAHLPvEjnyCVNIfCSFXAGBv5um9ipXIVCQsQCgYLmnPGJkaicCmGYB0wRwOPjvIKgsCbyjSbwC4JVEqGsFZo3tUB2KKFX44CPfCy2tONyU4kwhMQ3AiQDCqjORK7VD4t9SwyuGab3cVVr0nupARE5iAUD+8/DWsBFPOxECZ0vgPACjVEciT/ockC9DiBdMvesV9g6Q37AAIH94pCJPj4tzIXEOgKng2nuyVyuAv0HK50xNPoe5RfWqAxENFAsA8q5FVUN0zfoGIC4GxJmcvEcpYgJ4U0rxhCW7lqF0zHbVgYiSwQKAvKVs53BNJmYKDTMh8TUAmupIFGgmgJUSWGbp2jLMHlmjOhBRX7EAIPe7pzyiDxYzIMVVfNMnFzMBvAmI35ta6E/cc4DcjgUAudNCaej5ldMhxJUAzgYPzSFvaYPAc4D8gzm44CWeXUBuxAKA3GVp5STDwqUSmAXO3idfENsF5BMarKVdJUXvqk5D1I0FAKm3tCZTN+OXQMhZAI5XHYfIQSsBPGx2hR7HdcNaVIehYGMBQOosqpps6PIaKTEPQI7qOEQp1AzIP2kaHozPKXxHdRgKJhYAlFrLPkjTm7LOhRTzsGu9PlHQrQfEYrPZfBQ3F7WrDkPBwQKAUmPptnzDMuZLyHkAhqqOQ+RC1UKIxQmz60HuLUCpwAKAHBVaVHWkpVmlgLgK3IOfqC+6APGs0Kx7E3MKV6kOQ/7FAoDst1BqekHlBYC4CcDXVMch8iyBFZDiXrNy5DNYKCzVcchfWACQfZZ9kKbHsi4REN+TwGTVcYj8Q34qpXa/FepcxEOJyC4sAGjgltZkamZ8thDyOwAKVMch8rGdAvhNwui6D7PGNqoOQ97GAoCSt6Q814B+k5S4AZBZquMQBUijkLg/kUjch/mjG1SHIW9iAUD990hFntElbpDAfwHIVh2HKMBahMADCVh38Yhi6i8WANR3i6qGGJq8XkLcyDd+IldpEcBvEzB+ipLhO1WHIW9gAUC9e6B6kBaKXyeE+B4bfiJX29UjYHb8DKXjY6rDkLuxAKCeLfsgTY/lXAPIOwAMVx2HiPqsTkr83Ap1/ZKrBqgnLABoXwuloedvnwUhfwSgUHUcIkraNgjcbg7Of4RHEtPeWADQHozFlVMtIe4RkIeqzkJE9hDAh1JqN5vzRr6oOgu5BwsA2uW326fopvw5IL+hOgoROeYF0zJvROmoT1QHIfVYAATdQ+UFekj7X0hcBUBTHYeIHNcpJH6ZiIZ/givymlSHIXVYAATVonUhTeTPF0L+GECm6jhElHJ1UoofW9kjf835AcHEAiCAjCUVp8MS90uBKaqzEJFaEnhLE+LGxNz8f6nOQqnFAiBIFm0br2vGzwB5seooROQ6L5jQF6BkxFbVQSg1WAAEwaJ1IU3L/46A/CGAsOo4RORa7VJgoVWRfw8WioTqMOQsFgA+F1pc8RVLiCUAjlKdhYi8QQLv6lKbG583cq3qLOQcFgB+dU95xBis3SYl/huArjoOEXlOQgAPJtL17+OqEa2qw5D9WAD4kLGk6iRIWSaBiaqzEJHXyU+FFKWJeQV/V52E7MUCwE8e3pqtJ0L/B4gS8GdLRLYST5hp1rW4urBOdRKyBxsJn9CXVJ4NiYcAFKjOQkS+tROQt5olhb9XHYQGjgWA1z1UXqAb2m8AzFAdhYgC41nTil+L0jHbVQeh5LEA8DB9cdX5ELIMQJ7qLEQUOI2QuNacV/Bn1UEoOSwAvOie8oiRqd0pgQWqoxBRwEn5qBlPm4/rhrWojkL9wwLAY0JLq46WlnyMM/yJyEW2Ck1enphTuEp1EOo7FgBeIaXQyrYvEELeBSBNdRwior0kBPCTRFb+j3m4kDewAPCCRVWjdM36PSBOVh2FiKgXq0zol/NMAffj+e8up5dVXKRr8i02/kTkEcfrsN7SF1ddrjoIHRh7ANzqD3WD9bb2X0OIK1VHISJKisDvzM7QDZwg6E4sANxoaeUkw8RTUmCK6ihERAMhgI81qV3QNW/kB6qz0J44BOAy+uLKc3RLrGbjT0R+IIGJprBW6WUVF6nOQntiD4BbLJO60VT1EylxK/hzISL/kQL4VaIy/xYsFAnVYYgNjTssqhqia/KPAKapjkJE5Cz5uonQt1AyfKfqJEHHAkCx0KKqIy1d/gUSY1RnISJKkQrNsi6KlxatVh0kyDgHQCG9rOIqS5Mr2PgTUcAUWpr2ur64qkR1kCBjD4AK929O16PRX0GCv/xEFGxSPmq2yFLcXNSuOkrQsABItaXb8nVLewYQX1UdhYjIFYRYberGeZg1bIfqKEHCAiCF0pbsOMSU5nIAo1RnISJymUpNyhnxeYVvqw4SFJwDkCLG4sqpprRWgI0/EdH+FFhC/EtfvP0s1UGCggVACuhllbOkEH8FZJbqLERELpYJYT2nLakoVR0kCFgAOElKYZRVLgTwW0CGVMchIvIAQ0jxG6Os8peQksPUDuJfrlPu35yuR6JLAfBELCKipIgnTKPzKswa26E6iR+xAHDCkvJcXYqneIQvEdGAvWFa4lyU5teqDuI3LADs9tud4wwzsVwCk1VHISLyiS2maX0D3y7arDqIn7AAsFFoSfkxltReADBUdRYiIp/ZqUF8M16Sv151EL/gJECbGGXlp1iW9grY+BMROWG4BfmasbTiVNVB/IIFgA30JZVnS2gvQmCw6ixERD42SFriBWNp1Rmqg/gBC4AB0suqroDEUwDCqrMQEQVAVFryeX1x1fmqg3gdC4AB0JZU3ATI3wMwVGchIgqQNAg8rpdVfkt1EC9jAZAkrazyO0KKe8CJlERECsgQgMf0sso5qpN4FQuAJGiLK/9HAHepzkFEFHA6gDKtrOpG1UG8iAVAPxlllQuFwJ2qcxAREQBACMh7tbLK21QH8Rp2X/eDsaTqx1LKH6jOQURE+xIC/5eYW/Bd1Tm8gj0AfWSUVfyEjT8RkXtJif8xyqruUJ3DK9gD0Ad88yci8g4J8T2rJJ9Dtb1gAdALbUnlj4TE7apzEBFR30kpb7HmFd6jOoebsQA4AK2s4hYBcbfqHERE1G8SUpSa8/LLVAdxKxYAPdDKqm4UkPeqzkFEREkzAVxulhQ8rjqIG7EA2A99SdWVkPIR8O+HiMjjRBxCXmjOLXhedRK3YQO3F72s8lwAT4Lb+xIR+UUXpHaeOW/ki6qDuAkLgN0YZRWnSYjl4ME+RER+0yaEOCsxN/9fqoO4BQuAL4SWlB9jSe0fAAapzkJERE4QMQ04PV6Sv151EjdgAQAAZTvG6jDfBDBMdRQiInJUrSms4zG3aIvqIKpxJ8Al5bkGzBfBxp+IKAiGGFJ7Hg9+nqM6iGrBLgCWfZCmS+0JCUxSHYWIiFJDApP1kPEM7t+crjqLSsEtAKQUemPWEgCnqY5CREQpd5Iejf4OUgZ2KDywBYCxpPJ/IcSVqnMQEZEiEpcYS6oCe4xwICsffUnlbEgsVZ2DiIiUkxByljm38BHVQVItcAWAUVZ+ioT2MoA01VmIiMgNRFxI+Y3EvIK/q06SSsEqAH67fYpuWisBZKuOQkRELiLRpEvrxK7SovdUR0mV4BQAiz4bqWuhNwGMUh2FiIhcSOAzUw8dj1nDdqiOkgrBmAT48NawrhnPgo0/ERH1RGKMnog/HZTlgYEoAPRE2q8B8VXVOYiIyPWO08ORX6oOkQq+HwLQy6rmAXKR6hxEROQpc82SAl+vFvN1AfDFAT//AhCI7hwiIrJNh6aJr8fn5K9THcQp/i0AHqnI0+NiHSTGqI5CRESetM20xFEoza9VHcQJ/pwDsEzqeqf4Ixt/IiIagFG6Jv+MZVJXHcQJviwAjMaqOyFwhuocRETkeacbsco7VIdwgu+GAPQlVedByqfgw/82IiJSQgJypllS+KTqIHbyVyO5tHKSbmINBAarjkJERL7SbOracZg9cqPqIHbxzxDAH+oGGxaeZeNPREQOyDQS1hN4oHqQ6iB28U0BoLe1/1oCk1TnICIif5ICU/S0+H2qc9jFF0MAelnFRYB4QnUOIiIKhEvMkoLHVYcYKO8XAGUVhTrEOwByVUchIqJAaDQtcThK87epDjIQ3h4CWCg1XWq/Bxt/IiJKnWxdk496fX8ATxcAWkHl9yDkqapzEBFR4JykNVXdojrEQHh2CCBUVnWUBfkGgDTVWYiIKIhEXBPmifG5RWtUJ0mGN3sAfr8jQ0I+Bjb+RESkjAxZUnvMq0sDPVkA6J3mL7nkj4iIXKBYT0v8XHWIZHhuCEBfXHU+hHxKdQ4iIqLdnGeWFDyrOkR/eKsAeKi8QDe0dwDkqY5CRES0m1rTih+G0jHbVQfpK08NAeiG9gDY+BMRkfsM0UVameoQ/eGZAkBfXHkJgHNV5yAiItovIb+pL6m6THWMvvLGEMCS8lxdahsBDFcdhYiI6ADqTBgHo2T4TtVBeuOJHgBd6veAjT8REblfno7EItUh+sL1PQDG0opTpSX+AQ9kJSIi2kVebJYUPqk6xYG4u1FdVBXVNbwLyPGqoxAREfXDTjOeOAjzRzeoDtITVw8BGDp+zMafiIg8aLgeCv1UdYgDcW0PQGjx9q9awloFwNOnLRERUWBZQuLriXkFb6gOsj/u7AFYKA1TWIvAxp+IiLxLs4RchEXrQqqD7I8rCwCtYPutAjhCdQ4iIqKBEBCHaGLkzapz7I/7hgAWbRuva/r7AMKqoxAREdmgzRRiCubmf646yO5c1wOga/q9YONPRET+EdUl7lYdYm+u6gEwlladIS35suocREREdhNSTE/My3dNG+eeHoBlH6TBkverjkFEROQIIe9104RA1xQAWlPOLRKYpDoHERGREyRwkCZG3KA6Rzd3DAE8VF6gG9qHAAapjkJEROQYiSZTGBPdcFiQK3oAdEP/Cdj4ExGR3wkM1hG/Q3UMwAU9AKGlFYdbltgAlxQjREREDjN1yzqiq7ToPZUhlDe6liXudkMOIiKiFNFNTbtPdQilDa++uGIGgKkqMxARESlwmrG46kyVAdQVAAulIYS4S9n9iYiIFLKEdTeWSWVn3igrAPSC7bMlcJCq+xMREakkIA7RGyuvVHd/FR7eGtYTaR8DKFJyfyIiInf43Gxvm4QFEzpTfWMlPQCamXY92PgTERGN1iIZpSpunPoegKU1mbrVtQXAsJTfm4iIyH1qTC1tPOYMbU7lTVPeA2DI+K1g409ERNRtqGZ2/leqb5raHoBFVUN0TX4KIDOl9yUiInI1ETPj8bGYP7ohVXdMaQ+Aocv/Bht/IiKivcgswzBuTOUdU9cD8EhFnt4ltoIFABER0b4kmsxEYkyqegFS1gNgdOIWsPEnIiLaP4HBRshI2VyA1PQALCnP1aX2GVgAEBERHUDq5gKkpAfAkPrNYONPRETUC5mlhYwFqbiT8z0Af6gbrLd3fA4g2/F7EREReV+D2RUaheuGtTh5E8d7ALT2zvlg409ERNRXOVooPsvpmzjbA3D/5nQ9krEVkCMdvQ8REZG/bDUr8ydioUg4dQNHewC0aOQaNv5ERET9NlYvrDzfyRs4VwAsk7oGcYtj1yciIvIzie84eXnHCgA9Vnm+lJjg1PWJiIj8TXzVWFR1olNXd3AIQNzs3LWJiIj8TwrpWE+6I5MAQ2VVR1mQ65y4NhERUYBIE+JglORvsvvCjvQAWJB8+yciIho4oQOObAxkfw/A0m35uqVvBZBm+7WJiALu8LwQTh2ZjsPzDEzIMpCdpiGkAY1dEp81J7CuJo7nt3Xgw0bHVo9R6nWYMMagZPhOOy9q2HkxADAs7TrJxp+IyDYTswxcMzGKb42PYPQgvcfvO2pICBeOjeBnxwzGih1d+O6aJrxZ3ZXCpOSQsIbEty3gdjsvam8PwP2b0/VItBzAUFuvS0QUMBmGwEXjIpg9MYoTRiT3TiUB3PdeC767pgmmtDcfpVy12d42CgsmdNp1QVt7APRIxsWAZONPRJSkY4elYfakKGaOiyAzNLB3NAHgpkMHYWymgW/9o55FgLcN0yPRC0zgT3Zd0OYhAHmtvdcjIvK/YRENlxdHMWtSFFOybR+ZxXljwrjr2Czc8mbM9mtTSn0bNhYAtg0BpJWVH2ZCe8eu6xER+ZkmgFPz01EyOYpzRoeRpjl7NIsEMG15HV7bblsPMimgC/3Qrrkj3rfjWraVmib0a3f9ihERUU+KBxu4emIUV02IoCCj5wl9dhMA7j5uMI5+uiZl9yT7WdIsAfBfdlzLnpLzgepBeiheCYHBtlyPiMhHwrrAjFFhlEyO4rSCdIePYT2wU1+oxb93cGWAd4mYma4V4KoRrQO9ki09AHoocSkbfyKiPR09NIRZE6O4ZHwEWWmOHr7aZ1dPjLIA8DSZpXckLjaB3w30SvYMAQg525brEBF5XHaahovHhVF6UAa+khdSHWcf0wrSVUeggRJiFmwoAAbeE7W0cpJuYZMt1yIi8iBN7GpYZ02K4uxRYaTr7n4cFj++E581m6pjUPKkKayJmFu0ZSAXGXAPgGFhjmTjT0QBVJih47LiCEomZ2BsZuom9A3U+MEGCwBvE4bUr0kAPxjIRQZWACyUhsT2Kzj7n4iCIqwLnD8mjFmTojhlZDocXr3nCC8VK7R/EvIaLJO3YaZIupIbUAGgF1adBYmRA7kGEZEXTMkxcEVxFLMnRTEk7I4JfcnKDHk7PwEACozG7VMTwMvJXmBgPQBSXMm3fyLyq6w0DTPHhTFvcgaOGOK+CX3JYvvvD1LIK6GkAFhakwmra0bSnycicqHuHfpmT4zi3DFhhF0+oS8Z/vsvCqzz8ED1IFw3rCWZDyddAOiy8wJARJL9PBGRmxRk6Li8OIK5kzMwzudj5LUdluoIZI8MPS1+drIHBCXfA2CJy1hGEpGXpesC0wrSccWECM4bHYERkK7xGhYAfnIpkiwAkmvCH9oxTDfMSth+miARkfMOyw1h1qQoLi+OIDc9IK3+bo57tgbrauKqY5AtRNxMs0bi6sK6/n4yqQZcM6xLkv0sEZEK3RP6rpwQxdeGp6mOo4wE8FFjQnUMso0MaZ242AJ+099PJtWIC8iZyXyOiCjVjhwSQsnkDFxWHEGGwXHLz5pNNMe5estPhBAXIyUFwMPVI5CIH9/vzxERpUhhho6rJ0Zx9cSo7yf09dfGBnb9+9DJeGjHMFw7oro/H+p3AaDF4xdAIHiDZkTkammawBmFwZvQ11/ra1kA+JCuh6xzTGBJfz7U7wJACFzY388QETllcraBqyZEcc3EKIZF2Or3Zk0NjwL2JSkvRD8LgP4NiD1Skad3iR3gBEAiUmhwSODcMRFcURzB6Tzets8kgJF/2MF9AHxJxM14fDjmj27o6yf61ZDrXeKc/n6GiMgu3RP6Lh0fwaAQJ/T11ydNCTb+viVDelpohgk82tdP9K8xFziPW/8TUSqNjOq4eFwYcyZl4OAcvn8MxFqu/fc3iXPgSAFw/+Z0SJyWTCYiov7QBXBKfjpKJkdx7ugwQl48c9eF1nL83+fkdNy/OR0LJnT25bv7XADokfDpAAYlnYuIqBeTsowvl+8N54Q+262pZg+Azw0ywtGvJ4C/9+Wb+9Gfps/g0b9EZLeIIfDNojBKJkdxWkE6jxhxSNySeKeeBYDvCflN2F8AyG8kGYeIaB/dE/ouGR9BJif0Oe69+gTaE3yJ8zsJnAPgpr58b58KgLSy8sNMYPSAUhFR4I2IaJg5PoJZE6M4NDekOk6grK7m+H8wiHFYVDUZpfkf9vadfSoAEkKbLlg4ElESNAGcygl9yq3jDoCBoWmYbgH2FABCYtrAIxFRkEzMMnDJ+AiumRjFqEHcj1+1NewBCAwBTANwXx++rxcPbw3ribR6ABEbchGRj4V1gRmjOKHPbZrjEnm/3w6LPblB0Wq2t+X1thyw1x4Aw0o/SUKy8SeiHh05JIQrJ0RxeXEEuelcvuc2a2u62PgHS4YRCR+fAF470Df1PgRgymks44lobznpGi4aG8a1UzJwGCf0udoa7gAYQGIaBloAWMA0tv9EBOw5oe+c0WGkcUKfJ6zl+H/gyF3zAP7fgb7nwP96l5Tn6lKrAcA+PaIAK8rQcWlxBPMmZ2BMJif0ec2oP+5EVZupOgallmUaXXmYNbaxp284YA+ADv0kQLLxJwogTujzh4pWk41/MGm6GTrBBJb39A0HLACEhZMk/9UTBcqUHANXFEcxZ3IUeZzQ53nc/z+4hCVOQrIFgCXkyWz/ifwvL13D5RMimD0xikM4oW8PXZbEjjYLmSGBHA8WROtqOf4fVFITJx/o6z2373+oG6y3d9QD4IAfkQ9pAphakI5ZE3dN6EvXWe53+ziWwJ8/acdTn3Xgg/r4l8egFQ82sOSkbJw4Ik1pvv6YurwOr23v0+mw5D8JU0vLxZyhzfv7Yo89AHp724mAxsafyGfGZuq4amIU10yMoiiD/8R3V9VmYuH6ZjzycRvM/ayb39KUwHdWN2HVuUNSHy4JlgTWswcgyAzD6jouAbyy3y/29CkhxYkc/yfyh7AucP6YMGZNiuKUkeng6r09xS2Je95rxU/fakZrLyfmFWR4Zxjgw8YEmuPcASjYxNfR3wJAQjsO4C8OkZcdMSSEWROjuHR8xJPj16mwuroLpStieL++98lyEUNg4ZGZKUhljzU1fPsPOinlsT19bf8FwEKpAVVHOZaIiByTk67hsvERzJoUxVfyOKGvJ01xiR+sbcJvNrX2aZvcsC7wxOm5npokuZY7AJIQx2Kh1LBQWHt/ab8FQFpBxSEmtMHOJyMiO2gCOH54Gq4o3rUff9RgH/+BLN/WgetXxlDe2rf18dlpGp4+Ixdf99DkP2BX7wYFnczCqB2TAWzc+yv7LQBMqR8Lwe5/IrcryNBxeXEEcydnYBx36OtVVZuJm1Y14S9b2/v8mZFRHS+cmYvDPdab0p6Q+KAhoToGuYBuWceZfS0AIHoeMyAitdI0gTMK03HFhAjOGx2BwaH9XlkSWPpRG25dHevXpLjxgw38dXouxg/u/dw0t9lQG0ecRwASAOyaB/Dbvf94v7/VEuIYwQmARK5yULaBKydEMWtSFEPDbPX76r36OEpXxLCmn93hRw8N4fkz8zz7d80JgNRNSrHfl/p9C4CHt4ZFQh7keCIi6tXgkMC3xkdw5YQovjbcW+PPqrUnJH7+bgvufLsFXf18Ez69IB1PTs1FZsi7cyk4AZC6CSGm4OGtYcwa27H7n+9TAIRM4zCrD8cEE5FzjhwSQsnkDFxWHEEGJ/T120vlnbj+jUZ81tz/Q3CuKI6g7KRshDy+WcJa9gDQl2Qo1JU+JQ5s2P1P92noTYgjvP1rT+RN+VEdV0yIYPakKIo9OObsBjvbLXx3TRMe3dyW1OcXHJKBu4/N8vxGSTUdFrYmUfyQf1maPAK9FQDCwhE895MoNTihzx4SwGNb2nHLqhjqOvdZ7twrAeBnxwzGfx82yPZsKvDtn/bjiL3/YN/XDIEjUxKFKMAmZxu4asKu/fiHRdjqD8TmWALzV8bwalVyB96kaQJLT87GpeMjNidTZy2PAKZ99VIALJM6YlWHpCwOUYAMDgmcOyaCK4ojOL0gXXUcz4tbEve+14rbNzSjc38n9/RBhiGwbGouziz018+DKwBoPw7be0fAPQuAxsrxEMI/ZTCRC3RP6Lt0fASDPDyr3E1W7OjCtSsasakx+Y1u8tI1PHdmLo4d5q/VFRLAOq4AoH0NQsHO0QC2dv/BHgWADu1gHgBENHAjozouHhfGnEkZODiHE/rs0tBp4ftrm7Dkw7YBPanGZupYPj0PE7P897PZEkskNQ+C/E+XiYPNngoAKawpgjMAiZKiC+CU/HSUTI7i3NFhzy8jc5snt7ZjwRsxVLcPrHE7JDeE5WfmoiDDn1snc/0/9URqYgqAF7r//x4FgICYkvJERB43KcvA1ROjuHpiFMM5oc92nzabuH5lI/5Wkdwkv92dMjIdf5mWg6w0//6cuAKAeiLknm38nj0AwBS+sxD1LmIIfLMojJLJUZxWkM5+MwckLOChTa34wdomtCYGPjR53pgw/nBqDsK6v39aa9gDQD2yeigAFkpNoGpSyvMQeUj3hL5Lxkc8vU2s271VG0fpikZsqLWnMbtuSgbuE8CNfgAAIABJREFUPd77G/z0Jm5JvFvPAoB6Ig6ClAJi13G//ykAds0O5AoAor3kpmu4cGwY86dk4NBcbx0J6zWxLgu3b2jGAx+0IsmVfXsQAH54ZCZ+dGTmwC/mAe/WJ9BuQ28J+dYgLKksAFAB7FYAGDCL+WtDtIsmgFM5oS+llm/rwPUrYyhvtWcLW10AD5yQjbmTo7ZczwtW9/PEQwoeA7I4sXcBYEEWcwUABd2ELAOXjo/gmolRjBrkz1niblPVZuKmVU34y9Z2264ZNQT+dFoOvjkqbNs1vYArAKg3UujFAF4DdisANGjjJfcAoAAK6wIzRnFCX6pZElj6URtuXR1Dc9y+Z09OuoZnpuXihBH+2uCnL7gCgHojpBzf/b+/LAAkZLGaOERqHDkkhCsnRHF5cQS56f5dFuZG79XHUboihjU2d1nnR3X8dXouDgngXI1Yl4WPY8nvjEjBICG+bOt3KwBQzDcf8rucdA0XjQ3j2wdl4PC84DUSqrUnJH7+bgvufLsFXZa9PY5Tsg0sPysPRT7d4Kc362risPmvlHxo95f9XQWAlEIsqRqrLBGRg3af0HfO6DDSOKFPiZfKO3H9G434zIFz6o8dloZnz8jFkHBwe3JWs/uf+kAAew0BPLxjCIDgTJWlQCjK0HFpcQTzJmdgTGYw3wrdYGe7he+uacKjm9scuf7Zo8P446k5iBjBLux4ABD1USYe/DwH80c3GAAQissiK7iFM/kIJ/S5hwTw2JZ23LIq5tjhNFdPjGLRidkw+PxiAUB9lhbSirqAXQWApcki1YGIBmJKjoEriqOYMzmKPE7oU25zLIH5K2N4tWrg+/f35NbDB+GnXx3s2PW9ZFuLiao2+4dWyJ9MIYoAvGsAgBQoEpw8Qh6Tnabh4nFhlB6Uga9wQp8rxC2Je99rxe0bmtFpx1Z++6EL4Jdfy8K3D8pw5PpexOV/1B9SYhTwxRwAzUKRZF8peUD3hL4rJ0RxwZgwogEf93WTFTu6cO2KRmxqdG4pWrou8LuTs3HxOO5avjtuAET9oUkUWfiiAJAChYrzEB1QYYaOy4ojKJmcgbGc0OcqDZ0Wvr+2CUs+bHN0K7FBIYEnp+ZiakG6g3fxpjXsAaB+kAJFwJf7AIh8cBdAcpl0XeDsUWFcOSGC6UVh+PwUV096cms7FrwRQ3W7M5P8uo2IaFg+PY97N+yHJXednkjUd2Ik8EUBICCHs/knt+ie0Dd7UjTQ67rd7NNmE9evbMTfKpyb5Ndt/GADy6fnoniw0fs3B9DGhritWymT/0nI4UD3EAAwXG0cCrqsNA0zx4Vx5YQovjY8eHu4e0XCAh7a1IofrG1CawqOnT16aAjPn5mHoSwEe7Sa4//UTwJiGAAYWLQuBCBHcR4KIE0Axw9PwxXFu/bj54Q+d3urNo7SFY3YkKLu5tML0vHk1Fxkhvh7cSDrOP5P/TcEC6VhwBo+DBr3S6HUKcjQcXlxBHMmRTGe3bquF+uycPuGZjzwQSscWtm3j8uLI1hyUjZC3La5V6ur2QNA/aahoDrPCIW0YTxAgpyWpgmcUZiOKyZEcN7oCHdu84jl2zpw/coYyltTt8nMgkMycPexWWDb37u2hMTGRhYA1H9p6BpuSCGGQrICIGcclG3gyglRzJoU5Tiuh1S1mbhxVQxPbe1I2T0FgJ8eMxjfOWxQyu7pdRtq40g4uwCDfMoSYqghLcnxf7LV4JDAt8ZHOKHPgywJLP2oDbeujqV0ZrmhAQ+dmI1ZE3kmWX9w/T8lS1patiGFzBbcBpBscOSQEEomZ+Cy4ggyOKHPc96tj+PbK2JYU53aRiXDEHj89FxML+IGP/3FHQApaRpyDEgth5sAUbLyozqumBDB7ElRrtP2qPaExM/fbcHP3m5BPMUTgvLSNTx7Zi6OG8aeomTwDABKloTMNjTILDb/1B+6AE7JT0fJ5Cgn9Hnci+UduOGNGD5rTv1JcmMydfx1eh4mZrFwTEZ1u6Xk50b+oEFkGRIimz0A1BeTsw1cNSGKayZGMSzCVt/LdrZb+O6aJjy6uU3J/Q/OMfDX6XkoyOC5Dsni+D8NhJQyxwBkluog5F6DQwLnjongiuIITitI54YRHicBPLalHbesiqGuU8308ZNHpuOpaTnISmMRORDrOP5PA5NtAOCaG9pH94S+S8dHMIg7sfnC5lgC81fG8GqV8/v39+S8MWH84dQchHmy04CtTvFkTfIZiQwDANfdEIBdJ67NHB/B7IlRHJLLU9f8Im5J3PteK27f0IzOVG3ltx/zp2TgvuO5wY8dJJCyLZnJt6IGgIjqFKTO7hP6zh0d5tarPrNiRxeuXdGITY0JZRkEgB8emYkfHZmpLIPfbI4llA3hkE8IRAwJRPnID55JWQaunhjF1ROjGM4Jfb7T0Gnh+2ubsOTDNqVTfHUB/PqEbJRMZkejnbj+n2wQNTQgyjUAwRAxBL5ZFEbJ5Cgn9PnYk1vbseCNGKrb1b4hpusCj56SgwvGhpXm8COu/6eBEkDUkBwC8L3uCX2XjI/waFUf+7TZxPUrG/G3CnWT/LrlpGt4ZlouThjBDX6csIY9ADRAUiBiAGB57kO56RouHBvG/CkZOJQT+nwtYQEPbWrFD9Y2oTWhvj8vP6pj+fRc/t45pMuSeKeOBQANkNxVAHAbLp8QAKYWpOPbUzLwjaJ0TugLgDeru/DtFTG8X++OBmHKFxv8FHKDH8e8W5dQupqDfMNgAeADUUNg1sQo5h+cgUncVjUQYl0WfrCuGYs2tSLF2/f36GvD0/DsGbnISeekUidxB0CyiW4AYKnuUWmawNUTI/jhkZnIj/LHGBTLt3Xg+pUxlLe6Zx/4GaPC+ONpOYjyFEjHpfq0RvItgwWAR51RmI5ffS0L43kCX2CUt5pY8EYMz3/eoTrKHuZMiuLBE7PBzf1SYx03ACJ7sAfAawaFBB44IRuXF3PxRlCYEnjgg1bctr4JzXGX9Pd/4f8dkYmFR2VySWmKNHZZ+Ejhpk7kJ4I9AF4yKcvAE9NyMSWbb/1B8XZdHKX/bsR6l731aQK47/gszJ+SoTpKoKyvifPsVrKJ1NmSeMTkbAOvfCMPIznWHwjtCYmfv9uCn73dgrhbZvl9IU0T+N0p2Zg5jr1QqfYmx//JRgYAE1wJ4GojIhr+/s0hGMEtewPhxfIO3PBGDJ81u2eSX7esNA1PTcvBySPTVUcJJI7/k32EyQLAA5aenMPGPwB2tFu4eVUMyz5tVx1lv0Z+scHPYdzgR5m17AEg28hEdwFALvX1EWk4s5BvW34mATy2pR23rIq59oS3cZk6/npWHoq56kSZz1tM7FB8vgP5iskCwOUu5Wx/X9vYmMC1Kxqxcod73+yOHhrC82fmYWiYvVAqreMGQGSvhAGAa0pc7NAcdrf6UYcpcefbLbjrnRZ0uWyS3+7OKEzHstNzMYiHSCnHI4DJZiYLAJfjlt/+89r2TsxfEcPHMXf/07u8OIIlJ2XzTAmX4BbAZLOEBsBd24rRHlbzH71vNHRauHZFI6Ytr3N947/gkAw8fHIOG3+XMCWwgSsAyE4C7ZoA3DnlmAAAv/uoDQnO+/G8x7a0Y8oT1Sj7sM3VG7kIAHcdOxj3HJcFtv3usakhjhaX7QJJ3iYk2jULaFMdhHq2qTGBn7/bojoGJemTpgSmv1iHq19rQE2Huyu5kCbwu1NycPOhg1RHob2s5vg/2UwCbYZgAeB6t61vQtEgHVdwRYBnxC2JX7zXip+81Yz2hPvf3AaFBJadnoszuOTUldZyKJDs12aAQwCuZ0lg1msN2BxL4EdHZvLUNZd7s7oL314Rw/v13nhrGxrW8PyZeTh6KFecuNWaam/8LpGHSLRrYA+AJ0gAP3mrGcc+U4PV3A3MlWJdFm54I4aTnq/1TOM/NlPH62cPYePvYq0JiY2N3vh9Ik9p0wBwgNlD3q6L48TnajHj5Tr8azsLAbd4amsHDn2yBg9tbIWLl/Xv4bDcEP519hBMzOLufm72Vm2cE4HJfgKtBiAa4ep5ybQ3CeCl8k68VN6JSVkGLiuO4NLiKMZl8qTAVCtvNbHgjRie/9xbq2lPGZmOv0zLQVYad/dzO67/J4fUG0JajVJwUNmrPoolcNv6Zty2vhlTcgzMGBXGjFFhHD88DfypOseSwNKP2nDr6hiaPbY869zRYTx2Wg7CnEziCRz/JycIiEbD0kSj8Nbzi3qwsSGBjQ27tpctytAxvSgdM0aFMa0wHWlc1G2bd+vj+PaKGNZ4cC7G/CkZuO94rvH3EvYAkBMsWDFDSA4B+FF5q4myD9tQ9mEbctI1nJ6fjhmjwzhndBiDua97UtoSEne/24Kfvd2CuFcG+ndz6+GD8NOvDlYdg/qhut3Cthae10b2E0I0GJBWIzgE4GsNnRae3NqOJ7e2I6wLnDAiDTNGhXHR2DBGRjlvoC9eLO/ADW/E8Fmz9x7GugB+dUIW5k3OUB2F+okrfsgxUjQaQogG773LULI6TIl/VHbiH5WduOXNGL6SF8KMUWFcPC6Cg7I5G3xvO9stfHdNEx7d7M3Vsum6wO9PycaFY7mJlBfxBEByihBWzBBS1nASYDBZXxwwsqE2jjs2NGNcpo4Zo8O4aGwk8JMIJXbt33/LqhjqOr25BisnXcPT03Jx4og01VEoSRz/J6doMHYKLPpspK6FqlSHIXcZGtYwvWjXMEHQJhFujiUwf2UMr1Z1qo6StPyojhem5+KwXG7w41USwLBHd6DBowUouZuZ0IcLLJSGXlDVCYALgmm/MgyBU/PTcdG4CM4ele7bteNxS+Le91px+4ZmdJreHRg7KNvA8ul5GDWI8zu87KNYAgc/Ua06BvmTaWblpwsA0MsqawAMURyIPMDQgGOHpeGisRFcODaMfJ9MIlyxowvXrmjEpsaE6igDcsywNDx3Ri6GhP1ZpAXJo5vbMOv1RtUxyJ92miUFIwwAEBLVUrAAoN4lLGDlji6s3NG1xyTCi8ZFMMWDkwgbOi18f20TlnzY5vnFsDNGhfHH03IQNYIzXONn6zgBkBwigZ0AYOz6P2InIKeojURec6BJhMcNS3P9ZjNPbm3HgjdiqG73/hjrlROiWPz1LITc/pdOfbaaEwDJIQKoBr4oACDkdqVpyBc+bTZx//utuP/91j0mEU4tSEe6i7ad/bTZxPUrG/G3Cu9O8tvdgkMy8IvjsgK9asNvOk2J9+q9PRxFLiZ3tfm7hgAEyqXX+z/JVWo6LDy6uQ2Pbm5D1BA4zQWTCBMW8NCmVvxgbRNaE97/hRcA/u/Ywbj50EGqo5DN3qmLe3oiKrmbENo24IsCwJIo59sDOaUtIfHCtg68sK0DugCOG75rEuEFY8IoyEjNJMK3auOYt6IRb9X6Y1w1TRN4+ORsfGs8N/jxozUc/ycHWcIqB7p7ACTK2X9IqWDK/0wivGlVDFNyDFw0NoIZo8I4coj9a9ZjXRZu39CMBz5ohV9eqAaFBJ6YmotpBemqo5BD1nL8nxwkpPxPAaBpKPfg2SbkAxsbErijoRl3bGjG2EwdZ48O45tFYZw8Mh3GAEcKlm/rwPUrYyhv9d7+/T0ZEdHwwvQ8fCWPG/z4GbcAJifpIrTNBL5473+kIk/vErVqIxH9x5CwhrOSnERY1WbixlUxPLW1w8GEqTcuU8fy6XmYkOW95ZbUd41dFob+fofnl6WSe5lWRzZKx8e+fKrqZZWtAKIKMxHt1+6TCGeMSkd2D5MILQks/agNt66OoTnur8fnUUNCeP7MPAyLcIMfv/tbRSe+8VKd6hjkVxJN5ryCLKB7GSAACfmpgDhEXSqi/etpEuH5Y8Io/GIS4bv1cZT+O+bLsdNT89Pxl2m5GBziRJ0g4AFA5CQp8En3//6yABBSbIEACwBytd0nEd68KoYjh4RwULaBP3/ajoT39/PZx2XFESw5KTtQhzEFHXcAJCcJiC3d//s/BQCwxV+dpuR3EsD62jjW+2Rp395uOHjXBj9s+4PFj71Y5B5CWl8WAF8OKFqQn+z/24kolQSAHx2ZiXuPZ+MfNJ81m9jpg62pyb2kEPsOAWhCfMIeACK1DA148IRszJ7E+bhBxLd/cpqAtW8BkIC+RYd/1ksTeU2GIfDn03NwVlFYdRRShOv/yWmJ3eYA/GdNUeXwzwG0qwhEFHS56RpeOiuPjX/AcQUAOawFcwsqu//PfwqAhcKSwIdKIhEF2JhMHf8+ZwiOH56mOgopZEr45qwKciuxEUJ8Odq/x64iAtiY+kBEwTUlx8BrM4ZgEnf3C7z36+O+OKWSXEzIPdr4PZ46EmKj4AaURClx0sg0PD0tV9nxyOQuPAGQnCblni/5e/YACPYAEKXCuaPDWH5mHht/+hJXAJDTxF49AHs8fUzLYgFA5LBZE6N4/PRcRAwu8qf/YA8AOc2URs8FALILPgHQlspAREFy6+GDUHZS9oCPOiZ/aU1IfNjIAoAc1fLFar8v7fkYmilMCPFeSiMRBYAugAdPzMJPvzpYdRRyofU1cV+eZUEuIvA2Foo9fsv2fQ+ReCtlgYgCIF0X+ONpOZg3OUN1FHKp1Rz/J6ftp23f39ojFgBENslO0/DMGbk4cQTX+FPPeAIgOU7g7b3/aJ8CQNOwwWJXFNGAjYzqWD49F4flhlRHIZdbU80eAHKWBry192b/+wwBxFtb3wMEy1GiATgo28DKc4aw8ade7Wi3UN7Kc1jIUV3xtrZ9VvntOwdgwYROCbkpJZGIfOi4YWl47ewhGDVIVx2FPGAt3/7JYRLYiAUTOvf+8/0uRhICq52PRORP3zl8EPLSuc6P+oYHAJHTBMSb+/vz/T+lJAsAomTlsvGnfuAGQOQ4ae23Td/vk0oXOgsAoiSxAKC+kti1BwCRk0yp9b0HoKti+EZAxJyNRORPOenc4pf65sPGBBq7uOyKHNWI7SM/3t8X9v+qslBYgFznaCQin8rhAT/URzwAiFLgzb13AOzW45Oqp0kDRNSzsC54yA/12Vp2/5PDBHqe09djASClWOlMHCL/ygvz7Z/6jhsAkeMkVvT0pR6fVqZurACQcCQQkU/lcAIg9VGnKfF+Ax+x5CQRT4T1VT19teen1ZyhzcC+ewcTUc9yOQGQ+ujtujg6Tak6BvmaXIerRrT29NUDvq4IIf5lfyAi/+ISQOqr1dUc/ydnCYEDtuEHfFpJKVkAEPUDVwBQX62r5fg/OUtKK/kCwBTWvwFwkSpRH7EHgPpqDXsAyFmmaSTeONA3HPhpNbeoXgLv2BqJyMeyWQBQH9R3WvikiRMAyUliPWaNbTzQd/T6tNIkXrEvEJG/cRIg9cXamjg4/Y+cJNB7292X1xUWAER9xCEA6gueAEiOk2LgBUAi1LUCQLstgYh8jgUA9cVajv+Ts1oTHS297ubb+9Nq1tgOoOedhIjoP1gAUF9wBQA57FUsmNDZ2zf16WklOQxA1CfcCZB6s7XZRHU7F1eRcyR67/4H+lgAGEJ/cWBxiIKBRwFTb7j/PznN0uTLffm+PhUAXXNHvA9g64ASEfmcoQGDuREQ9WJdLcf/yUniE8wp+Kgv39n3p5XE8qTzEAVATpoGvv9Tb1azB4AcJASe7ev39rkAEJpgAUB0AJwASL1JWMA7dewBIAdJq89tdZ+fWIm21lcBNCcViCgAOAGQevN+QxytCW4BRA6RaEpkxfq8aq/vT6xdSwr+nkwmoiBgDwD1hhsAkaMEXsLMg/v8S9a/J5aUz/U7EFFAcAUA9YYbAJGzxPP9+e5+FQBmKP4MAJawRPvBHgDqDXsAyEFdZjzer7l6/Xti7TpZ6PV+fYYoIDgHgA6kOS7xYSNPACSHSPEK5o9u6M9H+v3EkkL+pb+fIQoCFgB0IOtru2By/h85JYm2ud9PLEuGngFg9vdzRH7HIQA6kDUc/yfnJEyrf+P/QBIFAEqG7wSwst+fI/I5t08CrO2wcNaLdXipvNczQsgBPACIHPQqSvNr+/uhpF5ZpMATyXyOyM/yXNwDsLPdwtS/1uGVyk6c/XIdbn4zhi6L/dGpxB4Aco54MplPJfXEsjTtcQCczUK0G7fOAdjeZmLa8lq8X7+rAZIA7n+/FV9/rhafNPGfcSpsbzNR0cqRU3JEl5lmJTU3L7kn1uyRNeCmQER7cGMB8HmLiVNeqMPG/cw+X18bx1efrsGfP2lXkCxY1tTw7Z8c8yKuLqxL5oPJP7GE+GPSnyXyGYFdhwG5ycexBE55/sBv+U1xiStebcCs1xvRxi1qHbOWBwCRc/6U7AeTfmKZadpTAFqT/TyRnwxO02C4qP3f1JjA1OV1KO9jt/Ojm9tw7DM1Xw4TkL3YA0AOaTXT9ReS/XDyj6yrRrQCSPrGRH6S66IVAG/XxXHaC7WoauvfmPOmxgSOf64Wv/qAdb2dJIANtSwAyAFSPvVFW5yUgb2zCPnogD5P5BNuGf/fUBvHmX+tQ02HldTn2xMSN62KYeY/6tHYldw1aE+bGhP8uyRHCCEG1AYP6KllDi54CUDFQK5B5AduKABW7ujC1OW1qOsceGPz1NYOHP10DVZz7HrAOP5PDqlIZOX/cyAXGNhTa6YwhcBjA7oGkQ+o3gXw9e2d+ObLdWiK2zeR77PmXSsI7tjQDG4ZkLy1HP8nBwiIhzFTDGht6YCfWglL/ha7hrmIAktlAfBSeSdmvFyPFhsb/25xS+KODc244JV6W3oWgognAJIDZMJKPDLQiwz8qTWv8GMAqwZ8HSIPUzUJ8IVtHbjw7/Vod3gJ3wvbOnDUUzX49w42Zv3RYUq8X8/Nlshu4nWUjvpkoFex67XltzZdh8iTshX0ADz+STsu+ns9OlN0xFxFq4mpy2txx4ZmnmrXR2/XxbnlMjnAetiOq9jy1DK7Qo9DosmOaxF5UaqHAB7b0o6rXmtAIsW98qYE7tjQjDP+WtfvZYZBtJr7/5P9Gk1LS2rv/73Z89S6blgLNPzBlmsReVAqC4BFm1ox6/UGpW/hr2/vxJFP1eDF8g51ITxgHcf/yWZCyEdQmt9mx7Vse2qZmvYAOBmQAipVBcAv3mvB9StjrpiVX9th4ZyX63my4AFwB0Cym2bpZbZdy64LYfbIjRBYadv1iDwkJ835SYB3vdOC/1nd5KoqmycL9qy+08Kn/DshW4nXuuaN/MCuq9n72mKJ39h6PSKPcHojoNvXN+P7a907zab7ZMHHebLgl9ZUx11VrJEfSFvbWFufWmZH65MAauy8JpEXODUEIAH895tN+PFbzY5c305NcYnLebLgl7j+n2y208xqfNrOC9r71FowoVOAvQAULGFdIGLYPwQgAdz4Rgz3vd9i+7Wd9OjmNhzHkwW5AyDZSgIPYebBtlaVtr+2JKyuhwCw9KXAyAvb//ZvSmDuvxrxwEZvnsy3kScLYn0tH4Nkm07LCC2y+6L2P7lKx2wH5DLbr0vkUnaP/5sSmP16Ax752JaVPsp0nyz4rX80BO40vE+aEqhuD9Z/Mznqj5g1bIfdF3Vk4FKztHuduC6RG9m5AqDLkvjWP+rx2Bb/TKb7y9b2wJ0syO5/spMm5f2OXNeJi8ZL8zdAYIUT1yZyG7smALYlJM77Wz2e+cx/m+t0nyx41zstgZgZv5YTAMk+/4zPK3zbiQs7t3ZJCvYCUCDYUQC0ftH4/62i04ZE7hS3JL6/tikQJwtyAyCyjcB9Tl3asQLArBz5jJDY6NT1idxioAVArMvC9Bfr8M8q/zb+u3v+810nC67w6cmCcUvi7ToWADRwAthkVuQvd+r6zvUALBSWFLjHsesTucRATgJs6LRw1kv1WLXTn41hTypaTZzu05MF369POH48MwWDhLwTC4Vj3WWObl9mWtt/D6DcyXsQqZabntwkwOp2C6ctr8OaAE2O2133yYJn+uxkwdUc/yd7VJhZsT87eQNn9y8tPTouBRyZvUjkFskMAexotzD1r7V4L+Cb5QDAa9s7cZSPThZcx/F/soGU4m67N/7Zm+NHmFkibRGABqfvQ6RKf/cB+LzFxMnP12JjAw+K6VbzxcmC31vThLjHTxbkFsBkg3orbix1+ibOn2E6Z2izkPiV4/chUqQ/PQBbm01MXc6T8/ZHAvj5uy34+vPe/ftpjkt82OjN7OQeEvI+XDfM8T3AU3KIeUJ23AOgMRX3Ikq1vvYAbGpM4OTna7G12T/j3U5YV+PdkwXX1XTB4x0YpJyIWUY8JS/NKSkAUDo+JoT4dUruRZRiOX2YBPja9k6c8nytrya7Oan7ZMHrV8bQ4aFlAtwBkAZKCnkPZo1NyQtzagoAAAm98xdgLwD5jC6ArLSe/xklLOAnbzVj+ot1vt/8xgm/2dSK45+t9Uy3OncApIERMUvvStnE+ZQVAJg1tlFAPpiy+xGlQE66hv29/0sAT3/Wga8+U4Pb1jcjwbY/ae/Vx3HsMzWeOByJPQA0EBLy3lS9/QOAkaobAUAiDffonbgeAoNTeV8ip3RPAIxbEhWtFt6tj2PFji48+Wk7ylvZ3W+X1oTEnH814p9Vnfj1CdnIDNl3AJNdqtpMVPBnTslrsIyuX6byhin/V6SVVd4mgIWpvi+RE3QBpOsCbdz5LWUmZBn402k5+EpeSHWUPTy1tQMz/1GvOgZ5lBTi+9bc/J+l8p6pGwL4gtUV+gWAnam+L5ETTAk2/im2OZbACc/V4lcftLrqZMFXtwfjLAdyRLUlQimfKJ/yAgDXDWuREHem/L5E5BudpsRNq2K48JV61LtkcuWrATnMiewngTswZ2hzqu+b+gIAgJXV8CCArSruTUT+8dznHTjSBScLfhRLeGalArmMwGdWe9sSFbdWUgBg5sFdEPhfJfcmIl9xw8mCyz713qZF5BJS3oYFE5R0H6kpAACYg/MfkcC7qu5PRP7RfbLgWS/WYUd7aocELAn8cQsLAOo/CbxtZhU8pupj2GrTAAARoUlEQVT+ygoAzBSmpskbld2fiHznn1WdOOIv1Sk9WXD5tg5sjrH7n/pPk9qNmCmUrR1VVwAASMwpfBUSz6jMQET+0n2y4PfXOn+yoARw5zuOn9lC/rQsMW/k6yoDKC0AAMA0jFsAcPosEdlGArjrnRac8kIdPnPw8KVln7RjdTW3/6V+6zAT2v+oDqG8AMDs4Z8KiZTufkREwbC6ugtHPlXtyMmC1e0WbnkzZvt1yf+EEHfj2pGfqc6hvgAAkNDT/hcQ21XnICL/6T5Z8IY37DtZsNOUuOyfDSmfcEi+UJnoNP5PdQjAJQXArg0Q5A9VxyAi/3poYyuOeboGz33eMaAdBLsb/9e48x8lRXwX1w1zxcQR95yosVBqekHlm4D4quooRORvRw8N4eZDB+H8MWGEtL4/Bj9tNnHZP+uxjqf+UTKEWG3OGXk8hHDFLtbuKQAAGIsrvyYFVsBluYjInwoydMwcF8H5Y8I4ZmgajB76RD9sTGDpR214cGMrOlXtNkReJ4UlTkqU5q9QHaSb6xpavazycQAzVecgomCJGgJfyQthbKaOIWENbQmJhk6Jt+ri+KSJ6/xpgKR81JxXeJXqGLtzXQGAJVWjdSk3AYiojkJERGSDFjNhTca1RZWqg+zOHZMAdzc3/3MpcbvqGERERHaQED90W+MPuLEAAGBV5f8CwHrVOYiIiAZGrrWyRv5KdYr9cWUBgIUioWlyDiA41ZaIiLwqoQlRqnK//wNxZwEAID6n8B0h5b2qcxARESVDCHFnfG7BW6pz9MS1BQAAJFqshQC2qM5BRETUHwL4OKF3/kR1jgNxdQGAm4vaBawSYEAbdxEREaWSBOS1mDU2dedSJ8HdBQCAREnRa5B4WHUOIiKivhGLEiWF/1SdojeuLwAAwJQdNwNw3RIKIiKiPYntptH5PdUp+sITBQBKx8cg5E2qYxARER2QxHWYNbZRdYy+cN9OgAegL658GgLnqc5BRES0L/GkWZJ/seoUfeWNHoAvmDI+H0Ct6hxERER7qTahX686RH94qgBA6ZjtAOaqjkFERLQbCYG5KBm+U3WQ/vBWAQDALCl4FpCLVecgIiL6woPm3ILnVYfoL88VAABgWtpNAvhQdQ4iIgo2AWwyLXGr6hzJ8GQBgNL8NmGJywF0qY5CRESB1SmkvAyl+W2qgyTDmwUAgHhp/gYJcZvqHEREFExSyu/H5xW+rTpHsjxbAACAVTnyLgCu322JiIh85xWrquA+1SEGwlP7AOzXQ+UFuqG9CyBXdRQiIgqEBlPH4ZhdUK46yEB4ugcAAHBtUSUgSlTHICKigBCy1OuNP+CHAgCAWZL/FAR+pzoHERH5nVxszi18QnUKO/iiAAAAszN0g5DYqDoHERH5k4R4z0w3bladwy6+KQBw3bCWBOT5gIipjkJERL7TaAnzAlw1olV1ELv4pwAAgHmFH0PKqwBI1VGIiMg3JKSYjblFW1QHsZO/CgAA5ryC54SUd6rOQURE/iAkfmzOy39adQ67+a4AAIBEVcEPALykOgcREXneK4ns/DtUh3CC9/cB6MmS8lxdausAjFUdhYiIPOlz0xJHozTfl8fQ+7IHAAAwt6hek/ICAO2qoxARked0aBAX+rXxB/xcAACIzyt8G0KUqs5BRESeMz9ekr9edQgn+boAAABzbv6jkHKR6hxEROQREr82SwoeVh3Dab4vAADA7Gj/LwixWnUOIiJyvTfM7MZbVIdIBf9OAtzbw9Uj9ET8TQCjVUchIiJX2mrCOB4lw3eqDpIKgegBAADMGrbDhDgLQIPqKERE5DYipgv9nKA0/kCQCgAAKMnfJOT/b+/ug6yq7zuOv7/n3F3wKaxSdLl3t4RoGiOmebAOamidpNXoYNVapTNRSQj3XkRTou202vwR0XZM6SSTauIDywoqtrGItolmUptQY2oiTkLMTAMmLYYS9gloZQGB5e4559s/NBM0iuyyu7977/m8/oK/eA/D7O/D7557b/RHwMHQKSIiUi9s2Cz741q5/SehSyZSvgYAkFSnPwMsQB8XLCIi4JCVk3LHutAhEy13AwAgrZS+as5fh+4QEZGwHL81rXQ8FLojhPw8BPhG7hZ39z8APj90ioiIBPHVtFy8GrNc3gjn8gYAADNPs74ykLtrHxER8WfSA/sX5PXwhzzfAPzS8pemRNGkZw07M3SKiIiMP3M2JUkyh+tn5PpdYRoAAPf2vzMuZOuBU0KniIjIuBpIzc6hXNwaOiS0/L4EcKjF0/8nwuaC7Q6dIiIi42Ywcr9Yh/+rNABeM1wpbrAouxh4JXSLiIiMuf2GXTpc7fhx6JB6oQFwiGRhx3NmfjkwFLpFRETGzAGL/JKkUvyP0CH1RAPgDZJyxzpzuxx9WqCISBOwYdznJQs7ng5dUm80AN5EUi0+BfZxIAndIiIio5biPj+tdjwZOqQeaQC8hbRSfBzzMpCFbhERkRFzzK5Lq6VHQofUKw2Aw0jLHQ86LAndISIiI+LufDotF7tDh9QzDYC3kVVKdzt2U+gOERE5Mu78VVYt3RO6o95pAByBrFL8ezP7m9AdIiJyeAa3ZdXSstAdjUCfBDgCUVfvzWb8begOERH5dWYsS8qlW0J3NArdAIxAVi0tc+Pm0B0iIvJ6jn9Oh//I6AZgFKKunuvM7G40oEREQnN3uymrFu8MHdJoNABGKe7quxrzB4BC6BYRkZxKgUpaKa0KHdKINACOQtzVMw+LHgZvCd0iIpIzNfCr00rH2tAhjUoD4CjF3T1zcXsUOCZ0i4hIThwE/iStlL4WOqSRaQCMgUJX//lu2RPACaFbRESa3D5zLk+qpW+HDml0GgBjpKWr/+zMsn8FTgrdIiLSpAbNmZtUS98PHdIM9BT7GBmuTv9BhF0IbA/dIiLShAYi46M6/MeObgDG2oqBmQXSbzi8N3SKiEgzcNiYmc2lXNwauqWZ6AZgrFXatyTDyYdx03dPi4gcvX/PCrU5OvzHngbAeLh+xq60bddFYA+FThERaVjGA+mUwYtZMHMwdEoz0ksA48ndCt19tzp8Dv1di4gcKTe4PSkXb8PMQ8c0Kx1KEyDu7vkEbl1Aa+gWEZE6V8OsnJaLq0OHNDsNgAlSWNHzUcceA9pCt4iI1KldRnZFUun8TuiQPNAAmEgr+8+Is+wbOO8MnSIiUme2pNhcKsUXQ4fkhR4CnEifmr4pjVvOBdaHThERqSPfT5P4HB3+E0sDYKItOHkg7S3+rhnLQqeIiITnXemUwY+wuH1H6JK80UsAAcUr+q4BXw4cG7pFRGSCDWHckJZLK0OH5JUGQGAtXT0fyMweB2aGbhERmSC/iDy6crg6/QehQ/JMA6AePNgzNa7ZPwAfC50iIjKuzL+Z4tdQ7nw5dEreaQDUC3eLVvT9pRl3oGczRKT5uBl/l/QUP8tSy0LHiAZA3Ym7ei7BbDX6vAARaRbOHrBPptXiP4dOkV/RAKhH9217dxTb44adGTpFRORoGPw0wa7QW/zqj66a69F1nf+d1VrPxdHTsSLSuIwVyaT4d3T41yfdANS5eEXfFeBdwNTQLSIiR2gQZ3FaLT0SOkTemgZAI1i1oz1OhlcBF4VOERF5G+vSJPsEizt7Q4fI4WkANAp3i1b0LzHzZcCk0DkiIq9nw4bfkfQWb9dT/o1BA6DBtHYPnJl49o+Gvy90i4gIgMGLZlw9XC69ELpFjpweAmwwtXL7T7K96WyDuwAP3SMiOee+OpkUn63Dv/HoBqCBFbr6PubmDwDtoVtEJHd2YixMy6UnQofI6OgGoIEl1eJTaTb8IYyvh24RkRwxfyyl8D4d/o1NNwBNIu7uuQq3e4DfCN0iIk1rAPxP00rH2tAhcvR0A9Ak0nLHo2kSz8J9degWEWk6jvvq1LJZOvybh24AmlC8oudKsC+jZwNE5CgZ/AyzalIufjd0i4wt3QA0obTSsTbNhk5/7Z0CaegeEWlIiRnLkkLtAzr8m5NuAJpcy/K+D2WRdwFnhW4Rkcbg8EKMVYYrxQ2hW2T86AagyQ0vKv4ozfrPdecWYH/oHhGpa/scuymbUjxbh3/z0w1Anty7rRTH9nnMrg2dIiJ1xcHWpsZfUC5uDR0jE0MDIIcK9/d8JMu4y7AzQ7eISHA/NOPGpFz6XugQmVh6CSCHkoUdT2e9pQ+6241gu0P3iEgQfWCL0t7ibB3++aQbgLxbsf2UmOHbwRYCcegcERl3Q4Z9MZkUfZ757ftCx0g4GgDyquV9p8cRt4NfFTpFRMbNkynxEirtW0KHSHgaAPI6ha7eP8jgC2a8P3SLiIwNhxcisxv1fn45lAaA/Lo1Hse7++YDtwIzQueIyKhtAV+a9pYeZqlloWOkvmgAyFtbs7E13n3iJ8FvQx8rLNJI/tedL2QttTtZMHModIzUJw0AeXsPDRwXDaWfNuMWoC10joi8pb1m3JNMnnwH10zdEzpG6psGgBy5+3eeEKW16zUEROrOqwd/LVnG9TN2hY6RxqABICP3qyFwM3Bi6ByRHNPBL6OmASCjt2pLW5S0fsZgCXBS6ByRHPk/x+/MsoN3sehUfZiXjIoGgBy9VVsmx0nLPMM+6/Ce0DkiTWzAYHmSDX1JB78cLQ0AGTtLPYo7+uby6jcPnhc6R6SJbHa3r2RD++5jybsPho6R5qABIOOisLxvjpv/Ocal6DsnREbH7Wki/1K6sPgkZh46R5qLBoCMr5Xb31VIk884lIFjQ+eINIAa2NeiLP3i8KLO50PHSPPSAJCJsbJ/WpRli825ATg5dI5IHdpucF9C4V4qp2wPHSPNTwNAJtaaja3xnimX4VYFfh/9GxTZANaV7k1X82edB0LHSH7oh6+Ec3/vewrOAnfKwNTQOSITx3ZD9k9x5l+pLer8z9A1kk8aABLeQwPHxUPJVZh9CpiD/l1Kc3Lw7wIr0yxay6Li/tBBkm/6QSv1ZWVvZ5TwcTMWATND54iMgV4zHk7Iuil3bg4dI/JLGgBSn5Z6VCj2X+Dm1wKXA8eFThIZgb24/4uZrU56i+v0VbxSjzQApP6t2jI5TlsvwO1a8MuA1tBJIm8iBZ4GX53WWh/nhpNfCR0kcjgaANJYHuyZGg1zpbnNA84H4tBJkmsJ8B3c1qRR+hjlzpdDB4kcKQ0AaVzd206K3S4Buwq4EN0MyMRIgfXu9mhm8SN6z740Kg0AaQ6rtrTF6aQ/hOwy3C4ETgidJE3E2YPZU8DX0+zAE/oiHmkGGgDSfNZ4XNjVfy6xX4JzqcN7QydJI/KfA9/G7Mn0HYNPMW9WLXSRyFjSAJDmt7zv9CjiIoMLwM9H7yiQN/cKbs84fCsj+ybVjv8KHSQynjQAJF/WbGwt7H7Hebhd6GYXAB9EDxLmVQr+IyP6N9y+lbS9/Jz+ly95ogEg+Xb3juMLLcPnYMxx+DDwe+hhwmaVAj82+J6bP5vi6/TUvuSZBoDIoe7ecXxhcnIeGXPcfTZms8GnhM6SURkEnjdYj/NsMjl+jvnt+0JHidQLDQCRw1nqEb85cHqcZrPBz3G32WZ2BnhL6DQ5lA07vtHcnwfWpxY9T3n6TzHz0GUi9UoDQGSklv+wpdVKv5VaepZhZzmcBbwfOD50Wk68AvwM901OtCFyNiT70g36Kl2RkdEAEBkr9/+iWEjjMzJslll2Btgs4LfRZxKM1kFzXnKzjYZvcvONcRZvqvW1v6jP1hc5ehoAIuPJ3VjV11FwP809OtXw0xw/zd1ONTiVvI8DZ48bPzdss+Gb3ewl83Rzgm2mXOrVFb7I+NEAEAnpnq0ntsZRR2o2w43OCDrc6cSs6Pgphk0DpgFR6NQRyoCdju80bDvufWZsy5xtBj2x+9Zaa7KNBTMHQ4eK5JUGgEi9W+Mx+3ZOa60dnJZFNs3hJCxqc7wtcmtzvA1oA44FTsCYjHOMwXGOt4JN4fUDYjJwzBv+lAPA0CG/z8B3G1Zz2AfsBw4Ce1/79aBhg5n5oDm7cBs0y3ZFme+stU7aydZpO3RNL1Lf/h+U0LArOHHoGAAAAABJRU5ErkJggg==;" parent="1" vertex="1">
          <mxGeometry x="1300.0000000000002" y="2215.74" width="55" height="55" as="geometry" />
        </mxCell>
        <mxCell id="bameNsq92qCA9drPWQOE-31" style="edgeStyle=orthogonalEdgeStyle;rounded=0;orthogonalLoop=1;jettySize=auto;html=1;entryX=-0.004;entryY=0.633;entryDx=0;entryDy=0;entryPerimeter=0;" parent="1" source="bameNsq92qCA9drPWQOE-26" target="bameNsq92qCA9drPWQOE-30" edge="1">
          <mxGeometry relative="1" as="geometry">
            <mxPoint x="1299.9999999999998" y="2302.6" as="targetPoint" />
            <Array as="points">
              <mxPoint x="1250" y="2303" />
              <mxPoint x="1250" y="2303" />
            </Array>
          </mxGeometry>
        </mxCell>
        <mxCell id="bameNsq92qCA9drPWQOE-33" value="API-TELEGRAM" style="text;html=1;align=center;verticalAlign=middle;whiteSpace=wrap;rounded=0;" parent="1" vertex="1">
          <mxGeometry x="1096.0000000000002" y="2148.6" width="110" height="30" as="geometry" />
        </mxCell>
        <mxCell id="bameNsq92qCA9drPWQOE-37" value="" style="edgeStyle=orthogonalEdgeStyle;rounded=0;orthogonalLoop=1;jettySize=auto;html=1;endArrow=none;endFill=0;" parent="1" source="bameNsq92qCA9drPWQOE-29" target="bameNsq92qCA9drPWQOE-35" edge="1">
          <mxGeometry relative="1" as="geometry">
            <mxPoint x="1292.1100000000001" y="2237" as="sourcePoint" />
            <mxPoint x="1130" y="2150" as="targetPoint" />
            <Array as="points">
              <mxPoint x="1330" y="2190" />
            </Array>
          </mxGeometry>
        </mxCell>
        <mxCell id="bameNsq92qCA9drPWQOE-39" style="edgeStyle=orthogonalEdgeStyle;rounded=0;orthogonalLoop=1;jettySize=auto;html=1;entryX=0.395;entryY=0.011;entryDx=0;entryDy=0;entryPerimeter=0;" parent="1" source="bameNsq92qCA9drPWQOE-35" target="bameNsq92qCA9drPWQOE-29" edge="1">
          <mxGeometry relative="1" as="geometry">
            <mxPoint x="1310" y="2210" as="targetPoint" />
            <Array as="points">
              <mxPoint x="1322" y="2200" />
              <mxPoint x="1322" y="2210" />
            </Array>
          </mxGeometry>
        </mxCell>
        <mxCell id="bameNsq92qCA9drPWQOE-35" value="" style="shape=image;verticalLabelPosition=bottom;labelBackgroundColor=default;verticalAlign=top;aspect=fixed;imageAspect=0;image=https://cdn-icons-png.flaticon.com/128/1822/1822899.png;" parent="1" vertex="1">
          <mxGeometry x="1137.8900000000003" y="2186" width="30" height="30" as="geometry" />
        </mxCell>
        <mxCell id="bameNsq92qCA9drPWQOE-40" style="edgeStyle=orthogonalEdgeStyle;rounded=0;orthogonalLoop=1;jettySize=auto;html=1;entryX=0.849;entryY=-0.022;entryDx=0;entryDy=0;entryPerimeter=0;endArrow=none;endFill=0;" parent="1" source="bameNsq92qCA9drPWQOE-35" target="bameNsq92qCA9drPWQOE-22" edge="1">
          <mxGeometry relative="1" as="geometry">
            <Array as="points">
              <mxPoint x="976" y="2200" />
            </Array>
          </mxGeometry>
        </mxCell>
        <mxCell id="bameNsq92qCA9drPWQOE-41" value="&lt;font style=&quot;font-size: 18px;&quot;&gt;e-Saj&lt;/font&gt;" style="rounded=0;whiteSpace=wrap;html=1;" parent="1" vertex="1">
          <mxGeometry x="472" y="2050" width="162" height="80" as="geometry" />
        </mxCell>
        <mxCell id="bameNsq92qCA9drPWQOE-42" style="edgeStyle=orthogonalEdgeStyle;rounded=0;orthogonalLoop=1;jettySize=auto;html=1;endArrow=none;endFill=0;" parent="1" source="bameNsq92qCA9drPWQOE-41" edge="1">
          <mxGeometry relative="1" as="geometry">
            <mxPoint x="553" y="2220" as="targetPoint" />
            <Array as="points">
              <mxPoint x="553.11" y="2210" />
              <mxPoint x="553.11" y="2210" />
            </Array>
          </mxGeometry>
        </mxCell>
        <mxCell id="bameNsq92qCA9drPWQOE-45" style="edgeStyle=orthogonalEdgeStyle;rounded=0;orthogonalLoop=1;jettySize=auto;html=1;entryX=0;entryY=0.75;entryDx=0;entryDy=0;" parent="1" source="bameNsq92qCA9drPWQOE-46" target="bameNsq92qCA9drPWQOE-15" edge="1">
          <mxGeometry relative="1" as="geometry">
            <Array as="points">
              <mxPoint x="555.11" y="2313" />
              <mxPoint x="555.11" y="2313" />
            </Array>
          </mxGeometry>
        </mxCell>
        <mxCell id="bameNsq92qCA9drPWQOE-43" value="" style="shape=image;verticalLabelPosition=bottom;labelBackgroundColor=default;verticalAlign=top;aspect=fixed;imageAspect=0;image=data:image/png,iVBORw0KGgoAAAANSUhEUgAAAgAAAAIACAYAAAD0eNT6AAAABHNCSVQICAgIfAhkiAAAAAlwSFlzAAAOxAAADsQBlSsOGwAAABl0RVh0U29mdHdhcmUAd3d3Lmlua3NjYXBlLm9yZ5vuPBoAACAASURBVHic7N15vJV1uf//1xr2vPYEbEFQUERRnMkJlY4UDpX9tKOidhQTtDT7aiUqKs55TDTEg9o52cDgjFPa0Q5kDjmlqTiHI2kqMsge2POwfn/cYoob2BvWe6913+v9fDzWwyi9rjvZrPszXJ/rA2ZmZmZmZmZmZmZmZmZmZmZmZmZmZmZmZmZmZmZmZmZmZmZmZmZmZmZmZmZmZmZmZmZmZmZmZmZmZmZmZmZmZmZmZmZmZmZmZmZmZmZmZmZmZmZmZmZmZmZmZmZmZmZmuSuW7Qcwy5IKYABQCJRl+Vks8zqBeqAZWPbpr83sczwAsKjbHNgb2BXYDdgW2JJgAGD5oQP4EFgCvAwsAp4DXsIDA8tjHgBY1BQD44FvAOOAHbL7OJbDVgGPAH8Cfg98kNWnMetjHgBYFCSAbwL/8elfy7P7OBZCXcBTwHzgJmBldh/HzMzWZwvgMuCfQNoffzL0aQFuAf4NMzPLKTsD/0NQ4JXtl4U/0f68AEwkWGUyM7Ms2Y5gibaL7L8Y/Mmvz+vAEXjb1MysT9UA/w20k/0XgT/5/XkaGIuZmUnFCJZfl5P9L35//Pn85w5gIGZmlnE7AH8l+1/0/vizrs8q4HuYmVlGxIDvA6vJ/he8P/705PMAQcMpMzPbSP0Ivkyz/YXujz+9/XyEjw1ayPhoi+WK3Qg6su2V7Qcx2wgp4HigFXgyy89i1iMeAFgu+Hfgf4HNsv0gZpsgTtCGejjBz7PvGTAzW4//R/BFme0lXH/8yeTnIaAKMzPr1iVk/4vaH39Un+eB/piZ2Rf45e9PPnwWAQMwMzMAppH9L2Z//OmrzwtABWY5xn2tra8dC9yMf/YsvzwMfIPglIBZTvApAOtL44A7gWS2H8Ssj20NDAF+n+0HMVvDAwDrKwOBBbgy2vLX7sCHBMWBZlnnZVjrC0mCY1FfzfaDrFGYhK0Hwhb9obQIiguy/USWKWlgeR0s+/SzsiHbT/QFLcC+BHUBZlnlpVjrC1PIoZc/wI+/DVdOzPZTWF/48BN45BV47DX4vxdgybKsPk4xMA8YDbRl9Uks73kFwNS2BV4ESrL9IJ9XmITXZsE2g7L9JNbXnnsbfrUAbnkMVrdk7TEuAS7OWnYzXANgencSDAJySmdXsDx85L7ZfhLra4P7wbf3hNO+CcWFsOhdaGnv88fYF7gbWN7nmc0+5QGAKR0NnJXth1iXV9+HQ3YP6gAs/xQXwAE7wQ8OgsIC+Ntb0N533fsTwEiC7QCzrPAAwFRKgXvJ8ar/V96DyeMh5s2wvFVSCON2hu+Ohdf/CW8v7bPUw4GXgL/3WUazz/EAwFQuBQ7N9kNsyD9Xwk5DYdSW2X4Sy7bqFBz3b7DVZkHRYGvfbAvsDfwK6OiTbGaf4wGAKYwgWNoMxSmTv70NpxwMSf9pyHuxGOy2dVAb8ueXg+OEYlVAO/CoPJPZWvyVZwrzgB2y/RA9VdsYzP7GjMz2k1iu6FcOE8fB4g+CbQGxvQnaY9fKM5l9jgcAlmmHAxdk+yF665k34eQDg6ZAZhAcFZ2wH3zwCTz/jjRVAbAFMF+axWwtHgBYJpUA9wHV2X6Q3mppD/Z8Dxmd7SexXBKLwbe+Am8thZf/IU01CngaeFuaxexz4tl+AIuUswkuPZGIFcYo2EI3Zr3hQXjzI1l4C6lEHOacDgfvLk81g2A1wKxPeAXAMmUocCvCL7B+p5aTOrCYxj9p2rd1pYNTAUfvLwlvIRaPBwOAeY9IuwfWAJ8QrASYyXkFwDLlWoKz/xKl+xaR+mYxRTsXULJPoSoN9zwdVH+bra2mAmafLu8ZcQmwuTSD2ac8ALBMOJCg+E8iXhqj+rTUZ7+umpQiJjxgOGV2sBpgtraDd4fjD5CmqAAuk2Yw+5S3AGxTFQL3AwNUCaompyje7V+z/kRFnK7aNG1vaHqnLF0F2w2GXYZJwlvI7TsSblwobRS0G/B/wAeyDGZ4BcA23U8JeppLFAxLUv6tL18kWHlcGfFy3Vrs1LnQ1CoLbyE2sAqmHSVNEQeux9/PJuYVANsUQ4A7CFYBJAacW0Fy8y//mMaKYhCHlhc007D6ZigrgrGjJOEt5PbcFuY/ASsaZCkGA0uARbIMlvc8wrRNcTWQ2uDftZHKxhVRvMu6DxWUH1ZKcrBuDHvFXbDUvdmsGwUJmHWyPM2V5PhlWhZuXgGwjbU/8AtAsg4fL4lRc2El8dJ1h4/FIVEdp+lxzVp9W0dw5OvQPSThLeSGD4JF7wbtgkXKCFbXFsgyWF7zCoBtjCTBHqVsE77i2FIS/Tf841k6toiiUbreKb9eGFwZbNadGZOgWNu653RgZ2kGy1seANjG+BGwiyp4cnCC8sO+XPi3LtUnl8mGIp1dcPYcTWwLv+EDYYrsACwQDLavkWawvOUtAOutzYA7gWJVggFnV1CwRc8P+icGJGh/r5P29zolz/PWR7Dv9rDNIEl4C7kxI+Hmx4JbJUWGAy8Bf5dlsLzkFQDrLWlhUul+RRR/pfeHCqpOLCNWoDsWeNacYDXAbG0lhXDlRHmamQg7bVp+8gqA9caewCxEC+6xwhg1F1UQT/V+XBpPxUk3pWl9XXMs8ONaGFoDo4dLwlvI7TgUHnsNliyTpagE2oBHZRks73gFwHoqDlyH8Gem4uhSkgM3fkxacUwp8Qrdj/T5N0NDsyy8hdx1JwfHA4WmAltJM1he8QqA9dQPPv1IJAclGHB2ObHExi8uxApjxApjtPytLYNP9i+NLcEX/DjXZFs3aipheT0886YsRQGwBTBflsHyivZeK4uKfsBihP3+ay6qpGTvDDQU7ISPTvtEVhBYUgiLr4ctZf8mLMxWrYaRpwUDAaFDCO4KMNskXgGwnpgBfFUVvHh0IVUTyzITLA7JAXGaHtU0B+rohFWNcPjekvAWciWFUJWC+5+VphkN3Ai4LNU2iQcAtiG7A/+NaO8/loTNLq7M6N59wRZJWl/toGOpZhXgpSVBd8DB/SThLeR2Hw5/fB4++ESWogZYCfxVlsHygosAbX1iwLUIB4rlR5aSHJL58FUn6ZoDdaVhymxNbAu/eAxmToaYdoP1UmBzaQaLPK8A2Pp8j6AVqURiQJyaqRXEkpn/pkxUx+n4qIv2dzsyHhuC4157jIDtBkvCW8htOQDe+RheXCJLUUTQj+M+WQaLPK8A2LpUAP+pTFB9copYsW6aVHViWXBtsMiU2dCu2WWwCJg+ESq1rXtOBFyNYhvNKwC2Lj8HDlQFL961gKpJspuEAYiXxki3pWl9RdMcaGUDDKoK7oY3W1uqGJIJWPiiLEWMoEbn10BalsUiyysA1p1RwGmy6Amo/oH25b9G5VGlJPrpfswvvg3qmmThLeTO+DZsP0Sa4iuAvhGxRZJXAKw7twPbqIJXfKeEsq/J7hL6glhBjHhpnOa/apoDNbUGRYEH7ioJbyGXiAcDgHmPSNPsS3AsUHP21SLLKwC2tmOAcargiao4Fcdm6Mx/D6UOKqZgq57fLthbM++Ht5fKwlvIjd8VDttLmmIz4EJpBoskDwDs80oJ9v5lqk4qI17Wxw0o49oth7YOmHazLLxFwIxJUFwgTXE64CbV1iveArDPuxQ4VBW8aIeC4EWchQbUyUEJWv/eQcdHmrL9V98PZnpD3SLYulGdgtb24MZAkTiwHTBXlsEixysAtsYI4Cey6DGoPiU7L/81qr+fkg1502mY8rvgr2bdOe9I2GozaYqvA9+RZrBI8QqArTEP2EEVvPzQElKH9E3h37okKuN0ruii7S1Nc6B/roSdhsKoLSXhLeQKEkH76DuflKYZA/wK0Jx9tUjxCoABHA58UxU8Xh6j8jhtR5SeqpxYRrxUtwxx9txgqdesOxP2k18nPRSYIs1gkeEVACshaCdarUpQfUo5RTtqK6B6Kl4cI90JrS9p3tK1jcF+75iRkvAWAXuOgBsXBMdHRfYBbgZqZRksErwCYOcAW6uCF45Ikjo4u0v/a6s4ooRkje5H/7I7gi6BZt0ZtSWccog0RQlwlTSDRYJXAPLbUOAWQDM9j8GAaRUka3LrxyyWiBGviNP8lKY5UEt7sA1wyGhJeIuAfbaD3z4UNJISGQU8Dbwty2Ch5xWA/HYtwdl/idRBxRRtnxtL/2sr+1oxhdvqmgPd8CC88aEsvIVcdQouP06eZgaqwb1FggcA+etAguI/iXhpjMqJfdvxr1diUH2SrjlQeydMnScLbxEweTzspb1IahTwQ2kGCzUPAPJTITBLmaByYhmJ6tz+8SrauYCSfQpl8e95Gv78siy8hVw8BjMnQ0zbG+NSYJA0g4VWbn9Dm8pPAVmdesGwJOXfKlGFz6iqSSliup0ApsyWVntbyI0ZCccfIE1RAfxMmsFCK7eqs6wvDAHuIFgFkBhwbgXJzcPxo5WoiNNVm6btDU1zoKWrYLvBsMswSXiLgH1Hwo0Lpf0jdgP+D/hAlsFCySsA+edqQLb5XTauiOJdwlV3VHlcGfFy3Trs1LnSam8LuYFVMO0oaYo4cD3+vre1hGOaZpmyP/ALRB354yUxai6slHbaU4gVxSAGLS9opmD1zZAqhrGjJOEtAvbcFuY/ASt0/SMGA0uARbIMFjoeEeaPJMEsQPZ2rji2lET/cP5IlR9eSnKwbjx8xV2w1H3ZbB0KEjDrZHmaK4FKeRYLDa8A5I/TgRNUwZODE/Q/s5xYIlyz/zVicUhUx2l6XLNW39YBq1vg0D0k4S0Chg+CRe/CYt1OfRlB7c8CWQYLlXBO16y3NgMuUibod2qKWEE4X/5rlI4tomiUrn7h1wvhlfdk4S0CZkyCYm0JzemA9joiCw2vAOSH6wguCJEo3a+IiqNz47a/TVU4LMHqBS2S2Ok0LFkG//FvkvAWAdWp4DTAY6/JUsSB7YC5sgwWGl4BiL49gYmq4LHCGFUn5XDHv14qHFlA6f5FsvgPPg8LXIZl63HekTCsRpri68B3pBksFDwAiLY4wexf9vtccXQpyYHRWkiqOrFMup1x1hzo7JKFt5ArKYTpsmqdz8xEeA+IhUO0vrltbT/49CORHJRgwNnhLfxbl3gqTropTevrmmOBH9fC0BoYPVwS3iJgx6HBNsCSZbIUlUAb8Kgsg+W8aH1z2+f1AxYDA1QJai6qpGRvXS/9bOpqTPPh5E/oqtdM1QdWwZs3QHk4OiZbFrz2Puz2k+BiKZFmgguDlsgyWE7zCkB0zQC+qgpePLqQqly+7W8TxQpjxApjtPytTRK/sSU4+z3O9di2DjWVsLwennlTlqIA2AKYL8tgOc0rANG0O/AsogFeLAmb/7IfySERHz92wkenfUL7e5opWEkhLL4etpSt0VjYrVoNI08LBgJChxDcFWB5JuLf4HkpBtwObKVKUDGhlNKxukr5nBGH5IA4TY9qmgN1dMKqRjh8b0l4i4CSQqhKwf3PStOMBm4EXJqaZ3wKIHpOAMaqgicGxKmckD/FwyX7FFG8m67OYe7D8NzbsvAWAZPHw17bSlOMAn4ozWA5yQOAaKkA/lOZoPrkFLHi/No5qjqpTLZZ1pWGKbM1sS0a4jGYORli2j92lwKDpBks53gLIFp+DhyoCl68awFVk2Q3CeesRHWcjo+6aH+3QxJ/yTLYYwRsN1gS3iJgywHwzsfw4hJZiiKgGrhPlsFyTn5N5aJtFMFVn5pO4gnYfFY1BVslJeFzXefKLj486RPSrWlJ/JFD4OVrg5MBZt35uDYoCKxrkqXoAsYAz8gyWE7x10103A5sowpe8Z0Syr5WrAqf8+KlMdJtaVpf0TQHWtkAg6qCe+HNupMqhmQCFr4oSxEjOEH0G0Az0rWc4hqAaDgGGKcKnqiKU3FsdM/891TlUaUk+un+yFx8m3R2ZxFwxrdh+yHSFHsgvDvEcotXAMKvFLgHqFIl6PejFEUjtXeUhkGsIEa8JE7zM5rmQE2twbRr/K6S8BYBiXgwAJj3iDTNvgTHAjXnXy1neAUg/C4AhqmCF+1QQNm4/F36X1vq4GJpHcQ198HbS2XhLQLG7wqH7SVNsRlwoTSD5QQPAMJtBPATWfQYVJ+Scqno58Wh+vu67ZC2Dph2syy8RcSMSVCsXZQ7HdhJmsGyzlsA4TYP2EEVvPzQElKHePa/tuSgBK1/76DjI02L4FffD2Z5Q90i2NahOgWt7cGNgSJxYCQwV5bBss4rAOF1OPBNVfB4eYzK4/Kn419vVX8/JRs+p9Mw5XfBX83W5bwjYViNNMXXge9IM1hWeQUgnEoIGnZUqxJUn1JO0Y4u/FuXRGWczhVdtL2laQ70z5Ww01AYtaUkvEVAQQIG94M7n5SmGQP8CtCcf7Ws8gpAOJ0DbK0KXjgiSepgL/1vSOXEMuKlugKJs+cGy7xm6zJhP/mV0kOBKdIMljVeAQifocAtqDr+xWDAtAqSNf7R2JB4cYx0J7S+pHlL1zYGe71jRkrCW0TsOQJuXBDcKyGyD3AzUCvLYFnhFYDwuZbg7L9E6qBiirb30n9PVRxRQrJG98fosjuCLoFm6zJqSzjlEGmKEuAqaQbLCk/zwuVA4HJV8HhpjAEXVBIv8bm/noolYsQr4jQ/pWkO1NIebAMcMloS3iJin+3gtw8FzaRERgFPAb68OkK8AhAehcAsZYLKiWUkqv0j0VtlXyumcFtdc6AbHoQ3PpSFtwioTsHlx8nTXINq69Gywt/24fFTgnO5EgXDkpR/q0QVPtpiUH2S7prk9k6YOk8W3iJi8njYS3uZ1Cjgh9IM1qc8AAiHIcD5ygTVp+rOteeDop0LKNmnUBb/nqfhzy/LwlsExGMwczLEtDt4lwKDpBmsz3gAEA5XA7IpZtm4Iop38crepqqalCKm2wlgymxppbdFwJiRcPwB0hQVwM+kGazPeACQ+/YHjlYFj5fEqJqkW77OJwVbJEh9Q7eN8sI7cOtfZOEtIqZPhEptE88TAe11RNYnPADIbUngeoTX8VQcW0qiv38MMqXyuDLi5bo12KlzpZXeFgEDq2DaUdIUcYLvJX9xhJx3fXPb6cAJquDJwQn6n1lOLOFjf5kSK4pBDFpe0DQHqm+GVDGMHSUJbxGx57Yw/wlYoeshMRhYAiySZTA5j+By12bARcoE/U5NESvwyz/Tyg8vJbm5bmx9xV2w1D3ZbD0KEjDrZHmaK4FKeRaT8QpA7rqOoAWnROl+RVQc7dv+FGJxSFTHaXpcs1bf1gGNLXDoHpLwFhHDB8Gid2HxB7IUZQT9SRbIMpiUVwBy057ARFXwWGGMqpPKVOENKB1bRNEo3cmKGxfCK+/JwltEzJgExdoDPqcDO0kzmIxXAHJPHLgb2EKVoPK7ZZTuU6QKbwAxKBiaoHFBiyR8Og1LlsF//JskvEVEdSpoJf3Ya7IUcYIGZXNlGUzGKwC55/sIj9gkByWoOMId//pC0fYFlO6vG2g9+DwscAmWbcB5R8KwGmmKrwPfkWYwCQ8Acks/4DJlguofpIgVuvCvr1SdWCYttDxrDnR2ycJbBJQUwnTZWaLPzER4S6lpeAsgt8wAvqoKXjy6kKqJ3vvvS/FUnHRTmtbXNccCP66FoTUwergkvEXEjkODbYAly2QpKoE24FFZBss4TwVzx+7As4gGZbEkbP7LfiSHeMzX17oa03w4+RO66jVT9YFV8OYNUO6dHVuP196H3X4SXC4l0kxwYdASWQbLKL8NckMMuB3YSpWgYkIppWNd+JcNscIYscIYLX9rk8RvbAnOfY/bWRLeIqKmEpbXwzNvylIUEBQvz5dlsIxyDUBuOAEYqwqeGBCncoK357Kp/FslFAzVjbevuhfeXyELbxFxyTFQUyFNcSRwkDSDZYxXALKvArgHKFcl6H9GOYXbCK+psw2LQ3JAnKZHNc2BOjphVSMcvrckvEVESSFUpeD+Z6VpvgLcCLg8Ncd5BSD7LgE2VwUv3rXAS/85omSfIop3K5TFn/swPPe2LLxFxOTxsNe20hSjgB9KM1hGeACQXaOA02TRE8GxP8sdVSeVyUpvu9IwZbYmtkVHPAYzJ0NMWwJ+KTBImsE2mbcAsut2YBtV8IrvlFD2tWJVeNsIieo4HR910f5uhyT+kmWwxwjYbrAkvEXElgPgnY/hxSWyFEVANXCfLINtMq8AZM8xwDhV8ERVnIpjfeY/F1WdWBZcGywyZbb0qJdFxPSJUKmtDT4RYVdT23ReAciOUoLCvypVgn4/SlE0UnsLiG2ceGmMdFua1lc0zYFWNsCgquBOeLN1SRVDMgELX5SliBH0N/kNkJZlsY3mFYDsuAAYpgpetEMBZeO89J/LKo8qJdFP98fv4tugrkkW3iLijG/D9kOkKfZAeLOpbRqvAPS9EcA8QHMuLwY10ypJ9PfYLpfFCmLES+I0P6NpDtTUGky5xu8qCW8RkYgHA4B5j0jTjCE4Fqg5A2sbzQOAvjcP2EEVvPzQElKHePYfBoXbJGl6so2uWs1x6WffhO9+Ffr5IIitx/BBsOhdWPyBLEUKKAQWyDLYRvE0sW8dDnxTFTxeHqPyOHf8C404VE/WFWq2dcAFt8jCW4TMmATF2pKh04GdpBms17wC0HdKCI7EVKsSVJ9STtGOLvwLk+TgBK1/76DjI03Z/qvvB9sAQwdIwltEVKegtT24MVAkDowE5soyWK95BaDvnANsrQpeOCJJ6mAv/YdR9ckp2VA8nYYpvwv+arY+5x0Jw2qkKb4OfEeawXrFKwB9YyhwC8FtWZkXgwHTKkjW+LczjBKVcTpXdNH2lqY50D9Xwk5DYdSWkvAWEQUJGNwP7nxSmmYM8CtAcwbWesUrAH3jWoKz/xKpg4op2t5L/2FWObGMeKmuOdDZc4MlXrP1mbCf/FrpocAUaQbrMQ8A9A4kKP6TiJfGqJzojn9hl6iKU36EroDz3Y/h+gdl4S1Crjs5WA0QmgpsJc1gPeI1Y61C4H5AVoJVNTklvWHO+k7RyCRND7XQ1aTZsH/mTTj5QCj15ZC2HjWVsLw++HkRKQC2AObLMliPeACgdRZwtCp4wbAk/X9c7nWciIglYsQr4jQ/pWkO1NIebAMcMloS3iJkn+3gtw8FDaVERgFPAb7AOov86tAZApyvTFB9qq563LKj7GvFFG6raRIJcMOD8MaHsvAWEdUpuPw4eZprUBVGW4/49aHzK0A21yobV0TFv7vpT+TEoGCLJI1/apGE70rDB5/A0ftLwluE7D4c/vh88PMiUgOsBP4qy2Dr5RUAjf0RLv3HS2JUTXJ/16gq2rmAkn10dR33PA2PvSoLbxERj8HMyRDTHU4BuBQYJM1g6+QVgMxLAr9H+ENdObGMkj1c+BdlhdsU0PhgM2iuCeDFJXDyQfIvdwu5LQfAOx8HPy8iRQTdUe+TZbB18gpA5v0I2EUVPDk4QflhJarwliMKtkiQ+obu9/mFd+DWv8jCW4RMnwiV2t3GE4G9pBmsWx4AZNZmwEXKBP1OTREr8LQtH1QeV0a8XPd7PXWutMrbImJgFUw7SpoiDlyP30d9zlsAmXUdsI8qeOl+RVQc7cK/fBErikEMWl7QtPCrb4ZUMYwdJQlvEbLntjD/CVjRIEsxGFgCLJJlsC/xiCtz9gQmqoLHCmNUneSOf/mm/PBSkpvrxulX3AVLa2XhLSIKEjDrZHmanwOV8iz2Ga8AZEacoPBviCpB5XfLKN3HLdzyTSwOHUs7aVusuSiorQMaW+DQPSThLUKGDwqKAf/+gSxFiqB76gJZBvsCrwBkxveBr6iCJwclqDjChX/5qKu+i8aFmp4Aa9y4EF55T5rCIuIXJ0KxtnXP6cBO0gz2Ga8AbLp+wN0Ib/vrf2YFBcN03eEsd9Xd1ETLS9pr/NJp+Mdy+I+vStNYBFSngnbSj70mSxEHRgJzZRnsM14B2HSXI7zsp3h0ISV7+8x/Pur8pIuGPzT3Sa4HnoMFLr+yHjjvSBhWI03xdeA70gwGeACwqXYHZKUxsWRw7M/yU92tTaRbNTcDduesOdApajxk0VFSCNNPkKeZiXBV1QLeAth4MeB2hPdaV0wopXSsC//yUceyTj65pkHWCbA7H9fC0BoYPbzvclo47Tg02AZYskyWohJoAx6VZTCvAGyCE4CxquCJAXEqJ3gAnK/qbmoirSn8X6/zb4aGvtl1sJC77uTgeKDQVIQTLPMKwMaqAO4BylUJ+p9RTuE2LvzLRx0fdPLJdQ3Qd6v/n2lsCb7Ux+3c97ktXGoqYXk9PPOmLEUBsAUwX5Yhz3kFYONcAmyuCl68a4GX/vNY7dxG6Mxe/qvuhfdXZC+/hcclx0BNhTTFkcBB0gx5zAOA3hsFnCaLnoDqH7jwL1+1L+mg6fHsNuhvboMLb83qI1hIVKfg8uPkaa4hWA2wDPMAoPeuQ/jDWHFYCQVbeek/X9XObszK0v/a5j4Mz72d7aewMJg8HvbaVppiFPBDaYY85QFA7xwDjFMFT1TFqTjW/f7zVdviDpqfbcv2YwDQlYYps7P9FBYG8RjMnAwx7SWllwKDpBnykIsAe66UoPCvSpWg349SFI30Sle+WvmLejqW5s5B/CXLYI8RsN3gbD+J5botB8A7Hwd3BYgUEXz33i/LkIe8AtBzFwDDVMGLdiigbFyxKrzluJZFbbS8qG35uzGmzIb2LBYkWnhMnwiV2pPLk4C9pBnyjFcAemYEMA/QbM7HoGZaJYn+Ho/lq5VXNdC5Indm/2usbIBBVcF98GbrkyqGZAIWvihLESPovvobcqJSJvz8xumZawmWoCTKv1VC4bYu/MtXzU+30fp67s3+17j4NqhryvZTWBic8W3YXnYpOgB7ABOlGfKIBwAbdjjwTVXweHmMyuPc8S9vpaHupsZsP8V6La+HK+7K9lNYGBQkYJbsdpTP/JygVbBtIm8BrF8JcB9QrUpQfUo5RTu68C9fNT3W2mc3XOldHwAAIABJREFU/m2KZ9+E734V+rlFhW3A8EGw6F1Y/IEsRYrgKPYCWYY84RWA9TsH2FoVvHBEktTBLvzLW11Qd0tuz/7XaOuAC27J9lNYWMyYBMXaec0ZwE7SDHnAKwDrNhS4BVXTnxgMmFZBssa/Bflq9cIWGhe0ZPsxeuzV9+HAXYMjX2brU52C1vbgxkCRODASmCvLkAe8ArBu1yK8jzp1UDFF23vpP1+lO6D+tnBV1qU/bQ6Udv219cB5R8KwGmmKrwPfkWaIOA8AuncgQfGfRLw0RuVEd/zLZ6sfbKZjafgO2D+1GO56KttPYWFQUgjTT5CnmYlwohZ1HgB8WSFBv3+ZyollJKr9rz5fpVvT1N8unf3fC6xWBZ86L6gJMNuQCfvJr5YeCkyRZogwv4W+7KfAdqrgBcOSlH+rRBXeQqDh/mY6P5E1/Wkj+Bmerkrw9lK47gFVdIuaWScFxwOFpgJbSTNElAcAXzQEOF+ZoPrUlEsv81i6OU39XdJjf/8NvAtcDbynSnLZHUGXQLMN2XEonHKINEUJwgFvlPlV9EW/AkargpeNK6Li371dlc/q72iiRXfjXyMwgWD5vwNYhaiWpaU9qPI+RPanxaJkn+3gtw9BU6ssxY7AU4Avse4FrwD8y/7A0arg8ZIYVZPcRSWfddV30XCPdPY/C1j6uV/PA55TJbvhQXjjQ1V0i5LqFFx+nDzNNaiObUeUBwCBJHA9wWUTEhXHlvqynzxXP7+ZribZGbo64Kq1/rsuhAVS7Z1BQaBZT0weD3tpL5UaBfxQmiFi/EYK/AjYRRU8OThB+WEu/MtnnZ90qVv+Xg180s1//wjCO9TveRoee1UV3aIkHoOZkyEmm2YBcCkwSJohQjwAgM2Ai5QJ+p2aIlag/am33FZ3WxPpVtnsfwVB46p1OQuQXTf4499Cl5sDWQ+MGQnHHyBNUQFcJs0QIR4AwJVAlSp46X5FFH+lUBXeQqBjWSeN/ydt+XsFsL6a/MUEBa4SL7wDt/5FFd2iZvpEqNTWQk8C9pJmiIh8HwCMAWS9qmKFMapOcse/fFd3cxPpdtkU+SOCo38bciHdbxFkxNS50gpvi5CBVTDtKGmKOEFNV76/3zYon48BxoE7gS1UCSq/W0bpPkWq8BYCHR908smsBtAtkZ9NcPxpQ9YUIByoeIj6ZkgVw9hRiugWNXtuC/OfgBW6XhKDgSXAIlmGCMjnEdL3ES4TJQclqDjChX/5rnZuI+ha/i8BftuLv38mwnPSV9wFS2tV0S1KChIw62R5mp8DlfIsIZavKwD9gLsRXiLR/8wKCoYlVeEtBNqXdLDqv2Ut+SG4E/35Xvz9ncAy4EjFw7R1QGMLHLqHIrpFzfBBsOhdWPyBLEWKoC/AAlmGkMvXFYDLAdmt5sWjCynZ24V/+a52dqNy6f8N4JaN+OduB57I8LN85saF8IqsAbFFzYxJUKxt3XMGsJM0Q4jl4wBgd0C2+BRLBsf+LL+1vdFBs67lLwR3VmzMnXxpguZAkqFJZxecM1cR2aJo+ECYIrt4HQiavM2UZgixfBsAxAjOS8u2PsqPLCU5JF93VmyN2t+tVs7+XyLYwtpYTxMUwEo88BwscOmV9dB5R8KwGmmKryO6EyPs8m0AcAIwVhU8MSBO5QRf9pPvWha10fKirO8OwLkEbX43xTmA7ODeWXOC1QCzDSkphOmyw9ifuRZhzVdY5dNUtQK4ByhXJeh/RjmF27jwL9+tvKqBzhWyt98TBAOATVVL0ABr3wzE+pKPa2FoDYwerohuUbPjUHjsNViyTJaiEmgDHpVlCKF8WgG4BNhcFbx41wJKx/rMf75r/msbra9LZ/8XZDDWzwjaCEucfzM0SK8/sCiZdVJwPFBoKrCVNEPI5MsKwCiC89Ka/78JqLmgkkRVPo2n7EvSsPLn9XSuks3+F5LZPuctBNsA38hgzM80tgRf6ON2VkS3qNmsEpbXwzNvylIUAEOA+bIMIZMvb6zrEN4TXXFYCQVbeek/3zX9pZW2dzamML/HLhTE/CXBkUKJq+6F92VrDBY1lxwDNRXSFEcBB0kzhEg+DACOAcapgieq4lQc637/ea8L6m5uVGb4PUH1fqa1ExQESjS3wYW3qqJb1FSn4PLj5GmuQTghDJOobwGUEhT+yW776/ejFEUj/bOU7xr/1MJq3Y1/XcCxwMei+H8nOB0jKdl7aUnQHXBwP0V0i5rdh8Mfn4cPZFdXUQOsBP4qyxASUV8BuAAYpgpetEMBZeOKVeEtJNIdUHdrkzLF7cCLygTAWWz60cJudaVhymxFZIuieAxmToZYTJrmUmCQNEMIRHkFYAQwj6ATVObFoeaiShL9oj6Gsg1Z/UAzTQ/LjtR3AkcjrNb/1FJgW2AXRfAly2CPEbDdYEV0i5otB8A7H8OLS2QpighWhu+XZQiBKL+9riX4TZYo/2YJhcNd+Jfv0m1p6m+Xzv5nEyzR94WpgOz/zJTZ0K67GdEiZvpEqNS27pmE8EbYMIjqCsDhZPa89BfEy2PUTKsgVqRdo7Lc13BPM81Pynr+txHM/vvqkt0GoAxRt8yVDTCoKrgL3mxDUsWQTMBC3eZXjOBumN+gbNydw6K4AlACzFAmqDoxRbwiiv/qrDfSzWnq75J2uvkf4F1lgm5cQbAdIHHxbVAnXTCxKDnj27D9EGmKPYDjpRlyWBTfYucAW6uCF45IkjrYhX8G9Xc30VUna/rTDFypCr4eq4GLVcGX18MVd6miW9QUJGCW7O7Wz1xJ0Co470RtADCUoJpZIwbVP0wFC0eW17rqu2i4Rzr7vxb4QJlgPX4NvKIKfs198LZsjcGiZvyucJh2p34gwi3jXBa1AYD0xqfUQcUUbe8z/wb1dzbT1STbNqwDrlIF74FO4GxV8LYOuOAWVXSLohmToFj71XsGsJM0Qw6K0gDgQIR3PsdLY1ROdMc/g85Pumi4Xzr7/wWga4PSMw8CC1TBb3scnuyrsw0WesMHwhTZtzsQHBefKc2Qg6IyACgEZikTVE4sI1EdlX9dtinqb2si3Sqb/a8gWMnKBT8BJJcbpD9tDpTOy9pr2xjnHQnDaqQpvo5wEpmLovJG+ykwUhW8YFiS8m+VqMJbiHQs61S2/AX4OVCvTNALrxH0IZB4ajHcrbjdwCKppBCmnyBPI91GzjVRGAAMAc5XJqg+NRXdjgnWK3U3N5Ful01bPyK4nS+XnI9wQHL2HGhtV0W3qJmwn/x66aHAmdIMOSQKA4CrgZQqeNm4Iop3ceGfQceHnTT+WTr7vwxhJ76NtIzgz5jEOx/DDQ+qolsUzTopOB4odC6wlTRDjgj7AGB/gk5pEvGSGFWTZGMLC5nauY1BfbzGPwg6kuWiq4H3VMEvmx90CTTriR2HwimHSFOUANOlGXJEmAcASeB6hKfyK44tJdE/zP+KLFPal3TQ9BfZhT8AFxG0/s1FzcCFquCrVsNld6iiWxRdcgzUVEhTHAUcJM2QA8L8dvsRopvLAJKDE5Qf5sI/C9TOaVR2C38DuFkWPTPmAc+pgt/wILzxoSq6RU11Ci4/Tp7mGiDS+79hHQBsRjBjkul3aopYgVv+GbS90UHzM9LJ+TREx+0yqAuYogre3glT56miWxRNHg97aS+WGgWcKs2QZWEdAFxJcJezROl+RRR/pVAV3kKm9nerlbP/l4CwdMd/BOH96fc8DY+9qopuUROPwczJENPO0y4DBkkzZFEYBwBjANlp0FhhjKqT3PHPAq2vtNPyovSc2rkEs+uwOAuQ/Qv58W+hy82BrIfGjITjD5CmqCAYBERS2AYAcYJ2jbrCv6NLSQ70oX8L1P6uURn+SeABZQKBxcCvVMFfeAdu/YsqukXR9IlQqW3dMwnQXkeUJWEbAHwf4W9EclCCiiNc+GeB5mfaaH1dOvufpgwudDHBhUUSU+dCk/TAhUXJwCqYdpQ0RZzgxFnY3pcbFKapbj/gboRtGvufWUHBsKQqvIVJGlZeWU/nKtnq/J+AS1XBxZoIti0OVASvb4ZUMYwdpYhuUbTntjD/CVih6ycxGHgXeFGWIQvCNKK5HBigCl48upCSvV34Z4Gmx1tpe1tamB/2+8dnAm+rgl9xFyytVUW3qClIwKyT5WmuBCrlWfpQWFYAdgf+G9GAJZaEzS6uJF4RpvGQyXTBiivq6aqXVaPdh7C9bh/pJGgTfKQieFsHNLbAoXsoolsUDR8Ei96FxR/IUqQI+gLIrsnua2F448UIbmiSDVbKjywlOSQsYyFTa3yohfb3ZT1/04h7WPSh24EnVMFvXAivyBoQWxTNmATF2tY9ZwA7STP0oTAMAE4AxqqCJwbEqZyQN7c/2gakO6DuVul9PLcDi5QJ+lCaoDmQZKmkswvOmauIbFE1fCBMOVyaIkmw/RUJuT7trQDuAcpVCfqfUU7hNi78s8DqB5ppelhWgt5JcHnVClWCLPgnwYxIUrL35kew7/awTWRbsVimjRkJNz0Kdbpx/HCCYsC/yzL0kVxfAbgE2FwVvHjXAkrHFqnCW8ik29LU3y6d/c8hAl8a3TgbkI2azpoTrAaY9URJIUyXtYr7zLUIT6T1lVxeARgF/BbVMyag5oJKElW5PgayvtJwTzPNT8p6/rcBE4Ao1rbXErTm3lcR/ONaGLYZ7D5cEd2iaMeh8NhrsGSZLEUlwaD3MVmGPpDLb7/rEN7EVHFYCQVbeenfAunmNA13NytT/A/BOeKo+hnCrY3zboIG6W+PRc2sk4LjgULnAltJM4jl6grAMQhvHktUxRlwXiWxQt/2Z4H6O5ppflY2+28m2PvXtSnJvhaCGdE3FMEbW6AwCQdEpv7a1DarhOX18MybshQFwBBgviyDWC6uAJQCP1cmqDqpjHiZX/4W6FqdpuFe6d7/fwG608m545fAG6rg0++B96NUPmlylxwDNRXSFEcBB0kzCOXiAOACYJgqeNEOBZSNK1aFtxCqv6OJrkZZ05864CpV8BzTDpyjCt7cBhfeqopuUVSdgsuPk6e5BuF2tVKuDQBGAD+RRY9D9Wkp4V2CFjadq7pouF+6uTwDWKlMkGPuBR5SBZ/7MDwna0BsUTR5POy1rTTFKOBUaQaRXBsAXAvIzuWVf7OEwuEu/LN/qb+tiXSrbPa/kgg1DemFswguC8q4rjRMma2IbFEVj8HMyRDTTvwuA0LXrSKXBgCHA99UBY+Xx6g8LvTHNi2DOpZ3sfqPLcoUPwfqlQly1AvALargj7wCf/ibKrpF0ZiRcPwB0hQVBIOAUMmVxfAS4FVga1WCfqeXkzrEe//2L5/MbGD1AtkA4COCLS1pdWEOG0JQECgZdY8cAi9fKz/mZRHycS2MPE3aIbALGAM8I8uQYbmyAnAOwpd/4YgkqYP98rd/6fiwk9UPSWf/PyN/X/4QnHqQbX8s/gBujMydbNYXBlbBtKOkKeLA9eTOe3WDcmEFYCjwOqq2ijEY+IsqirYPZZGmiay4sp6mR2Xda/8BjETYHjckUsCbiPZGayrgzV9CpXf2rIfaO2GXM+Dv2kO53yNo+53zcmGkIu2pnDqo2C9/+4L2JR00PSZ9N1+MX/4Aqwn+XUgsr4cr7lJFtygqSMCsk+VpriRoFZzzsj0AOJCg+E8iXhqjcmKZKryFVO2cRtEFtkCw732TLHr4/Bp4RRX8mvvg7aWq6BZF43eFw/aSphhI0M8m52VzAFAIzFImqJxYRqI622McyyVtb3TQ/Iys5S/ANKBDmSBkOgluC5Ro64ALZOcNLKpmTIJi7cLwGQTXZOe0bL4df0qwTypRMCxJ+bdKVOEtpGpnS2f/LwNelP6yBwFZyd5tj8OTUbxk2WSGD4QpsrVnAJKEoAdItgYAQ4DzlQmqT03l7lVHlhWtr7TTskg6+z8XUQOcCPgJopWR9KfNgdK6gZ1F0HlHwrAaaYqvI9zizoRsDQCuJqgQligbV0TxLi78sy+qnduoDP8M8IAyQci9hrAy+qnFcPfTqugWRSWFMP0EeRppkfumysYAYH+Cq1El4iUxqibJxhYWUs3PtNH6SrsyxbkoNxei4XyEVyKfPQdapb/FFjUT9oNxO0tTDAXOlGbYBH09AEgSNEqQ9R+oOLaURH8X/tnnpKFunnT2/xDwZ2WCiPiYYPVP4p2P4YYHVdEtqmadJO8oeS6wlTTDRurrN+WPgF1UwZODE5Qf5sI/+6Kmx1tpe1tamB+KIz854irgPVXwy+bDStkag0XRjkPhlEOkKUqA6dIMG6kvBwCbARcpE/Q7NUWsIBeaG1rO6IK6m6Sz//uBp5QJIqYZuFAVfNVq+Nl8VXSLqkuOCTpLCh0FHCTNsBH6cgBwJVClCl66XxHFXylUhbeQanyohfb3O1Xh0whfZhE2D3hOFfz6B+CND1XRLYqqU3D5cfI01wA5VZ3eVwOAMYCs3jJWGKPqJHf8sy9Kd0DdrdL7eO4AFikTRFQXMEUVvL0Tps5TRbeomjwe9tpWmmIUcKo0Qy/1xQAgTtAQQVf4d3QpyYE+9G9f1PjHZjqWymb/ncAlquB54BGC7ROJe56Gx15VRbcoisdg5mSIaXeRL0N0OdbG6IsBwPcBWefl5KAEFUe48M++KN2Wpu4O6ex/DsEtlrbxzgJkB/d+/Fvo8sFM64UxI+H4A6QpKggGATlBPW3uB9yNsBFC/zMrKBiWVIW3kGq4t5nmJ2Rd/9qACUCtKkGeWElwcYpkgrB0FWw3GHYZpohuUbXvSLhxobSnxG7AHwHtpcQ9oF4B+E9ggCp48ehCSvZ24Z99Ubo5TcNdzcoUvwLeVSbIIxcDdargU+dCky9mtl4YWAXTjpKmiBP0w8l6wxrlCsBo4JeI/k/GkrDZxZXEK7L+79ByTP38ZuWNf80EnSx92jwzmgiKAg9UBK9vhlQxjB2liG5Rtee2MP8JWKH7Uz6YYBLxoixDD6jenjGCwj/ZAKP8yFKSQ1z4Z1/U1Zim4V7p3v8scmDpLmJmAm+rgl9xFyz1Zo31QkECZp0sT3MlUCnPsh6qN+iJwOmi2CQGxKmZWkEs6aY/9kV1NzfRski2ebeaYPYvHWHkoU5gGXCkInhbBzS2wKF7KKJbVA0fBIvehcW64X6KoC+A7KrsDVGsAFQAlwvifqb65BSxYr/87Yu66rpo+IN07/9qYLkyQR67HXhCFfzGhfCKrAGxRdWMSVCsbd1zBrCTNMN6KAYAlwKbC+ICULxrAaVji1ThLcTqbm0i3Sw797WSoJOXaaQJmgNJfgM7u+CcuYrIFmXDB8KUw6UpkmTxeyXTA4AdgR9mOOa/JKD6B77q176sY3kXqx9sUaa4EqhXJjCeBu5SBX/gOVjgvo3WS+cdCcNqpCnGA9phxjpkegAwC2Gv44rDSijYymf+7cvqb2kk3S6b/X9EcGzH9M4GZAf3zpoTrAaY9VRJIUyXNbL/zLUI++WsSyYHAMcC4zIY7wsSVXEqjnW/f/uyjg87Wf0n6ez/clz411feRTjYemkJzHlYFd2iasJ+MG5naYqhwJnSDN3IVCVdKUFb1KEZivcl/aeUU/a1YlV4C7EVV9bT9Khs0vgPYCTCWal9SRXwFtBfEXxgFbx5A5S7g7j1wqvvwe4/DS6bEmkmuDBoiSzDWjJ1DPAy4FsZivUlRTsUBHv/Lvy3tbT/o4NVN6xWpvgJwqtrrVstBAOuQxTBG1ugMAkHZK322sJos0pYXg/PvClLUQAMAebLMqwlE6/UEcArgKY0Pw6D/quawuHe+7cvW35pHc1Py7r+vUFQ2NqhSmDrVEDwvbKdInhJISy+HraUNSq3KFq1GkaeFgwEhA6mj3oDZKIG4L9QvfyB8m+W+OVv3Wp7s4Pmv8pe/gAX4Jd/trQD56iCN7fBRbepoltUVafg8uPkaa5BWEz/eZs6APgO8I1MPEh34uUxKo/r88JIC4na2Y2iU+MAvAzcKYtuPXEv8JAq+Jw/w3OyBsQWVZPHw17bSlOMAk6VZvjUpgwASoBfZOpBulN1YsqX/Vi3Wl9pp+UF6ez/PIJLaiy7zkL0+9CVhimzFZEtyuIxmDkZYtqatMuAQdIMbNoA4Bxg60w9yNoKRyRJHeyqf+te7dxGZfhngf9VJrAeewG4RRX8kVfgD39TRbeoGjMSjj9AmqKCYBAgtbEDgKEEI3ONGFT/0FX/1r3mZ9tofUV24Q/AVJSbC9ZbUxH2YZgyW3q0yyJq+kSo1O5QTwL2UibY2GOAcwBZW4TUwcWUH+pDutaNNKy8sp7OT2Sr848BF6mC20ZpAMqAsYrgKxtgUFVwB7xZT6WKIZmAhS/KUsSA3YHfIJqQbMwKwIHAYZl+kDXipTEqJ7rjn3Wv6fFW2t6SFuZPVQa3jXYFsFQV/OLboM69Hq2Xzvg2bD9EmmIP4HhV8N4OAAoJ+v3LVE4sI1Htwj/rRhfU3STd+/8D8JQygW201cDFquDL6+EK2TVEFlUFCZh1sjzNlUClInBv37RnErRFlSgYlqT8W176t+41/rmF9vdlm7Vp4EJVcMuIXxM0B5K45j54W7bGYFE1flc4TLpTz0CCniQZ15sBwBYER6Nkqk9NZa45sUVKugPqbpGu0d5BUHFuuauT4LZAibYOuEB23sCibMYkKNa27jkDyHjz6t68bn8FjM70A6xRNq6Iin930x/rXuODzTQ+LLuPpxM4GlihSmAZ8xawL7CNIvir78OBu7pFsPVOdQpa2+Gx12Qp4gRtsedlOmhPjAUmZDLxFx6iJEbVpJQqvIVcui1N3e3S2f9cgtssLRx+gqhFc/rT5kBpHwK1XjrvSBhWI00xHjg8kwF7MgBIAtchPJVfcWwpif4u/LPuNfyhhc4VsmN/7cDPVMFN4jWCo8gSTy2Gu59WRbeoKimE6SfI01wLZGypvCdv3f8H7JKphGtLDk5QfpgL/6x76eY0DXdKZ/+/At5RJjCJ8wn6A0icPSdY0jXrjQn7wThZhxwgaMJ3ZqaCbagGYCDB3cSynrwDzq6gYAvf9mfdq7+zmeZnZD3/Wwi2tmQvEpNpJLgxbZwi+KpG6JcKWr6a9cYe28CNC4O7JkT2AW4Gajc10IZWAK4EqjY1ybqU7ldE8VcKVeEt5Loa0zTcI539zwI+UCYwqauA91XBL5sfdAk0640dh8Iph0hTlADTMxFofSsAY4D/QrT3HyuMUXNRBfGU9/6te3W3NNHygmwddjVwDMFM0sKpA1hFhguj1mhpC44GHrK7IrpF2T7bwW8fgibZwSV2JGhatkkXWq/r7RsDZqIs/Du6lORAH/q37nXWdtFwX7MyxS+AZcoE1ifmIuzfcMOD8OZHqugWVdUpuPw4eZpfEBTpb7R1DQAmILyFKDkoQcURLvyzdau/vYl0i2wTbRXBANfCrwv4qSp4WwdMnauKblE2eTzspb1gaifgh5sSoLsBQBLxsajqH6SIFfquX+tex/IuVj/QokzxczJQQGM54xHgflXwu5+Gv+gavFhExWMwczLEtK+6S4CN7j7Q3QBgAjBiox9nA4pHF1Kytwv/bN3qb2kk3S6b/X9E0NfCouUsgp4OEmf8RlrVbRE1ZiQcf4A0RRXwnxv7D3c3ADhj459l/WJJ6HeqO/7ZunV82MnqP0ln/5cDvvg1ehYT9HSQeOEduPUvqugWZdMnQqW2y/0kNnLLfu0BwP4bG6gnyo8oJTnEhX+2bnU3NQad+TX+QXCjnEXTJUCdKvh5N0GzrCWFRdXAKph2lDRFnKBDYK83G9YeAJyYkcfpRmJAnMqjfdmPrVv7PzpofFR3bobgBSFNYFm1nE1YDt2Q95bDTFmlgUXZGd+G7YdIU+wDTOztP/T5AUAJcETGHmct1SeniBW78M/WrXZOE+j2Wd8kwzdpWU6aySaejV6fK+6CpS4ftV4qSMCsk+VprgQqe/MPfH4AcGhv/+GeKt6tkNKxRYrQFhFtizto/qt0cn4hohvkLKe0AdNUwRua4ZLbVNEtysbvCofJNtiBoHX/Bb35Bz4/APh2Zp/lUwmo/n6ZJLRFR+3cRuXs/2XgDll0yzW3A0+ogt+4EF55TxXdomzGJCgukKY4g6A/QI+sGQAkgG8onqb8/yuhYCtf9mPr1vpyOy0vSKurphE0jLH8kAbOQTSk7OyCc9wcyDbC8IEwRdK4+jNJgg6BPbJmAPAVYECmnyRWFKPiKBf+2frVzpG24/8rcJ8ygeWkJ4C7VMEfeA7+9KIqukXZuUfAlhl/237BQfTwfow1A4CxiqdIfaOYRJUv+7F1a362jdbXpBevn68MbjntbISnPs6cHawGmPVGaRFc/T15mmuBDc6+17yd98t4+gRUHOHZv61HGurmSWf/DwMPKRNYTnsXuF4V/KUlMOdhVXSLsgn7wbidpSmGAmdu6G9aMwDYJ9PZi3csINHfs39bt6YnW2l7S1qYL6sGt9D4GbBSFfyCW6BR2rjSourayZDU9sWbSjAQWKc4wd7/5pnOXDLGx/5sPbrks/8/AE8qE1gorAIuUwX/8BO46l5VdIuynYfBqYdIU5QCV6/vb4gDkoUIX/hj69P4cAvt78l6/qYJzv2bAdwAvKEKPv0eeH+FKrpF2SXHQE2FNMVRBEWB3YoDO2Q6Y3JgguQg9/y37qU7oO5m6X08dwIvKBNYqLQTLIdKNLfBRW4OZBuhOgWXHydP8wuC44FfEge2ynS2whE+92/r1rigmY6lstl/J3CRKriF1j3An1XB5/wZnpM1ILYomzwe9tpWmmIn4Hvd/Q9xNlAksDEKtvYAwLqXbktTd5t09j8PeF2ZwEJrCqKGUF1pOGuOIrJFXTwGMydDTHtVziV0cywwDmyR6UyFW3v537q3+n9b6FwhOzzdBlyqCm6h9wJwiyr4wy/DH/6mim5RNmYkHH+ANMVg4EvXEcWBfpnOlOjvAYB9Wbo5Tf186ez/1wRnv83WZSpH26VUAAAc30lEQVQg+yGcMhvaZbtbFmXTJ0KltnXOjwna/n8mjuAGwHilr/21L6u/t5nOWtnsvxm4XBXcIuMDgiuDJRZ/ADcuUEW3KBtYBdOOkqbYirVaBEsGAIlKNwCyL+panabhbuns/3rgQ2UCi4yfAx+rgl98G9RJf9Qtqk4/FLYfIk1x0ud/EQcyejlhLAmxYq8A2BfV39lEV6Psvt8G4EpVcIucBoQnRZbXwxWya4gsygqTQUGg0Hhg0JpfxFlrT8As0zpru2i4r1mZ4hrArVisN34DvKoKfu398I/lqugWZQfvDoftJQufBI5e84s4/7oPICPSLoCxtdTf3kS6RTb7/wSYoQpukdUBnKUK3tIO585TRbeomzEJijO6Nv8Fh635D3GCo1OZk/70YwZ0ruxi9YPS21KuBOqUCSyyHgRkJXu3PQ5P/l0V3aJs+ECYcviG/76NtD+f1v7FCfbDMqpLN9uzkKm7uZF0m+znYSlwnSq45YWzCLpHZlw6DefMVUS2fHDuEcHJAIEC4GsQDAAyfiWbsNGLhUjHh500/kk6+78c4ZluywsvAbNVwR9/He56ShXdoqy0CM44VBZ+LAQDgIwXT3UudyGAQd1NjaQ7ZOHfA26URbd8cj6CldA1zp4Dre2q6BZlp30DqsokofeBoCLwQ+ArmYzcsdwrAPmu/R8dND7aqkwxFJAuL5hlwjsfQ/GEbD+F2ReMBgrjCJqntL+jm/ZZONTObXIxqJlZbioCto0D/8h05NZXvd6Vz9re6KD5aens38zMNs0OcQRXp7a926Hs+mY5rnZuo2f/Zma5bYc48FrGw6ahZVFm2wtYOLS+0k7L8/69NzPLccPiwDsIjgKu/qPrs/JR7ZyM/yiZmVnmbR4naIn5bKYjtzzfRscyHwfMJ81/a3P9h5lZOGy+5h6AzLeqSMPq//UqQN5IQ91cz/7NzEKi35oBwGOK6A1/aKar3j0B8kHTk620veXjn2ZmIVG2ZgDwCIKWqunmNPV3S6+BtVyQhrpb3JHXzCxEStcMAFqAPysyNNzvVYCoa3y4hfZ3Pfs3MwuRovjnfnGPIoNXAaIt3QF1N3v2b2YWMh2fHwDciehmtYb7mumq8ypAFDUuaKHjI5/2MDMLmfbPDwDqgd8rsqRb0tTf41WAqEm3pam7zZX/ZmYh1BZf67/4pSqTVwGiZ/X/ttC5wr+nZmYhtGrtAcBfgKcVmbwKEC3p5jT18733b2YWUivXHgAAXK3K5hMB0dHw+2Y6a/17aWYWUt0OAO4BXlZk84mAaOhqTFN/t2f/ZmYh9n53A4Au4HJVRtcChF/9/Ca6Vvu+XzOzEHu7uwEAwHxUqwCuBQi1rrouVt/v3z8zs5B7O7mO/6EL+BlwuyJrw/3NVPx7CfGKdY0/LFfV3d5EV7No9h9PQlG5JraZWRh1tEK7ZMv19dh6/sc4sAjYWZG5YkIpVd8rU4Q2kc6VXXw4+RPSbaIBwMFXwtizNbHNzMJo/n/Ai7dkOupqoHJ9U/A1qwASPhEQPnW3NOpe/qlBsM+PNLHNzMKoaQW8erci8iKga0Nr8HcCryiy+0RAuHR82EnjwhZdggPOg4JSXXwzs7B5YgZ0SL53n4JgmX99tKsAPhEQGnU3N5JWXfhXNRT2+L4ouJlZCK3+GJ6+ThV9IWx4AAA+EZD32v/RQeMjrboE4y6CZJEuvplZ2Cw8D1obFJFbgMehZwMA1wLkubp5TaA69j9gO9h9oii4mVkILX0Rnp+tiv5noBl6NgCAoBbA3QHzUNtbHTQ9JZz9f+2S4PifmZkF/ngWpGUT48+O9/d0AODugHmqdnajbvY/cGfYeYIouJlZCP39PnhroSp6K/D7Nb/oTSce1wLkmdZX22l5vk2X4MDLIeZmUGZmAHR1wIJzlRnuBurW/KI3375eBcgztXMbdcGH7AkjD9XFNzMLm7/eAMteU2a4/vO/6O30az6qvgBeBcgpLc+10fpyuy7BQf8JsfU1ojQzyyPNq/j/27v76KjqO4/j70l4CI8CClTRqlWoUhUoaK0WRAFL26226mq3au3DaXva2kJdUwEXlcJKWVy3hypd3bP0YBS0BVEKNJJygiWilELAozxUihKJEISQSWYmk0lm7v5x1wcQgUzud+69M5/XOZ4cJfP9/jxMcr+/7/weqPylZYYtwEsf/g/tLQB0LkAhcKDhScPZ/zmj4bzxdvFFRMJm7SxIHLLM8JFndzYfwGotQJ5LrG8htdPq1B9gvFkNKSISPvW7YcOjJ/6+7L0GLDv6P2ZTAOhcgHzmQPRJk5unXJ/+Cpwzxi6+iEjYlJe6t/7ZmYr77D5CtkuwdS5AnopXJmndYzT7j0Rg/Eyb2CIiYVSzHrZ/ZHLupUpgxbH+INsCQDsC8pDTBtGnDGf/n7kJTh9hF19EJEwcB1ZOdr/ayAB3f9wfdmQTttYC5Jl4RZK2fWmb4EXFMG6GTWwRkTDaUga1Gy0zLAA2f9wfdqQAUBcgjzgph+jThiv/h90G/S+0iy8iEiatzbBmumWGGHDf8b6ho8ewqQuQJ2Irk6TfNSq4ijvD1cd9H4qIFJaqudBQY5lhDrDveN/Q0QJAXYA84CQdGv9g+Nn/qO9Dv0/ZxRcRCZNYHVQ9ZJmhFnj4RN/kxUHs6gKEXNNzzaQbjAqtTiVwlenZ1iIi4VIxDVqaLDNMAU44q/OiAFAXIMQycYfGZYaz/8vvhN5n2sUXEQmT/VuheqFlhmpg0cl8o1cXsf8BuBe42KN473uvC9Dn2z28Di1A45IEmSajLShdesLoUpvYYi/ZAG+/Ak37IHbA79HIsXQ/FXqdDmd9Drqflru86VbYuwEOvwXxA+6/f1inrtDzE3DaYHfrr279/EB5KWSMdlu5JnGMQ3+OxasC4L0uwNMexTtC0/Jmen+9G0Wn6E3kpUxjhthyw49YrrwLegywiy823lwLL86GNys/+otdgqmoGD55JYz+hXvappWGPVA5E7Y9615eczJ6nQ7Db4PR97gFSyHbsRx2VVhmWAKsO9lv9vI6tiLc24Y87wIA9L65u7oAHjv8eIym54wKgJI+8K+7oVtfm/jivZZGWPod95e7hNd54+Hmp7wtvh0H/vIrqJyR/ZG1JX3gq4/AsFu9G1eYZNrgkWGW1/2mgIuAN072BV5OqbUWIETShzLEViXtEoyZood/mDTWwmOf18M/H/zjz/Dby+Dg372Jl0nDktvchWsdOa8+2QB/uA3WFOiW4A3zLR/+APNox8MfoNjjAWwHbgAGehwX2oDiCCXDu3geuhA1/G/M7sa/Hv3dGUix/q5CobUZnvgS7Nvi90jEK8ko/H2VO9vu3L1jscpLYePj3owL4K2/uOsDBo3yLmbQJRtg8U3Qarbguh64GWhXS9frD9XVBQiBtro08QrD2f/V090FgBIOFffC3r/6PQrxWv1uWPXzjsXYtRpeOuF28vZbOQkOtWuyGm6VMyFx0DLD/bhFQLtYrKrTuQABFy1L4BhN/unzSRj1A6Pg4rnDb8Jf5/s9CrGydRHsq87utU4GXrjH2/G8J51yC89CUL8bNjxqmWEn8Fg2L7QoANQFCLDWPW3E11rO/u9ztwBJOGxaYH0PufjJyWTfvn/7FduPhV5f6p6Il+/KS61/xu4GstquY7WvTl2AgIqWJU5yh2gWTh0MI+4wCi4mdiz3ewRibfvy7K6btX5vOBl3nUI+q1kP25dZZqgEVmT7YqsCQF2AAErtaiPxsmElOm4GFHl1tISYy6ThwOt+j0KsNb2T3efP+7Z6P5aj7X/VPodfHAdWTs6u+Do5GdzZf9YsT9ZRFyBgGhbGweq9OPAiuPgWo+BiIn7A+kQyCYqmd7J4zXEvkvNGNuMKiy1lULvRMsMCYHNHAlgWAOoCBEjL660kN6XsEkz4dx33GTYRL88Bk0DL5mczJz/PefoebG2GNdMtM8SADh+oYP03rC5AQETL4nbBB42CT3/VLr7Y6DFAH9kUil5nZPGa070fx9F6D7LP4YequdBQY5lhDtDhFo11AaAuQAAkN6VIvmp4pvu1szWbDKNIEQw0OblbguSUs6Bbv/a/7vTh3o/laJ8YZp8j12J1UPWQZYZawJPDGXLR41EXwGcNTxpe93vOaPfscQmnC6/3ewRi7cLrsyvQrd8bRcXw6S/b5vBDxTRoabLMMAXw5Jd6LgoAdQF8lFjfQmqn4ex//Cy72GJv5HehU4nfoxArRcVw6Q+ze+2gS91/rFz8jdxeYZwL+7dC9ULLDNXAIq+C5WrVlroAfnCgcZHh7H/Il+GcMXbxxd4pZ8EVk/wehVgZcYe7QycbkQhM/A+bj/c6leTn5KG81HpnzSQ8PMklVwWAugA+iK9tIbXb6MzfSATGPWATW3Jr3C9VyOWj/hfAlzr4UfG5Y2HMVE+Gc4SvPgJ9z/E+rp92LIddFZYZlgDrvAyYy31b6gLkUhoaFxuu/B96o217UHKnuAt84/e5WfQluXHqYLh9JZSc0vFY42fCyO91PA64E4cJD3oXLygybbDaoFD6QAqY5nVQr68DPh4H97aimyyCp/7RRq+JJURKtBodIPZCkvifjc78Lyp2Hxg9+tvEl9zr0hOG3w7RGqgzqdMlVy64Dr61EnpnsfXvWCIRuPA66NYX9qyDdJZrinr0h5uegEvz8LKwVx5xD/6x81/A014HzWUBALAduAEY6HnkNqA4Qslw3UHvpBwOzm7ESRgd+zf89vz8IS50xV1g6A0wZCLED0J0jzuzkeAr7gLnT4CvPQ5XTYXO3bzPcdbl8NnvuDf5NdRAKnZyr+v3Kfj8z+CWxfnZZUo2wOKboNVsvVU9cDPgeZvbj+nyLRhUMgCRkgiDftePolMK+0S6pueaOfz4Sf5wtldxZ5i0HfqdZxNfgqM1AbV/g+jb7t7mbGd+YqOoE/QcAL3PhEEjoWvv3OV2Mu5NgQ17oHEvpI56+JX0dg/56Xc+DBiau3H54U//Ci95si3/4/wUeMQisB8FQBGwBTA5gaT3zd3p8+0eFqFDwUk6vPPdetINRosiL/sRXKf740VEqN8N84ZaXve7E/dZaVJ9+zFV1o4AQ03PN9s9/DuVwFjP16GIiIRTeanlwx/c2/7MWm9+9cq1I8BAJu7Q+Kzhvv/Lf+K2G0VECl3Neti+zDJDJbDCMoFfBYBtF+CPhdkFaFyaINNktPCvS08Y/Qub2CIiYeI4sHKy+9VGBnf2b8rP1XJ2XYBmh8bnCqsLkGnMEHve8P/5yp+7t8eJiBS6LWVQu9EywwJgs2UC8LcA0FoAD0WfSZBpNqpGS/rAFT+3iS0iEiatzbBmumWGGHCfZYL3+L1fTl0AD6QPZYitNDr0B2DMPe4hICIiha5qrnsOgp05wD7LBO/xuwBQF8AD0cVxnJTR7L9Hf/jcT2xii4iESawOqh6yzFALmB4q8GF+FwCgLkCHtNWlia82nP2P/Tfo2ssuvohIWFRMg5YmywxTAMOtXEcKQgGgLkAHRMsSOFantfb5ZPZ3iYuI5JP9W6F6oWWGamCRZYKjBaEAAHUBstK6N018reXsfzp06moXX0QkLMpLIZO2zDAJd0KcM0EpANQFyEJ0Ydzu7XLqYBhxh1FwEZEQ2bEcdlVYZlgCrLNMcCxBKQBAXYB2Se1qI7He8AjKcTPci39ERApZpg1WT7XMkAJ8OWM9SAWAugDt0LAwDlaHUA28CC6+xSi4iEiIbJgPB7ZZZpgHvGGZ4OMEqQAAdQFOSsu2VpKbUnYJxs+CSNDeGiIiOZZsgMqZlhnqgdmWCY4naL/l1QU4CdEn4nbBB42CC66ziy8iEhaVMyFx0DLD/bhFgC+CVgCAugDHldycIvmq2e2QMOFBiETs4ouIhEH9btjwqGWGncBjlglOJIgFgLoAx9FQZnhGxNlfgPMn2MUXEQmL8lJoM1xo7d72ZzibO7EgFgCgLsAxNb/cQmqn4ftl/Cy72CIiYVGzHrYvs8xQCaywTHAygloAqAtwNAeiTxnO/od8Cc69yi6+iEgYOA6snOx+tZHBnf37LqgFAKgLcIT42hZSu43O/I1E4JoHbGKLiITJljKo3WiZYQGw2TLByQpyAaAuwHsy0LjYcOX/0BvgzMvs4ouIhEFrM6yZbpkhBtxnmaA9glwAgLoAAMRWJ2nda3QGdVExjPulTWwRkTCpmgsNNZYZ5gD7LBO0R9ALgILvAjitDlHL2f+wW2HAULv4IiJhEKuDqocsM9QCD1smaK+gFwBQ4F2A2Kok6XeNipTiznB1YLpRIiL+qZgGLU2WGaYAhiu52y8MBUDBdgGcpEPjM4bvl5Hfg37n2cUXEQmD/VuheqFlhmpgkWWCbIShAIAC7QI0LW8m3WBUnHQqgbH32sQWEQmT8lLIGK2zck3C7vL2rIWlACi4LkAm7tC41HD2/7kfQ+8z7eKLiITBjuWwq8IywxJgnWWCbIWlAIAC6wI0LU2QaTI6iKJLTxhzj01sEZGwyLTB6qmWGVLANMsEHRGmAqBgugCZxgxNzxsWJFdMhh4D7OKLiITBhvlwYJtlhnnAG5YJOiJMBQAUSBcg+kyCTLPR7L+kD1x5l01sEZGwSDa41/3aqQdmWyboqLAVAHnfBUgfyhBblbRLMPoX0K2vXXwRkTConAmJg5YZ7sctAgIrbAUA5HkXILo4jtNiNPvv0R8uv9MmtohIWNTvhg2PWmbYCTxmmcALYSwA8rYL0FaXJr7acPY/9l7o2ssuvohIGJSXQluLZYa7AcO7270RxgIA8rQLEC1L4Bhd+EfvQTDqB0bBRURComY9bF9mmaESWGGZwCthLQDyrgvQujdN/EXD2f81D0DnbnbxRUSCznFg5WT3q40M7uw/FMJaAECedQGiC+NgdRDVqefDiDuMgouIhMSWMqjdaJlhAbDZMoGXwlwA5E0XILWrjcR6w8+jrpnhXvwjIlKoWpthzXTLDDEgVLerhbkAgDzpAkSfiINVR2rAZ+CSbxgFFxEJiaq50FBjmWEOsM8ygdfCXgCEvgvQsq2V5r+l7BJMmAWRsP81i4h0QKwOqh6yzFALPGyZwEI+PBlC3QWIPhG3C37GSLjgerv4IiJhUDENWposM0wBDG9vs5EPBUBouwDJ6hTJVw23il77IEQidvFFRIJu/1aoXmiZoRpYZJnASj4UABDSLkC0zLBgPPsLcP61dvFFRMKgvBQyVlusAJiEOxENnXwpAELXBWh+uYWWHYaz//Gz7GKLiITBjuWwq8IywxJgnWUCS/lSAECYugAORJ8ynP0PngjnXmUXX0Qk6DJtsHqqZYYUMM0ygbV8KgBC0wWIv9hCarfRmb+RCIybYRNbRCQsNsyHA9ssM8wD3rBMYC2fCgAIQxcgA42LDFf+D70BzrzMLr6ISNAlG9zrfu3UA7MtE+RCvhUAge8CxCqStO41WpASKYKrQ3UQlYiI9ypnQuKgZYb7cYuAUMu3AgAC3AVw2qDxGcPP/ofdCp+4xC6+iEjQ1e+GDY9aZtgJPGaZIFfysQAIbBcgtrKZtv1Gs//iznDN/TaxRUTCorwU2gzvVnFv+zPcwpU7+VgAQAC7AE7SofH3hrP/z34X+p1nF19EJOhq1sP2ZZYZKoEVlglyKV8LgMB1AZqWN5M+bHRWRKcSGHuvTWwRkTBwHFg52f1qI4M7+88b+VoAQIC6AJm4Q+NSw9n/ZT+CU86yiy8iEnRbyqB2o2WGBcBmywS5ls8FQGC6AE3PJsg0GVWlXXrAmHtsYouIhEFrM6yZbpkhBuTdFqt8LgAgAF2ATGOGpucNbxS8YjL0HGgXX0Qk6KrmQkONZYY5wD7LBH7I9wLA9y5A9JkEmYTR7L+kD1x5l01sEZEwiNVB1UOWGWqBhy0T+CXfCwDwsQuQrs8QW5W0SO0aXQrd+tnFFxEJuopp0NJkmWEKYLiIyz+FUAD41gWILkrgtBjN/rufBpf/1Ca2iEgY7N8K1QstM1QDiywT+KkQCgDwoQvQVpcmvtrws/+x90LXXnbxRUSCrrwUMkaHq7km4U4i81KhFAA57wJEn0zgGF34R68z4NIfGgUXEQmBHcthV4VlhiXAOssEfiuUAgBy2AVoq00TX2v42f+4B6BzN7v4IiJBlmmD1VMtM6SAaZYJgqCQCoCcdQEaFsbBqivV91wYcYdRcBGRENgwHw5ss8wwD3jDMkEQFPs9gBzbDtwEDPA8chtQHKGoVxGHH495Hv59//QbOGOEXXwRkSBLNsDiG93Df2wcBP4ZMGzjBkMhdQDA7QLMtAre9MdmDv93DKyOoh7wGRj2TaPgIiIhsOouSByyzDADaLBMEBQRvwfggyJgC3Cx3wNpt28+C0O/7vcoRET8sf15eOprlhl24j4b8uK63xMptA4AGK8FMDNoFFxo+sYXEQmuhhp47vvWWe6mQB7+UJgFABjuCDAzfhZECrFhIyIFL/4uLPyi+9VOJbDCMkHQFGoBEK4uwNlXwuAv+j0KEZHcS0Zh4UR4d4dllgzu7L+gFGoBAGHqAoyf5fcIRERyr343/M8X4J3N1pkWAOZJgqaQC4BwdAEGfxHOHev3KEREcmtPFTz2eah7zTpTDLjPOkkQFXIBAG4X4HW/B/GxIhHN/kWksGTa4MUHYcE1ED+Qi4xzgH25SBQ0WlUGtwBP+z2IYxp6A3xzqd+jEBHJjbrX4NnvQO3fcpWxFhhCnl73eyIqANwuSDVwid8DOUKkCO7cCgMv8nskIiK24u/CX34Fr/wG0jndhXc78GQuEwZJJ78HEAAZoBR4we+BHOGSf9HDX0TyW3M9VP0nvDwPUoZHqB/by8BTuU4aJOoAfOBPwES/BwFAcWf42TY49Xy/RyIi4i3HgbdehE0L4PUllmf6H08rMJKw7AQzog7AB34CvAr08HsgDPkK9Dnb71GIiHgjVgdvroU3X4RdL7jb+/z1MAX+8Ad1AI42Cfi134MAoLgLnDYEup8G3fpCkWo1EQmRxEGIHXAf/omDfo/mwzYBVwItfg/EbyoAjlQElAMT/B6IiIh4rgm39f+G3wMJgkI/B+BoGeBWYK/fAxEREU9lgG+jh//7VAB81LvAzUDS74GIiIhnpgDP+j2IIFEBcGwvA9/CrRhFRCTc5gNz/R5E0BT7PYAA2wZECcrWQBERycbvgB8Bjt8DCRoVAMe3AfejgPF+D0RERNqtDPge6uYekwqAE3sJ95xo7QwQEQmPXwM/Rg//j6UC4OSsx90Z8GW0bkJEJMgywD24V/yq7X8cOgegfSYCvwd6+T0QERH5iChwG7DC74GEgQqA9hsKLAEu9HsgIiLyvteAG4G/+z2QsFA7u/22AZcBT/s9EBERwQF+g/t7WQ//dlAHoGNuB+YBffweiIhIAXob+D5Bu849JNQB6Jgy4GJgld8DEREpIGncVf5D0cM/a+oAeOd63CsmP+X3QERE8tgaoBSo9nsgYacCwFslwGTcN2c/n8ciIpJPtuKe51/u90DyhQoAG71xC4HJQF+fxyIiEmbrgdnASrSv31MqAGz1xF0oeCfuZ1UiInJiSdzt1r/FLQDEgAqA3IgAY3APqLgRdQVERI6Wwb2J9RlgEXDI3+HkPxUAudcV93KhicC1wBB/hyMi4psosBaoAJ7HPXJdckQFgP/OAi4FRgLDgXOBc4BuPo5JRMRLaaAWeAt4HXcF/ybchX1p/4ZV2FQABFff//+nG+7uAhGRMMngzvATwEGgzd/hiIiIiIiIiIiIiIiIiIiIiIiIiIiIiIiIiIiIiIiIiIiIiIiIiIiIiIiIiIiIiIiIiIiIiIiIiIiIiIiIiIiIiIiIiIiIiIiIiIiIiIiIiIiIiIiIiIiIiIiIiIiIiIhImPwfI+mDQ+nIzqkAAAAASUVORK5CYII=;" parent="1" vertex="1">
          <mxGeometry x="321.29" y="2288" width="55" height="55" as="geometry" />
        </mxCell>
        <mxCell id="bameNsq92qCA9drPWQOE-44" value="G-DRIVE" style="text;html=1;align=center;verticalAlign=middle;resizable=0;points=[];autosize=1;" parent="1" vertex="1">
          <mxGeometry x="314.7999999999999" y="2332.7400000000002" width="70" height="30" as="geometry" />
        </mxCell>
        <mxCell id="bameNsq92qCA9drPWQOE-47" value="" style="edgeStyle=orthogonalEdgeStyle;rounded=0;orthogonalLoop=1;jettySize=auto;html=1;entryX=0;entryY=0.5;entryDx=0;entryDy=0;endArrow=none;endFill=0;" parent="1" source="bameNsq92qCA9drPWQOE-53" target="bameNsq92qCA9drPWQOE-46" edge="1">
          <mxGeometry relative="1" as="geometry">
            <mxPoint x="442.11" y="2377" as="sourcePoint" />
            <mxPoint x="740.11" y="2325" as="targetPoint" />
            <Array as="points">
              <mxPoint x="395.11" y="2315" />
              <mxPoint x="395.11" y="2315" />
            </Array>
          </mxGeometry>
        </mxCell>
        <mxCell id="bameNsq92qCA9drPWQOE-46" value="" style="shape=image;verticalLabelPosition=bottom;labelBackgroundColor=default;verticalAlign=top;aspect=fixed;imageAspect=0;image=https://cdn-icons-png.flaticon.com/128/1822/1822899.png;" parent="1" vertex="1">
          <mxGeometry x="443.84000000000003" y="2284.5" width="62" height="62" as="geometry" />
        </mxCell>
        <mxCell id="bameNsq92qCA9drPWQOE-49" value="&lt;font style=&quot;font-size: 18px;&quot;&gt;POC-BNS-eSAJ&lt;/font&gt;" style="text;html=1;align=center;verticalAlign=middle;whiteSpace=wrap;rounded=0;fillColor=#f8cecc;strokeColor=#b85450;fillStyle=solid;" parent="1" vertex="1">
          <mxGeometry x="754.36" y="2050" width="171.5" height="40" as="geometry" />
        </mxCell>
        <mxCell id="bameNsq92qCA9drPWQOE-53" value="" style="outlineConnect=0;fontColor=#232F3E;gradientColor=none;fillColor=#232F3E;strokeColor=none;dashed=0;verticalLabelPosition=bottom;verticalAlign=top;align=center;html=1;fontSize=12;fontStyle=0;aspect=fixed;pointerEvents=1;shape=mxgraph.aws4.traditional_server;" parent="1" vertex="1">
          <mxGeometry x="310.04" y="2222.5" width="80.43" height="139.42" as="geometry" />
        </mxCell>
        <mxCell id="bameNsq92qCA9drPWQOE-54" value="" style="shape=image;html=1;verticalAlign=top;verticalLabelPosition=bottom;labelBackgroundColor=#ffffff;imageAspect=0;aspect=fixed;image=https://cdn4.iconfinder.com/data/icons/ionicons/512/icon-social-github-128.png;shadow=1;textShadow=1;" parent="1" vertex="1">
          <mxGeometry x="877.27" y="2394.12" width="62" height="62" as="geometry" />
        </mxCell>
        <mxCell id="bameNsq92qCA9drPWQOE-55" value="" style="shape=image;verticalLabelPosition=bottom;verticalAlign=top;imageAspect=0;aspect=fixed;image=data:image/png,iVBORw0KGgoAAAANSUhEUgAAAeAAAADwCAMAAADvq0eIAAADAFBMVEVHcEyAgP9cTeZcTuRbT+VcTuVcTuVcTeVcTuZJSfpcTuVcTuZdTuVbTOdcTuVbTeVaUOZcTuZdTuZcTuVbTuVcTuVcTuZeTudcTuVcTuVaS+JcTuVcT+RdTeZcTuRbT+RcUOlcTeVWVNRcTuVdTuRbTuVcTudcTuZcTuVbTuZcT+VcTukAAP9dTeZbTeRdTeRcTuZdTuRcT+VcTuUAACdcTuVCQrRAQLJBQbNbTuVJSbY/P7I/P7JAQLJBQbI/P7NAQLNAQLJBQbNAQLM/P7JFRbRAQLE/P7JcTuVBQbM/P7JAQLRAQLJAQK9BQbJAQLJAQLI/P7M/P7I/P7NAQLNCQrU/P7JAQLNAQLFBQbRAQLI7O7FCQrBdTeVGRq5dUeZcTuVdT+VcTuVcTuVcTeUAAAAAAAAAAAAAAAAAAAAAAAAAAAAAAABcTuU/P7EAAAAAAAAAAAAAAAAAAAAAAAAAAAAAAABdTuYAAAAAAAAAAAAAAAAAAAAAAAAAAAAAAAAAAAAAAAAAAABbT+YAAAAAAAAAAABbT+RcTuUAAABcTuUAAABYUeIAAAAAAAAAAAAAAAAAAAAAAAAAAAAAAAAAAABcTuVcTeYAAAAAAAAAAABSUrhcTuYAAAAAAAAAAAAAAAAAAABcTeZcTuUAAAAAAAAAAABbT+RcTuUAAAAAAAAAAAAAAAAAAAAAAAAAAAAAAAAAAAAAAAAAAAAAAAAAAAAAAAAAAAAAAAAAAAAAAAAAAAAAAAAAAAAAAAAAAAAAAAAAAAAAAAAAAAAAAAAAAAAAAAAAAAAAAAAAAAAAAAAAAAAAAAAAAAAAAAAAAAAAAAAAAAAAAAAAAAAAAAAAAAAAAAAAAAAAAAAAAAAAAAAAAAAAAAAAAAAAAAAAAABcTuYAAAAAAAAAAAAAAAAAAAAAAAAAAAAAAAAAAAAAAAAAAABAQLMAAAA/P7M/P7I/P7EAAABcT+RBQbRAQLI/P7JAQLJAQK9AQLBAQLFAQLJFRbFbTeVZTeZaUOZcTeaI5NjtAAABAHRSTlMAAnqZE3//7m8D1UezIvmRDuVmzTr+qh/0gAjiXr8tohZ3BthKuyr67D2ICwHJOBnbVbz4AsUjs0rfDpH5/2bmPcweq/4JgPf8XuIvwBiid+9N2iq7E5n7b0fVDTpjFim4Td7yQy1EUVVBMCEEpEG07//4y5lmATRJ4uozOoD+xo9lpR0W9oNA0V7oPBEe/cGLiZG76RwmtRNvfAXwf6LsUI0xwifUJDbHVoaft5V0RQkQC1wONnKqbJRnBhUNsd3JnGGBxK53zsBYAytqp9oYuebyTlv7r/BA0Qd65CkSY9LXrSj0moe9R6l4TDToxd9V1tMb0OmIEES48hptKDOOd3KSpgAADCpJREFUeAHs2YVxRAEAAlFinLvL17hb/72lihizr4UdBf00AAAAAAAAAAAAAAAAAAAAAAAAAAAAAABwIkQ7PTtXMFy40+0JwYHt/kBIDmwPR0JyYI8nUwUjsD2bnygYge3FUkgO7NV6o2AEtre7vYIR2D4clYzAdlEqGYG9qmoFI7DdaVohOLB9eSUkB7avb4TkwL5lvcwObN9xJGYHthf3QnJge7gRkgN7+/AoBAe2Z8cnITiw/fwiJAf2qnoVggPb210rBAe2396VjMD2R6lkBPbnFzt3YRRBFARhuAwLgASOMtydPsc5xd3zDwGfEhzezr3erZ4UvtOZrX8oow/mCdhGX8QC1qQe2P9zekYwMYFnnVdbc/MLgokJvOi62lpaXkFkYAH7PZg3ky8AkYEF7LfaKpYACmABe6y2ypUqBMwB7LDaWl1bBwTMBNy9kVzhY2RzCxAwGXB3YoWP7R1AwFTANgMJFD5q9SoETAocXvjINZqAgHmBAwsfrTYgYGrgkMLH7h4gYG7ggMLH/sEhBMwNHFD46DtqAgLmBg4ofByfAALmBg4ofMzNAwLmB/5n4eN0eQUC5gf+V+HDjoIC5gf+X+HjrAQIOB3A/yh82FFQwKkEtsLHL46CAuYH/nPhw46CAk45sBU+Ph4FOwqsOe/3Av5Y+LioV9FpYM3llQPwh0OiHQUFHGGubzyArfBhX8ULbUDAcSbXe+sF3N09cfdyNaoAmQWeuX9k7y7g2kjTOI7/z93d3f0ue+7u7h87CxZuyQM0LQ0NVOCuFnyRxVbC4iQUd9u0uNe9UPf2XLNk3vczycxAmMy2E5rvR3H5oe8zeRIRGRUZHWOKhV596Gmv0Dow90d43P+5tRo4NirOTIL4hMR1FujT+vvCgdXYkEQ+NkKv3v+R1+kzsDU5ICbcDZts5CsF+vW+13xMj4GTKCCpuAs2k78t0LOtbwoHXo1taeQvHfr2pz+HAwcunSS2Q+ee8vod4cCBSiKJndC9Xe99YThwQHYTZ8/IzMrekpNLeQgBD+SHAwciihizFV4FFoSEPzw3HHhlhcQUIdQ8+OzicOCVlBATjdDz9Bd9Ux+BS7LFSokpy/ZRjjvuIWKMCEUPP6LDo8pHiXHgbkslpgKh6befWtOBw4Hx2re8ek0GDgfmPvSmV6zJwOHA3GOVIRI4r6q6pjYnJyeurr6hAD6cLq9G/rxFe+DR5PKKhZchutQFQWPznpbULa2eV9haU9eW3LhcYKuLgUhTdEt7XI5Ha1aHNRY+Ol1eTRB0FRbCo9u1xAnOVFXU3pPS29cfDZFY48Bgf1zC0OPuCgTr/a/fof/ATS17ScS+b3gE4Ny+w7ydPXZqh0evzwmys62XyAjAMjo2PmEnH/YE9ySYKVIwDaapLcNOIjOtswaAmyOvJCyJGZ+n/fDIoCX7sKTCPVVGXE4evKxZKWnE2BKbtBgk6jtwp/sA+XMkSwOXwePgEHn0iAOnA3C6N5LHBj5EkIhPj10p8CF4HT4yQxIT5dLAdicAa62NiBJEgeddwO50B/k6agJwLLOXfPU5EbQXvFLPgbsySMb8gCQwHYexlpbsFQduheHEUVqyDsB2UpDhWjYw/8475iBZ403+gckI07iNf/ezwFRlHZ8niT5DdJyNJEqhgT+c1G3gyVMky7ZdErgh0U5eG8WBD1kPiQe6zaQkJXb5wKfxBKuZFCQc9w88l8VC2jtFgc0kq5fk2KzQwHNe+m59Bh7JIAVpZ/wDLxBjc4oCz8cTUwOg20ZKjiwfeBEek9OkaMrgF3iBuN088Gr1QxO7XvRNPQYuJEVTPLBUBQ/sI2f5829z07KBzwKwnKNl1PPAEsmqA09boI31z9Ff4MMbSVmMcuCD8oEneEB5J5SezvNF03JmGhUDV6kOTCZoRX+Bh4krqz5oMpkastOIyVQOvEc+cJrwH+5CQmmWu6PqfERE1JHaeOIuwKMw8QmHiKl2C2IAXCCOkkovrhsrGp8mjjoUA7eoD7xhDQeeIibjOLxG+Tf1UYtCYHNJk2zghEvwMJ43WSBiSiFmAlwWMXkA1xVPTFnVCJZ0jqURs1ch8EJWgVxg87669r3kz35q/0OLvcRthpYeebIDf+Ny4IFHFkiQWwBmgJg82cBXChsBmcDndkLe8RkS2JpWCBxJvM2j4Mpt/BW45AKb3d2Af2D7VOGoBYBhkcTSxue64OHMIKbljl2Yp0Hgr/78ewg88Cgxm8A5eY/zMoHT0l2ATGDHrAVKSok5s0LgavnPehwxDdLA86nbAP/A0+5Jmau/yHGiCYJZYoru+DXy6gNfvQysIvCw7AWNKSQolAYunQRkApdtN0CZm5jmFQLXksB2HCJVxLglgeNMYHjghUInOMM8CY5WGcAZiSmB1h545ZMT+Nr192NVgcdkP8uPkyDdP7AjGpAJbEssCPA2DBErBE4gwQTETMRk+gVOugRIA9+AWDwJxiFyRvPAYn+4qX3gb3z9a8DqAh8hRlxonASpfoEXnZALnNaA5W0n5tIKgfnrTIFYIzH9voFbm6C7wPxoS9vAX/3+LWC1gatlA2/hn02/wOWQDXwFAQeeXSHwFRKcg9gIMRd8A2+G7gI/Jjra0jDw7S8CwQQ2i/BPSI3+ArfqPvCn+EJKvuEj+MB/+ZYBKgPLUx84HJgvpOQbPoIN/I2//g3QVeDGqKxzCb1XzIKFeyowX0jJN3wEGfgTHwd0Fdi1yIty91ZgvpCSb/hQH/jXfwf0FdiYRHTPBxYvpFx/n/rAP/zlg9BZ4LxpCgfmCyn5hg9VgX/xmZ8BegvcT+HAooWU/PRSReB//ATQKvCMWUadisDb4sOB5RZSbn3TagNf+xGgXeBHIUdF4O3EkX26d0nuvReYe/6rxBs+Ag/8z1++FboMXEdMTUUsvIYDDnyUBPsg1knMltAJzBdSvk9pkKgc+Ks//xcQfGBRu1GtAu8jgcMArDqww2eyz3UR0x46gbmXvP79ihs+eGDJUFCTwB3E7NQq8F4SLEJF4CESzIxAZCcxg6EUmPvAB6UbPpQDf5sPBYMOXEXMmFaB+WPT1QQuJSYZIpuI2R6SgT2nlx8SbfhQDMyHgloFPkZMhlaBJ0iQqiZwGzG1FnBducQcC7nA/J7t3ira8KEc+PtfBrQLbDiguITMEBOjKnACCfaDsRQFHLiZuNRYCLYNEXPAEHKBuQ9/RLzhQz7w7fuh3vJXVdrbHwUzeb6op4y2qAocR4K0Y1ji6nBQwIENvcQ5xo5ZgMPJ1WXEJSIEA3MffaNkwwcPzIeC2gY+QSJJU62trVMZvfG0ZEJV4EFiZhLr1xUt9sUTBR4YF0nMZp4hH8aQDMx982lP9x0kigN/lg8FNQzceIUU2VxqAp8neQEG7jpAy5hCiAbmnsVPL1/7lt/zwHwoqHlgnCBlDWoCjyQFFRibSdnCo6EbmHvb80QbPnhgPhTUOrDlNCk6oiYwSoILjBpSYptDaAeW3J3OY/d5A/OhoPaB4ZwiJT2qAjt7gwscW0ry4gcQ2oG5F/JB4nPWw+PWLXCaB0Znqp3kTagKDGsZ+bLXNAQSmDthJhkOK0I+MPeSlz4FEloH5qw9MomPJm44rC4wjIdIZKHUCCStJjAKssrIz43NsVgLgbmXvRzaKzjLFMLHZMf+aWJsR4fa50zgmt1MBcQ63II2+Bk5MWSnJUnjA93wiJS8BmMU44SUc0N7Au9iztlktUDkmJuJgdicW3ACYi1uwSxECtxM8p0MzL3ila/CHVVwJvl8VFRE85nD0MC25Nmo8815CIIhb2eEh/X/7di1VUUBFADBh7u7S4K7d/C7QFOawC3FSXDKog+8A9zumWlhsz1I/pWp7LeqratP/h2mst+uobE3IW7gF90JoQMvJgiMwAiMwAiMwAILLDACIzACIzACCyywwAiMwAiMwAj8dQRGYARGYATm/iR2YHa6i2MHZm8/eGAW8mMH5jj3JHZgMktSsQNzdh48MLNTsQNT31YbOzADLVWxA3N9EzswvY1bsQPTUzcSOzBF1cEDs3AbOzB55Z2xA7NTkoodmIeZ4IGZnYsdmPbc+diBGcioih2Yx7HYgekdmgof2L2MHZjllqrYgVnfiB2YtManJDaJk3gAAAAAAAAAAAAAAAAAAAAAngEzLWx85mlRzgAAAABJRU5ErkJggg==;shadow=0;strokeColor=#FC4C02;fillColor=#FCDBBA;fontColor=#999999;align=left;textShadow=0;imageBorder=none;imageBackground=none;" parent="1" vertex="1">
          <mxGeometry x="741.52" y="2391.18" width="135.75" height="67.88" as="geometry" />
        </mxCell>
        <mxCell id="bameNsq92qCA9drPWQOE-56" value="" style="shape=curlyBracket;whiteSpace=wrap;html=1;rounded=1;shadow=0;align=left;rotation=-90;fillColor=#f5f5f5;strokeColor=#666666;fontColor=#333333;" parent="1" vertex="1">
          <mxGeometry x="830.39" y="2178.6" width="20" height="427.28" as="geometry" />
        </mxCell>
        <mxCell id="bameNsq92qCA9drPWQOE-63" value="LAND-ZONE" style="text;html=1;align=center;verticalAlign=middle;whiteSpace=wrap;rounded=0;" parent="1" vertex="1">
          <mxGeometry x="646.11" y="2243" width="88" height="30" as="geometry" />
        </mxCell>
        <mxCell id="bameNsq92qCA9drPWQOE-64" value="RICH-ZONE" style="text;html=1;align=center;verticalAlign=middle;whiteSpace=wrap;rounded=0;" parent="1" vertex="1">
          <mxGeometry x="847.1" y="2243" width="88" height="30" as="geometry" />
        </mxCell>
        <mxCell id="bameNsq92qCA9drPWQOE-66" value="VPS" style="text;align=center;verticalAlign=middle;rounded=0;fillColor=none;strokeColor=none;fillStyle=solid;fontColor=default;whiteSpace=wrap;html=1;" parent="1" vertex="1">
          <mxGeometry x="1133.8300000000002" y="2244" width="40" height="20" as="geometry" />
        </mxCell>
        <mxCell id="bameNsq92qCA9drPWQOE-68" value="" style="shape=curlyBracket;whiteSpace=wrap;html=1;rounded=1;shadow=0;align=left;rotation=-90;fillColor=#f5f5f5;strokeColor=#666666;fontColor=#333333;" parent="1" vertex="1">
          <mxGeometry x="1143.8300000000002" y="2160.9" width="20" height="151.16" as="geometry" />
        </mxCell>
        <mxCell id="HJSCNpmXiqVVtVedSM4P-1" parent="0" />
        <mxCell id="HJSCNpmXiqVVtVedSM4P-92" parent="0" />
      </root>
    </mxGraphModel>
  </diagram>
</mxfile>
